<?xml version="1.0" encoding="UTF-8"?>
<svg id="Layer_2" data-name="Layer 2" xmlns="http://www.w3.org/2000/svg" viewBox="0 0 119.98 120">
  <defs>
    <style>
      .cls-1 {
        fill: #b5e655;
      }

      .cls-2 {
        fill: #4bb5c1;
      }

      .cls-3 {
        fill: #96ca2d;
      }

      .cls-4 {
        fill: #7fc6bc;
      }
    </style>
  </defs>
  <g id="Layer_1-2" data-name="Layer 1">
    <g>
      <path class="cls-4" d="M101.74,15.07l-2.08,2.49,2.46,2.1,2.08-2.49-2.46-2.1ZM102.08,19.1l-1.86-1.59,1.57-1.88,1.86,1.59-1.57,1.88Z"/>
      <path class="cls-2" d="M110.94,15.19l-1.66,2.8,2.76,1.68,1.66-2.8-2.76-1.68ZM111.91,19.11l-2.09-1.27,1.25-2.11,2.09,1.27-1.25,2.11Z"/>
      <path class="cls-1" d="M111.37,4.27l-4.19,3.05,3.01,4.24,4.19-3.05-3.01-4.24ZM110.34,10.66l-2.27-3.2,3.16-2.3,2.27,3.2-3.16,2.3Z"/>
      <path class="cls-1" d="M117.36,10.05l-2.45,2.12,2.09,2.48,2.45-2.12-2.09-2.48ZM117.05,14.08l-1.58-1.87,1.85-1.6,1.58,1.87-1.85,1.6Z"/>
      <path class="cls-2" d="M103.14,5.13l-2.73,1.73,1.71,2.76,2.73-1.73-1.71-2.76ZM102.25,9.08l-1.29-2.09,2.06-1.31,1.29,2.09-2.06,1.31Z"/>
      <path class="cls-4" d="M112.44,13.12l-.72.73.72.73.72-.73-.72-.73ZM112.44,14.4l-.54-.55.54-.55.54.55-.55.55Z"/>
      <path class="cls-2" d="M107.86.07l-2.63,1.88,1.86,2.67,2.63-1.88-1.86-2.67ZM107.18,4.05l-1.4-2.01,1.99-1.42,1.4,2.01-1.99,1.42Z"/>
      <path class="cls-1" d="M118.74.35l-2.98,1.25,1.24,3.01,2.98-1.25-1.23-3.01ZM117.21,4.09l-.93-2.27,2.25-.94.93,2.27-2.25.94Z"/>
      <path class="cls-2" d="M102.69,35.15l-2.54,2,1.98,2.58,2.55-2-1.98-2.58ZM102.19,39.17l-1.49-1.95,1.92-1.51,1.49,1.95-1.92,1.51Z"/>
      <path class="cls-2" d="M112.65,35.16l-2.56,1.98,1.96,2.59,2.56-1.98-1.96-2.59ZM112.12,39.17l-1.48-1.96,1.94-1.49,1.48,1.96-1.93,1.49Z"/>
      <path class="cls-2" d="M112.06,24.49l-4.46,2.63,2.6,4.51,4.46-2.63-2.6-4.51ZM110.43,30.75l-1.96-3.41,3.37-1.98,1.96,3.41-3.37,1.98Z"/>
      <path class="cls-4" d="M117.21,30.11l-2.38,2.2,2.17,2.41,2.38-2.2-2.17-2.41ZM117.03,34.15l-1.64-1.82,1.8-1.66,1.64,1.82-1.8,1.66Z"/>
      <path class="cls-1" d="M103.16,25.21l-2.74,1.72,1.7,2.77,2.74-1.72-1.7-2.77ZM102.25,29.15l-1.28-2.09,2.07-1.3,1.29,2.09-2.07,1.3Z"/>
      <path class="cls-2" d="M111.89,33.3l-.39.95.94.4.39-.95-.94-.4ZM112.37,34.48l-.71-.3.3-.72.71.3-.3.72Z"/>
      <path class="cls-1" d="M106.52,20.1l-1.98,2.57,2.54,2,1.98-2.57-2.54-2ZM107.01,24.12l-1.92-1.51,1.5-1.94,1.92,1.51-1.5,1.94Z"/>
      <path class="cls-4" d="M117.76,20.13l-2.62,1.89,1.87,2.66,2.62-1.89-1.87-2.66ZM117.09,24.12l-1.41-2.01,1.98-1.43,1.41,2.01-1.98,1.43Z"/>
      <path class="cls-1" d="M102.35,55.19l-2.39,2.19,2.16,2.42,2.39-2.19-2.16-2.42ZM102.15,59.23l-1.63-1.83,1.81-1.65,1.63,1.83-1.81,1.65Z"/>
      <path class="cls-2" d="M110.92,55.33l-1.65,2.8,2.77,1.67,1.65-2.8-2.77-1.67ZM111.9,59.25l-2.09-1.26,1.25-2.12,2.09,1.26-1.24,2.12Z"/>
      <path class="cls-3" d="M107.51,44.83l-2.05,4.79,4.73,2.07,2.05-4.79-4.73-2.07ZM109.87,50.85l-3.58-1.57,1.55-3.62,3.58,1.57-1.55,3.62Z"/>
      <path class="cls-2" d="M115.28,50.51l-1.25,3.01,2.97,1.26,1.25-3.01-2.97-1.26ZM116.79,54.26l-2.24-.95.94-2.27,2.24.95-.94,2.27Z"/>
      <path class="cls-2" d="M102.26,45.15l-2.35,2.23,2.21,2.38,2.35-2.23-2.21-2.38ZM102.14,49.2l-1.67-1.79,1.77-1.69,1.67,1.79-1.77,1.69Z"/>
      <path class="cls-1" d="M112.25,53.27l-.62.82.81.63.62-.82-.81-.63ZM112.42,54.54l-.61-.47.47-.62.61.47-.47.62Z"/>
      <path class="cls-2" d="M108.29,40.3l-2.8,1.61,1.59,2.83,2.8-1.61-1.59-2.84ZM107.23,44.2l-1.2-2.14,2.12-1.22,1.2,2.14-2.12,1.22Z"/>
      <path class="cls-1" d="M117.21,40.14l-2.38,2.2,2.17,2.41,2.38-2.2-2.17-2.41ZM117.03,44.18l-1.64-1.82,1.8-1.66,1.64,1.82-1.8,1.66Z"/>
      <path class="cls-1" d="M102.29,75.26l-2.36,2.22,2.19,2.39,2.36-2.22-2.19-2.39ZM102.14,79.3l-1.66-1.8,1.78-1.68,1.66,1.8-1.78,1.68Z"/>
      <path class="cls-1" d="M112.73,75.31l-2.6,1.93,1.91,2.63,2.6-1.93-1.91-2.63ZM112.13,79.31l-1.44-1.99,1.96-1.46,1.44,1.99-1.96,1.46Z"/>
      <path class="cls-1" d="M112.04,64.62l-4.45,2.64,2.61,4.5,4.45-2.64-2.61-4.5ZM110.42,70.89l-1.97-3.4,3.36-1.99,1.97,3.4-3.36,1.99Z"/>
      <path class="cls-2" d="M116.52,70.26l-2.03,2.53,2.51,2.05,2.03-2.53-2.51-2.05ZM116.94,74.29l-1.89-1.55,1.53-1.92,1.89,1.55-1.53,1.91Z"/>
      <path class="cls-1" d="M101.99,65.22l-2.21,2.37,2.35,2.24,2.21-2.37-2.35-2.24ZM102.11,69.27l-1.77-1.69,1.67-1.79,1.77,1.69-1.67,1.79Z"/>
      <path class="cls-3" d="M111.93,73.42l-.42.94.93.42.42-.94-.93-.42ZM112.38,74.62l-.7-.32.32-.71.7.32-.32.71Z"/>
      <path class="cls-2" d="M106.47,60.24l-1.95,2.6,2.57,1.97,1.95-2.6-2.57-1.97ZM107.01,64.25l-1.94-1.49,1.47-1.96,1.94,1.49-1.47,1.96Z"/>
      <path class="cls-1" d="M118.12,60.34l-2.77,1.67,1.65,2.8,2.77-1.67-1.65-2.8ZM117.14,64.27l-1.25-2.12,2.09-1.26,1.25,2.12-2.09,1.26Z"/>
      <path class="cls-1" d="M101.81,95.33l-2.12,2.46,2.43,2.14,2.12-2.46-2.43-2.14ZM102.08,99.37l-1.84-1.62,1.6-1.86,1.84,1.62-1.6,1.86Z"/>
      <path class="cls-2" d="M111.56,95.35l-2.03,2.54,2.51,2.05,2.03-2.54-2.51-2.05ZM111.98,99.37l-1.89-1.55,1.53-1.92,1.89,1.55-1.53,1.92Z"/>
      <path class="cls-4" d="M112.1,84.7l-4.47,2.6,2.57,4.53,4.47-2.6-2.57-4.53ZM110.43,90.95l-1.94-3.42,3.38-1.96,1.94,3.42-3.38,1.96Z"/>
      <path class="cls-1" d="M116.07,90.4l-1.76,2.73,2.7,1.78,1.76-2.73-2.7-1.78ZM116.89,94.36l-2.04-1.35,1.33-2.06,2.04,1.35-1.33,2.06Z"/>
      <path class="cls-1" d="M102.56,85.31l-2.49,2.08,2.05,2.51,2.49-2.07-2.05-2.52ZM102.18,89.34l-1.55-1.9,1.88-1.57,1.55,1.9-1.88,1.57Z"/>
      <path class="cls-2" d="M111.89,93.5l-.39.95.94.4.4-.95-.94-.4ZM112.37,94.69l-.71-.3.3-.72.71.3-.3.72Z"/>
      <path class="cls-2" d="M107.73,80.32l-2.58,1.96,1.93,2.61,2.58-1.96-1.93-2.61ZM107.16,84.32l-1.46-1.97,1.95-1.48,1.46,1.97-1.95,1.48Z"/>
      <path class="cls-2" d="M118.18,80.43l-2.79,1.63,1.61,2.83,2.79-1.63-1.61-2.83ZM117.15,84.34l-1.22-2.13,2.11-1.23,1.22,2.13-2.11,1.23Z"/>
      <path class="cls-1" d="M102.59,115.41l-2.5,2.06,2.03,2.53,2.5-2.06-2.03-2.53ZM102.18,119.44l-1.54-1.91,1.89-1.55,1.54,1.91-1.89,1.55Z"/>
      <path class="cls-3" d="M112.86,115.46l-2.65,1.85,1.83,2.68,2.65-1.85-1.83-2.68ZM112.14,119.44l-1.38-2.03,2-1.4,1.38,2.03-2,1.4Z"/>
      <path class="cls-4" d="M111.16,104.58l-4.1,3.17,3.14,4.14,4.1-3.17-3.14-4.14ZM110.31,111l-2.37-3.13,3.09-2.4,2.37,3.13-3.09,2.4Z"/>
      <path class="cls-4" d="M118.24,110.55l-2.81,1.59,1.57,2.85,2.81-1.59-1.57-2.85ZM117.15,114.44l-1.19-2.15,2.12-1.2,1.19,2.15-2.13,1.2Z"/>
      <path class="cls-1" d="M100.64,105.61l-1.41,2.93,2.9,1.43,1.41-2.93-2.9-1.43ZM101.94,109.43l-2.19-1.08,1.07-2.21,2.19,1.08-1.07,2.21Z"/>
      <path class="cls-2" d="M112.91,113.54l-.92.45.44.93.92-.45-.44-.93ZM112.5,114.75l-.33-.7.69-.34.33.7-.69.34Z"/>
      <path class="cls-4" d="M105.61,100.58l-1.42,2.93,2.89,1.44,1.42-2.93-2.89-1.44ZM106.9,104.41l-2.18-1.09,1.08-2.21,2.18,1.09-1.08,2.21Z"/>
      <path class="cls-2" d="M116.31,100.39l-1.91,2.63,2.6,1.93,1.91-2.63-2.6-1.93ZM116.92,104.39l-1.96-1.46,1.44-1.98,1.96,1.46-1.44,1.98Z"/>
      <path class="cls-4" d="M83.3,15.17l-2.73,1.74,1.72,2.76,2.73-1.74-1.72-2.76ZM82.41,19.11l-1.3-2.09,2.06-1.31,1.3,2.08-2.06,1.31Z"/>
      <path class="cls-2" d="M92.13,15.05l-2.24,2.34,2.31,2.27,2.24-2.34-2.31-2.27ZM92.19,19.1l-1.75-1.71,1.69-1.77,1.75,1.71-1.7,1.77Z"/>
      <path class="cls-1" d="M87.78,4.65l-2.12,4.75,4.7,2.15,2.12-4.76-4.7-2.15ZM90.05,10.71l-3.55-1.62,1.6-3.59,3.55,1.62-1.6,3.59Z"/>
      <path class="cls-1" d="M95.92,10.21l-1.57,2.85,2.82,1.59,1.57-2.85-2.82-1.59ZM97.01,14.1l-2.13-1.2,1.19-2.15,2.13,1.2-1.19,2.15Z"/>
      <path class="cls-1" d="M81.85,5.04l-2.05,2.51,2.49,2.08,2.05-2.52-2.49-2.07ZM82.23,9.07l-1.88-1.57,1.55-1.9,1.88,1.57-1.55,1.9Z"/>
      <path class="cls-3" d="M92.5,13.13l-.67.78.77.68.67-.78-.77-.67ZM92.59,14.4l-.58-.51.5-.59.58.51-.5.59Z"/>
      <path class="cls-2" d="M87.81.04l-2.54,2,1.98,2.57,2.54-2-1.98-2.57ZM87.31,4.05l-1.5-1.94,1.92-1.51,1.49,1.94-1.92,1.51Z"/>
      <path class="cls-2" d="M95.95.17l-1.59,2.84,2.81,1.61,1.59-2.84-2.8-1.61ZM97.01,4.07l-2.12-1.21,1.2-2.14,2.12,1.21-1.2,2.14Z"/>
      <path class="cls-1" d="M80.93,35.33l-1.5,2.89,2.85,1.52,1.5-2.89-2.85-1.52ZM82.12,39.19l-2.16-1.15,1.13-2.18,2.16,1.15-1.13,2.18Z"/>
      <path class="cls-1" d="M93.55,35.33l-2.85,1.52,1.5,2.89,2.85-1.52-1.5-2.89ZM92.37,39.19l-1.13-2.18,2.15-1.15,1.13,2.18-2.15,1.15Z"/>
      <path class="cls-3" d="M93.14,24.8l-4.76,2.01,1.99,4.82,4.76-2.01-1.99-4.82ZM90.7,30.79l-1.5-3.64,3.6-1.52,1.5,3.64-3.6,1.52Z"/>
      <path class="cls-1" d="M97.05,30.1l-2.22,2.36,2.33,2.25,2.22-2.36-2.33-2.25ZM97.15,34.15l-1.76-1.7,1.68-1.78,1.76,1.7-1.68,1.78Z"/>
      <path class="cls-2" d="M81.19,25.22l-1.67,2.79,2.76,1.69,1.67-2.79-2.76-1.69ZM82.15,29.15l-2.08-1.27,1.26-2.11,2.08,1.27-1.26,2.11Z"/>
      <path class="cls-2" d="M92.83,33.21l-.83.6.6.84.83-.6-.6-.84ZM92.63,34.47l-.45-.63.62-.46.45.63-.62.46Z"/>
      <path class="cls-4" d="M86.41,20.15l-1.82,2.69,2.66,1.84,1.82-2.69-2.66-1.84ZM87.14,24.12l-2.01-1.39,1.38-2.03,2.01,1.39-1.38,2.03Z"/>
      <path class="cls-4" d="M95.55,20.37l-1.32,2.97,2.94,1.34,1.32-2.97-2.94-1.34ZM96.97,24.15l-2.22-1.01,1-2.25,2.22,1.01-1,2.25Z"/>
      <path class="cls-2" d="M81.26,55.3l-1.71,2.77,2.73,1.73,1.71-2.77-2.73-1.73ZM82.16,59.25l-2.07-1.3,1.29-2.09,2.06,1.3-1.29,2.09Z"/>
      <path class="cls-4" d="M93.37,55.34l-2.79,1.64,1.62,2.82,2.79-1.64-1.62-2.82ZM92.35,59.25l-1.23-2.13,2.1-1.24,1.23,2.13-2.1,1.24Z"/>
      <path class="cls-4" d="M88.89,44.46l-2.84,4.36,4.31,2.87,2.84-4.36-4.31-2.87ZM90.18,50.81l-3.25-2.17,2.14-3.29,3.25,2.17-2.14,3.29Z"/>
      <path class="cls-4" d="M98.52,50.38l-2.86,1.51,1.5,2.89,2.86-1.51-1.5-2.89ZM97.33,54.24l-1.13-2.18,2.16-1.14,1.13,2.18-2.16,1.14Z"/>
      <path class="cls-2" d="M80.69,45.44l-1.34,2.97,2.93,1.35,1.34-2.97-2.93-1.35ZM82.09,49.23l-2.22-1.02,1.01-2.24,2.21,1.02-1.01,2.24Z"/>
      <path class="cls-2" d="M92.12,53.34l-.44.93.92.44.44-.93-.92-.44ZM92.54,54.55l-.69-.34.33-.7.7.33-.33.7Z"/>
      <path class="cls-1" d="M86.84,40.15l-2.07,2.5,2.47,2.09,2.07-2.5-2.47-2.09ZM87.19,44.18l-1.87-1.58,1.56-1.89,1.87,1.58-1.56,1.89Z"/>
      <path class="cls-2" d="M97.13,40.13l-2.26,2.32,2.3,2.29,2.26-2.32-2.3-2.29ZM97.16,44.18l-1.74-1.73,1.71-1.76,1.74,1.73-1.71,1.76Z"/>
      <path class="cls-4" d="M83.4,75.39l-2.77,1.67,1.65,2.8,2.77-1.67-1.65-2.8ZM82.42,79.32l-1.25-2.12,2.09-1.26,1.25,2.12-2.09,1.26Z"/>
      <path class="cls-4" d="M92.19,75.25l-2.27,2.31,2.29,2.3,2.27-2.32-2.29-2.3ZM92.2,79.3l-1.73-1.73,1.71-1.75,1.73,1.74-1.71,1.75Z"/>
      <path class="cls-3" d="M90.98,64.41l-3.94,3.36,3.32,3.99,3.94-3.36-3.33-3.99ZM90.44,70.86l-2.51-3.01,2.98-2.54,2.51,3.01-2.98,2.54Z"/>
      <path class="cls-2" d="M95.93,70.41l-1.58,2.84,2.81,1.59,1.58-2.84-2.81-1.59ZM97.01,74.3l-2.12-1.2,1.19-2.15,2.12,1.2-1.19,2.15Z"/>
      <path class="cls-3" d="M81.2,65.35l-1.67,2.79,2.76,1.69,1.67-2.79-2.76-1.69ZM82.15,69.28l-2.08-1.28,1.26-2.11,2.08,1.28-1.26,2.11Z"/>
      <path class="cls-2" d="M92.87,73.35l-.84.58.58.85.84-.58-.58-.85ZM92.63,74.61l-.44-.64.64-.44.44.64-.64.44Z"/>
      <path class="cls-1" d="M86.05,60.36l-1.6,2.83,2.8,1.62,1.6-2.83-2.8-1.62ZM87.1,64.27l-2.11-1.22,1.21-2.14,2.11,1.22-1.21,2.14Z"/>
      <path class="cls-2" d="M97.81,60.25l-2.58,1.95,1.93,2.61,2.58-1.95-1.93-2.61ZM97.24,64.26l-1.46-1.97,1.95-1.48,1.46,1.97-1.95,1.48Z"/>
      <path class="cls-4" d="M83.22,95.42l-2.7,1.79,1.77,2.73,2.7-1.79-1.77-2.73ZM82.4,99.38l-1.33-2.06,2.04-1.35,1.33,2.06-2.04,1.35Z"/>
      <path class="cls-2" d="M92.71,95.35l-2.52,2.03,2.01,2.55,2.52-2.03-2.01-2.55ZM92.27,99.37l-1.52-1.92,1.9-1.54,1.52,1.92-1.9,1.54Z"/>
      <path class="cls-2" d="M91.19,84.49l-4.04,3.25,3.21,4.08,4.04-3.25-3.21-4.08ZM90.46,90.93l-2.43-3.08,3.05-2.45,2.43,3.08-3.05,2.45Z"/>
      <path class="cls-1" d="M96.33,90.38l-1.82,2.69,2.66,1.84,1.82-2.69-2.66-1.84ZM97.06,94.36l-2.01-1.39,1.38-2.03,2.01,1.39-1.37,2.03Z"/>
      <path class="cls-2" d="M82.73,85.31l-2.49,2.07,2.04,2.52,2.49-2.07-2.04-2.52ZM82.34,89.34l-1.54-1.9,1.88-1.56,1.54,1.91-1.88,1.56Z"/>
      <path class="cls-1" d="M92.64,93.39l-.74.71.7.75.74-.71-.7-.75ZM92.61,94.67l-.53-.57.56-.54.53.57-.56.54Z"/>
      <path class="cls-1" d="M87.4,80.27l-2.35,2.23,2.2,2.38,2.35-2.23-2.2-2.38ZM87.26,84.32l-1.66-1.8,1.78-1.68,1.66,1.8-1.78,1.68Z"/>
      <path class="cls-4" d="M98.27,80.41l-2.76,1.68,1.66,2.79,2.76-1.68-1.66-2.79ZM97.3,84.33l-1.25-2.11,2.09-1.27,1.25,2.11-2.09,1.27Z"/>
      <path class="cls-1" d="M80.64,115.7l-1.31,2.98,2.95,1.32,1.31-2.98-2.95-1.32ZM82.08,119.47l-2.23-1,.99-2.25,2.23,1-.99,2.25Z"/>
      <path class="cls-4" d="M92.31,115.39l-2.33,2.25,2.22,2.36,2.33-2.25-2.22-2.36ZM92.22,119.44l-1.68-1.78,1.76-1.7,1.68,1.78-1.76,1.7Z"/>
      <path class="cls-1" d="M89.4,104.58l-3.13,4.14,4.1,3.17,3.13-4.14-4.1-3.17ZM90.24,111l-3.09-2.4,2.37-3.13,3.09,2.39-2.37,3.13Z"/>
      <path class="cls-4" d="M97.82,110.42l-2.58,1.95,1.93,2.61,2.58-1.95-1.93-2.61ZM97.24,114.42l-1.46-1.97,1.95-1.47,1.46,1.97-1.95,1.47Z"/>
      <path class="cls-3" d="M81.13,105.51l-1.63,2.81,2.78,1.65,1.63-2.82-2.78-1.65ZM82.14,109.42l-2.1-1.24,1.23-2.13,2.1,1.24-1.23,2.13Z"/>
      <path class="cls-4" d="M92.16,113.53l-.47.92.91.47.47-.92-.91-.47ZM92.55,114.75l-.68-.36.35-.69.68.36-.35.69Z"/>
      <path class="cls-4" d="M87.46,100.34l-2.39,2.19,2.17,2.41,2.39-2.19-2.17-2.41ZM87.27,104.39l-1.64-1.82,1.8-1.66,1.64,1.82-1.8,1.66Z"/>
      <path class="cls-4" d="M95.79,100.55l-1.49,2.89,2.86,1.5,1.48-2.89-2.86-1.5ZM96.99,104.41l-2.16-1.13,1.12-2.19,2.16,1.13-1.12,2.19Z"/>
      <path class="cls-2" d="M63.98,15.32l-2.91,1.4,1.38,2.95,2.91-1.4-1.38-2.95ZM62.63,19.13l-1.04-2.22,2.2-1.06,1.04,2.23-2.2,1.06Z"/>
      <path class="cls-1" d="M72.23,15.05l-2.21,2.37,2.35,2.24,2.21-2.37-2.35-2.24ZM72.35,19.1l-1.77-1.69,1.67-1.79,1.77,1.69-1.67,1.79Z"/>
      <path class="cls-1" d="M72.9,4.58l-4.64,2.29,2.26,4.69,4.64-2.29-2.26-4.69ZM70.81,10.7l-1.71-3.54,3.5-1.73,1.71,3.54-3.5,1.73Z"/>
      <path class="cls-2" d="M76.05,10.22l-1.55,2.86,2.83,1.57,1.55-2.86-2.83-1.57ZM77.17,14.1l-2.14-1.18,1.17-2.16,2.13,1.18-1.17,2.16Z"/>
      <path class="cls-2" d="M63.4,5.12l-2.7,1.78,1.75,2.73,2.7-1.77-1.75-2.74ZM62.56,9.08l-1.33-2.07,2.04-1.34,1.33,2.07-2.04,1.34Z"/>
      <path class="cls-1" d="M73.07,13.16l-.86.56.55.87.86-.56-.55-.87ZM72.8,14.41l-.42-.65.65-.42.42.65-.65.42Z"/>
      <path class="cls-1" d="M68.27.08l-2.67,1.83,1.81,2.7,2.67-1.83-1.81-2.7ZM67.51,4.06l-1.36-2.04,2.02-1.38,1.36,2.04-2.02,1.38Z"/>
      <path class="cls-2" d="M77.26,0l-2.25,2.34,2.31,2.27,2.25-2.34-2.31-2.27ZM77.32,4.05l-1.75-1.72,1.7-1.77,1.75,1.72-1.7,1.77Z"/>
      <path class="cls-2" d="M62.18,35.13l-2.14,2.44,2.41,2.17,2.14-2.43-2.41-2.17ZM62.41,39.17l-1.82-1.64,1.62-1.84,1.82,1.64-1.62,1.84Z"/>
      <path class="cls-1" d="M73.94,35.4l-2.93,1.37,1.35,2.96,2.93-1.37-1.35-2.96ZM72.56,39.2l-1.02-2.24,2.21-1.03,1.02,2.24-2.21,1.03Z"/>
      <path class="cls-1" d="M72.8,24.61l-4.61,2.35,2.32,4.66,4.61-2.35-2.32-4.66ZM70.8,30.77l-1.76-3.52,3.48-1.78,1.76,3.52-3.48,1.78Z"/>
      <path class="cls-2" d="M75.86,30.34l-1.43,2.92,2.89,1.44,1.43-2.92-2.89-1.44ZM77.15,34.18l-2.18-1.09,1.08-2.21,2.18,1.09-1.08,2.21Z"/>
      <path class="cls-2" d="M63.52,25.21l-2.75,1.7,1.68,2.78,2.75-1.7-1.68-2.78ZM62.58,29.15l-1.27-2.1,2.08-1.29,1.27,2.1-2.08,1.28Z"/>
      <path class="cls-1" d="M73.31,33.3l-.94.4.39.95.94-.4-.4-.95ZM72.83,34.48l-.3-.72.71-.3.3.72-.71.3Z"/>
      <path class="cls-1" d="M67.86,20.09l-2.49,2.07,2.04,2.52,2.49-2.07-2.04-2.52ZM67.46,24.12l-1.54-1.9,1.88-1.56,1.54,1.91-1.88,1.56Z"/>
      <path class="cls-2" d="M78.27,20.17l-2.7,1.78,1.76,2.73,2.7-1.78-1.76-2.73ZM77.44,24.13l-1.33-2.06,2.04-1.34,1.33,2.06-2.04,1.34Z"/>
      <path class="cls-4" d="M62.55,55.19l-2.33,2.25,2.23,2.36,2.33-2.25-2.23-2.36ZM62.46,59.23l-1.68-1.78,1.76-1.7,1.68,1.78-1.76,1.7Z"/>
      <path class="cls-1" d="M72.4,55.19l-2.29,2.29,2.26,2.32,2.29-2.29-2.26-2.32ZM72.37,59.23l-1.71-1.75,1.73-1.73,1.71,1.75-1.73,1.73Z"/>
      <path class="cls-1" d="M68.24,44.68l-2.32,4.66,4.6,2.35,2.32-4.66-4.6-2.35ZM70.24,50.83l-3.48-1.78,1.76-3.52,3.48,1.78-1.75,3.52Z"/>
      <path class="cls-3" d="M78.31,50.28l-2.72,1.75,1.74,2.75,2.72-1.75-1.74-2.75ZM77.45,54.23l-1.31-2.08,2.05-1.33,1.31,2.08-2.05,1.33Z"/>
      <path class="cls-1" d="M62.92,45.18l-2.5,2.05,2.03,2.53,2.5-2.05-2.03-2.53ZM62.51,49.2l-1.53-1.91,1.89-1.55,1.53,1.91-1.89,1.55Z"/>
      <path class="cls-3" d="M72.77,53.26l-.72.73.72.73.72-.73-.72-.73ZM72.76,54.54l-.54-.55.55-.55.54.55-.55.55Z"/>
      <path class="cls-1" d="M67.11,40.14l-2.13,2.45,2.42,2.15,2.13-2.45-2.42-2.15ZM67.37,44.18l-1.83-1.63,1.61-1.85,1.83,1.63-1.61,1.85Z"/>
      <path class="cls-1" d="M77.76,40.16l-2.48,2.08,2.05,2.51,2.48-2.08-2.05-2.51ZM77.38,44.18l-1.55-1.9,1.88-1.57,1.55,1.9-1.88,1.57Z"/>
      <path class="cls-3" d="M63.85,75.48l-2.87,1.48,1.46,2.9,2.87-1.48-1.46-2.9ZM62.62,79.33l-1.11-2.19,2.17-1.12,1.11,2.19-2.17,1.12Z"/>
      <path class="cls-3" d="M70.88,75.51l-1.41,2.93,2.9,1.43,1.41-2.93-2.9-1.43ZM72.18,79.33l-2.19-1.08,1.07-2.21,2.19,1.08-1.07,2.21Z"/>
      <path class="cls-3" d="M72.5,64.65l-4.5,2.55,2.52,4.55,4.5-2.55-2.52-4.55ZM70.76,70.89l-1.91-3.44,3.4-1.93,1.91,3.44-3.4,1.93Z"/>
      <path class="cls-1" d="M78.97,70.55l-2.95,1.32,1.3,2.98,2.95-1.32-1.3-2.98ZM77.53,74.32l-.99-2.25,2.23-1,.98,2.25-2.23,1Z"/>
      <path class="cls-3" d="M61.39,65.34l-1.69,2.78,2.74,1.71,1.69-2.78-2.75-1.71ZM62.32,69.28l-2.07-1.29,1.28-2.1,2.07,1.29-1.28,2.1Z"/>
      <path class="cls-2" d="M72.24,73.43l-.41.94.93.41.41-.94-.93-.41ZM72.7,74.62l-.71-.31.31-.71.71.31-.31.71Z"/>
      <path class="cls-1" d="M68.37,60.31l-2.71,1.76,1.74,2.74,2.71-1.76-1.74-2.74ZM67.52,64.26l-1.32-2.07,2.05-1.33,1.32,2.07-2.05,1.33Z"/>
      <path class="cls-1" d="M75.71,60.5l-1.32,2.97,2.94,1.34,1.32-2.97-2.94-1.34ZM77.13,64.29l-2.22-1.01,1-2.25,2.22,1.01-1,2.25Z"/>
      <path class="cls-2" d="M62.48,95.32l-2.3,2.29,2.26,2.33,2.3-2.29-2.26-2.33ZM62.45,99.37l-1.71-1.76,1.74-1.73,1.71,1.76-1.74,1.73Z"/>
      <path class="cls-1" d="M70.82,95.6l-1.37,2.95,2.92,1.38,1.37-2.95-2.92-1.38ZM72.18,99.4l-2.2-1.05,1.03-2.23,2.2,1.04-1.03,2.23Z"/>
      <path class="cls-1" d="M69.98,84.47l-3.36,3.96,3.91,3.4,3.37-3.96-3.91-3.4ZM70.46,90.93l-2.95-2.57,2.54-2.99,2.95,2.57-2.54,2.99Z"/>
      <path class="cls-1" d="M76.4,90.4l-1.77,2.72,2.69,1.79,1.77-2.72-2.69-1.79ZM77.21,94.36l-2.03-1.35,1.34-2.06,2.03,1.35-1.34,2.06Z"/>
      <path class="cls-1" d="M63.44,85.4l-2.72,1.75,1.73,2.75,2.72-1.75-1.73-2.75ZM62.57,89.35l-1.31-2.08,2.06-1.32,1.3,2.08-2.05,1.32Z"/>
      <path class="cls-1" d="M72.9,93.4l-.79.66.65.79.79-.66-.65-.8ZM72.78,94.67l-.49-.6.59-.5.49.6-.59.5Z"/>
      <path class="cls-1" d="M68.08,80.32l-2.59,1.94,1.92,2.62,2.59-1.94-1.92-2.62ZM67.49,84.32l-1.45-1.98,1.96-1.46,1.45,1.98-1.96,1.46Z"/>
      <path class="cls-1" d="M77.26,80.27l-2.25,2.34,2.31,2.27,2.25-2.34-2.31-2.27ZM77.32,84.32l-1.75-1.72,1.7-1.77,1.75,1.72-1.7,1.76Z"/>
      <path class="cls-4" d="M62.3,115.39l-2.21,2.38,2.35,2.23,2.21-2.38-2.35-2.23ZM62.43,119.44l-1.77-1.69,1.67-1.8,1.77,1.69-1.67,1.8Z"/>
      <path class="cls-2" d="M74.07,115.72l-2.96,1.28,1.26,3,2.96-1.28-1.26-3ZM72.57,119.48l-.96-2.26,2.24-.97.95,2.27-2.24.97Z"/>
      <path class="cls-2" d="M69.63,104.57l-3.18,4.11,4.06,3.21,3.18-4.11-4.06-3.21ZM70.41,111l-3.07-2.43,2.4-3.11,3.07,2.43-2.4,3.11Z"/>
      <path class="cls-2" d="M78.86,110.64l-2.91,1.39,1.38,2.95,2.91-1.39-1.38-2.95ZM77.51,114.45l-1.04-2.23,2.2-1.05,1.04,2.23-2.2,1.05Z"/>
      <path class="cls-1" d="M63.63,105.51l-2.79,1.63,1.61,2.83,2.79-1.63-1.61-2.83ZM62.59,109.42l-1.22-2.13,2.11-1.23,1.22,2.13-2.11,1.23Z"/>
      <path class="cls-2" d="M72.97,113.48l-.81.62.61.82.82-.62-.61-.82ZM72.79,114.74l-.46-.62.62-.47.46.62-.62.47Z"/>
      <path class="cls-2" d="M67.56,100.34l-2.36,2.22,2.2,2.38,2.36-2.22-2.2-2.38ZM67.43,104.39l-1.66-1.8,1.78-1.68,1.66,1.8-1.78,1.68Z"/>
      <path class="cls-3" d="M77.84,100.37l-2.52,2.03,2.01,2.55,2.52-2.03-2.01-2.55ZM77.39,104.39l-1.52-1.93,1.91-1.53,1.52,1.93-1.9,1.53Z"/>
      <path class="cls-4" d="M44.02,15.28l-2.87,1.48,1.46,2.91,2.87-1.48-1.46-2.91ZM42.78,19.12l-1.1-2.2,2.17-1.12,1.1,2.2-2.17,1.12Z"/>
      <path class="cls-3" d="M53.67,15.2l-2.78,1.66,1.64,2.81,2.78-1.66-1.64-2.81ZM52.67,19.12l-1.24-2.12,2.1-1.25,1.24,2.12-2.1,1.25Z"/>
      <path class="cls-1" d="M48.91,4.4l-2.65,4.48,4.42,2.68,2.65-4.48-4.42-2.68ZM50.47,10.68l-3.34-2.03,2-3.38,3.34,2.03-2,3.38Z"/>
      <path class="cls-3" d="M58.4,10.13l-2.69,1.79,1.77,2.72,2.69-1.79-1.77-2.72ZM57.6,14.09l-1.34-2.06,2.03-1.36,1.34,2.06-2.03,1.36Z"/>
      <path class="cls-1" d="M40.97,5.32l-1.31,2.98,2.95,1.32,1.31-2.98-2.95-1.32ZM42.41,9.1l-2.23-1,.99-2.25,2.23,1-.99,2.25Z"/>
      <path class="cls-2" d="M52.95,13.12l-.73.72.71.74.73-.72-.71-.74ZM52.93,14.4l-.53-.56.55-.54.53.56-.55.54Z"/>
      <path class="cls-4" d="M46.65.09l-1.77,2.73,2.69,1.79,1.77-2.72-2.69-1.79ZM47.46,4.06l-2.03-1.35,1.34-2.06,2.03,1.35-1.34,2.06Z"/>
      <path class="cls-2" d="M58.67.16l-2.79,1.63,1.61,2.82,2.79-1.63-1.61-2.82ZM57.63,4.07l-1.22-2.13,2.11-1.23,1.22,2.13-2.11,1.23Z"/>
      <path class="cls-1" d="M41.22,35.34l-1.48,2.9,2.87,1.49,1.48-2.9-2.87-1.49ZM42.44,39.19l-2.16-1.13,1.11-2.19,2.16,1.13-1.11,2.19Z"/>
      <path class="cls-1" d="M53.83,35.31l-2.83,1.55,1.53,2.87,2.83-1.55-1.53-2.87ZM52.69,39.19l-1.16-2.17,2.14-1.17,1.16,2.17-2.14,1.17Z"/>
      <path class="cls-4" d="M48.45,24.6l-2.35,4.64,4.59,2.38,2.35-4.64-4.59-2.38ZM50.41,30.76l-3.47-1.8,1.78-3.51,3.47,1.8-1.78,3.51Z"/>
      <path class="cls-4" d="M59.03,30.37l-2.92,1.39,1.37,2.95,2.92-1.39-1.37-2.95ZM57.68,34.18l-1.04-2.23,2.2-1.05,1.04,2.23-2.2,1.05Z"/>
      <path class="cls-2" d="M42.1,25.11l-2.01,2.55,2.52,2.03,2.01-2.55-2.52-2.03ZM42.55,29.13l-1.9-1.53,1.52-1.93,1.9,1.53-1.52,1.93Z"/>
      <path class="cls-4" d="M53.08,33.2l-.79.65.64.8.79-.65-.64-.8ZM52.94,34.47l-.48-.61.6-.49.48.61-.6.49Z"/>
      <path class="cls-1" d="M47.52,20.07l-2.25,2.33,2.3,2.28,2.25-2.33-2.3-2.28ZM47.56,24.11l-1.74-1.72,1.7-1.76,1.74,1.72-1.7,1.76Z"/>
      <path class="cls-2" d="M59.2,20.4l-2.97,1.27,1.26,3,2.97-1.27-1.26-3ZM57.7,24.16l-.95-2.27,2.24-.96.95,2.27-2.24.96Z"/>
      <path class="cls-1" d="M43.12,55.21l-2.52,2.03,2.01,2.55,2.52-2.03-2.01-2.55ZM42.67,59.24l-1.52-1.93,1.9-1.54,1.52,1.93-1.9,1.54Z"/>
      <path class="cls-4" d="M51.87,55.23l-1.93,2.62,2.59,1.95,1.93-2.61-2.59-1.95ZM52.45,59.24l-1.95-1.47,1.45-1.98,1.95,1.47-1.45,1.98Z"/>
      <path class="cls-4" d="M52.11,44.45l-4.29,2.9,2.86,4.34,4.29-2.9-2.86-4.34ZM50.86,50.81l-2.16-3.28,3.24-2.19,2.16,3.28-3.24,2.19Z"/>
      <path class="cls-4" d="M56.07,50.4l-1.45,2.91,2.88,1.47,1.46-2.91-2.88-1.47ZM57.31,54.24l-2.17-1.11,1.1-2.2,2.17,1.11-1.1,2.2Z"/>
      <path class="cls-2" d="M42.09,45.18l-2.01,2.55,2.52,2.03,2.01-2.55-2.52-2.03ZM42.55,49.2l-1.9-1.53,1.52-1.93,1.9,1.53-1.52,1.93Z"/>
      <path class="cls-3" d="M52.95,53.26l-.73.72.71.74.73-.72-.71-.74ZM52.93,54.54l-.54-.56.55-.54.54.56-.55.54Z"/>
      <path class="cls-2" d="M46.49,40.27l-1.68,2.79,2.75,1.69,1.68-2.79-2.75-1.69ZM47.44,44.2l-2.08-1.28,1.27-2.1,2.08,1.28-1.27,2.1Z"/>
      <path class="cls-2" d="M56.85,40.18l-1.94,2.6,2.58,1.96,1.94-2.6-2.57-1.96ZM57.41,44.19l-1.94-1.48,1.46-1.97,1.95,1.48-1.46,1.97Z"/>
      <path class="cls-2" d="M43.3,75.31l-2.6,1.93,1.91,2.63,2.6-1.93-1.91-2.63ZM42.69,79.31l-1.44-1.99,1.96-1.46,1.44,1.99-1.96,1.46Z"/>
      <path class="cls-2" d="M52.2,75.27l-2.11,2.47,2.44,2.13,2.11-2.47-2.44-2.13ZM52.49,79.3l-1.84-1.61,1.59-1.86,1.84,1.61-1.59,1.86Z"/>
      <path class="cls-4" d="M49.24,64.53l-2.85,4.35,4.3,2.88,2.85-4.35-4.3-2.88ZM50.51,70.87l-3.25-2.18,2.15-3.28,3.25,2.18-2.15,3.28Z"/>
      <path class="cls-3" d="M58.04,70.27l-2.54,2.01,1.98,2.57,2.54-2.01-1.98-2.57ZM57.56,74.29l-1.5-1.94,1.92-1.52,1.5,1.94-1.92,1.52Z"/>
      <path class="cls-4" d="M42.65,65.22l-2.3,2.28,2.26,2.33,2.3-2.28-2.26-2.33ZM42.61,69.27l-1.71-1.76,1.74-1.73,1.71,1.76-1.74,1.72Z"/>
      <path class="cls-2" d="M52.56,73.37l-.51.89.88.52.51-.89-.88-.52ZM52.88,74.61l-.66-.39.39-.67.66.39-.39.67Z"/>
      <path class="cls-1" d="M45.89,60.53l-1.28,2.99,2.96,1.3,1.28-2.99-2.96-1.29ZM47.36,64.29l-2.23-.98.97-2.26,2.23.98-.97,2.26Z"/>
      <path class="cls-3" d="M57.71,60.21l-2.39,2.19,2.17,2.41,2.39-2.19-2.17-2.41ZM57.51,64.25l-1.64-1.82,1.8-1.66,1.64,1.82-1.8,1.66Z"/>
      <path class="cls-4" d="M42.53,95.32l-2.24,2.35,2.32,2.26,2.24-2.35-2.32-2.26ZM42.6,99.37l-1.75-1.71,1.69-1.77,1.75,1.71-1.69,1.77Z"/>
      <path class="cls-1" d="M51.59,95.42l-1.76,2.73,2.7,1.78,1.76-2.73-2.7-1.78ZM52.41,99.38l-2.04-1.34,1.33-2.06,2.04,1.34-1.33,2.06Z"/>
      <path class="cls-2" d="M49.25,84.59l-2.86,4.34,4.29,2.89,2.86-4.34-4.29-2.89ZM50.51,90.94l-3.24-2.18,2.16-3.28,3.24,2.18-2.16,3.28Z"/>
      <path class="cls-1" d="M59.03,90.58l-2.92,1.39,1.37,2.95,2.92-1.39-1.37-2.95ZM57.68,94.38l-1.04-2.23,2.2-1.05,1.04,2.23-2.2,1.05Z"/>
      <path class="cls-4" d="M43.45,85.37l-2.66,1.84,1.82,2.69,2.66-1.84-1.82-2.69ZM42.71,89.34l-1.37-2.03,2.01-1.39,1.37,2.03-2.01,1.39Z"/>
      <path class="cls-1" d="M52.58,93.44l-.53.88.87.54.53-.88-.87-.54ZM52.88,94.68l-.66-.4.4-.67.66.4-.4.67Z"/>
      <path class="cls-4" d="M49.3,80.61l-2.97,1.26,1.25,3.01,2.97-1.26-1.25-3.01ZM47.78,84.36l-.94-2.27,2.25-.95.94,2.27-2.25.95Z"/>
      <path class="cls-1" d="M58.75,80.45l-2.82,1.58,1.56,2.85,2.82-1.58-1.56-2.85ZM57.64,84.34l-1.18-2.16,2.13-1.19,1.18,2.16-2.13,1.19Z"/>
      <path class="cls-4" d="M43.74,115.53l-2.77,1.66,1.64,2.8,2.77-1.66-1.64-2.8ZM42.75,119.45l-1.24-2.12,2.09-1.26,1.24,2.12-2.09,1.26Z"/>
      <path class="cls-2" d="M51.31,115.56l-1.59,2.84,2.8,1.61,1.59-2.84-2.8-1.61ZM52.38,119.46l-2.12-1.21,1.2-2.14,2.12,1.21-1.2,2.14Z"/>
      <path class="cls-2" d="M48.85,104.75l-2.61,4.5,4.45,2.64,2.61-4.5-4.45-2.64ZM50.46,111.02l-3.36-2,1.97-3.4,3.36,2-1.97,3.4Z"/>
      <path class="cls-3" d="M58.78,110.56l-2.83,1.56,1.54,2.87,2.83-1.56-1.54-2.86ZM57.65,114.44l-1.16-2.16,2.14-1.18,1.16,2.16-2.14,1.18Z"/>
      <path class="cls-2" d="M44.34,105.7l-2.97,1.26,1.24,3.01,2.97-1.26-1.24-3.01ZM42.82,109.44l-.94-2.27,2.25-.95.94,2.27-2.25.95Z"/>
      <path class="cls-1" d="M52.95,113.46l-.73.72.71.74.73-.72-.71-.74ZM52.93,114.74l-.53-.56.55-.54.53.56-.55.54Z"/>
      <path class="cls-1" d="M46.93,100.38l-1.94,2.61,2.58,1.96,1.94-2.61-2.58-1.96ZM47.49,104.39l-1.95-1.48,1.46-1.97,1.95,1.48-1.46,1.97Z"/>
      <path class="cls-3" d="M56.72,100.4l-1.86,2.66,2.63,1.89,1.87-2.66-2.63-1.89ZM57.39,104.39l-1.99-1.43,1.41-2.01,1.99,1.42-1.41,2.01Z"/>
      <path class="cls-1" d="M23.91,15.2l-2.78,1.66,1.64,2.81,2.78-1.66-1.64-2.81ZM22.91,19.11l-1.24-2.12,2.1-1.25,1.24,2.12-2.1,1.25Z"/>
      <path class="cls-4" d="M33.88,15.21l-2.8,1.62,1.6,2.83,2.8-1.62-1.6-2.83ZM32.84,19.12l-1.21-2.14,2.11-1.23,1.21,2.14-2.11,1.23Z"/>
      <path class="cls-2" d="M31.14,4.18l-3.79,3.54,3.5,3.84,3.79-3.54-3.5-3.84ZM30.88,10.65l-2.64-2.9,2.86-2.67,2.64,2.9-2.86,2.67Z"/>
      <path class="cls-4" d="M36.81,10.11l-1.82,2.69,2.66,1.84,1.82-2.69-2.66-1.84ZM37.55,14.09l-2.01-1.39,1.38-2.03,2.01,1.39-1.38,2.03Z"/>
      <path class="cls-3" d="M21.2,5.3l-1.35,2.96,2.93,1.37,1.35-2.96-2.93-1.37ZM22.58,9.1l-2.21-1.03,1.02-2.24,2.21,1.03-1.02,2.24Z"/>
      <path class="cls-4" d="M33.4,13.16l-.86.55.55.87.86-.55-.55-.87ZM33.13,14.41l-.41-.66.65-.42.41.66-.65.42Z"/>
      <path class="cls-1" d="M26.89.08l-1.82,2.69,2.66,1.84,1.82-2.69L26.89.08ZM27.63,4.06l-2.01-1.39,1.38-2.03,2.01,1.39-1.38,2.03Z"/>
      <path class="cls-3" d="M39.34.33l-2.96,1.29,1.27,3,2.96-1.29-1.27-3ZM37.86,4.09l-.96-2.26,2.24-.97.96,2.26-2.24.97Z"/>
      <path class="cls-1" d="M23.43,35.17l-2.58,1.95,1.93,2.62,2.59-1.95-1.93-2.61ZM22.85,39.17l-1.45-1.98,1.95-1.47,1.45,1.98-1.95,1.47Z"/>
      <path class="cls-2" d="M34.15,35.36l-2.89,1.44,1.43,2.92,2.89-1.44-1.43-2.92ZM32.87,39.19l-1.08-2.21,2.18-1.09,1.08,2.21-2.18,1.09Z"/>
      <path class="cls-1" d="M30.6,24.25l-3.52,3.81,3.77,3.57,3.52-3.81-3.77-3.56ZM30.82,30.72l-2.85-2.69,2.66-2.88,2.85,2.69-2.66,2.88Z"/>
      <path class="cls-1" d="M38.83,30.26l-2.79,1.63,1.61,2.82,2.79-1.63-1.61-2.82ZM37.79,34.17l-1.22-2.13,2.11-1.23,1.22,2.13-2.11,1.23Z"/>
      <path class="cls-2" d="M22.18,25.12l-1.96,2.59,2.56,1.99,1.96-2.59-2.56-1.99ZM22.7,29.14l-1.93-1.5,1.48-1.95,1.93,1.5-1.48,1.95Z"/>
      <path class="cls-4" d="M32.82,33.22l-.57.85.84.58.57-.85-.84-.58ZM33.06,34.47l-.64-.44.43-.64.64.44-.43.64Z"/>
      <path class="cls-4" d="M26.63,20.2l-1.66,2.8,2.76,1.68,1.66-2.8-2.76-1.68ZM27.6,24.13l-2.09-1.27,1.25-2.11,2.09,1.27-1.25,2.11Z"/>
      <path class="cls-3" d="M39.11,20.31l-2.89,1.44,1.43,2.92,2.89-1.44-1.43-2.92ZM37.83,24.14l-1.08-2.21,2.18-1.09,1.08,2.21-2.18,1.09Z"/>
      <path class="cls-1" d="M23.26,55.21l-2.51,2.05,2.02,2.54,2.51-2.05-2.02-2.54ZM22.83,59.24l-1.53-1.92,1.9-1.54,1.53,1.92-1.9,1.55Z"/>
      <path class="cls-2" d="M32,55.24l-1.91,2.63,2.6,1.93,1.91-2.63-2.6-1.93ZM32.61,59.24l-1.96-1.46,1.44-1.99,1.96,1.46-1.44,1.99Z"/>
      <path class="cls-2" d="M28.77,44.62l-2.46,4.59,4.54,2.49,2.46-4.59-4.54-2.49ZM30.59,50.83l-3.43-1.88,1.86-3.47,3.43,1.88-1.86,3.46Z"/>
      <path class="cls-3" d="M38.4,50.23l-2.62,1.89,1.87,2.65,2.62-1.89-1.87-2.65ZM37.74,54.22l-1.41-2,1.98-1.43,1.41,2.01-1.98,1.43Z"/>
      <path class="cls-1" d="M24.32,45.43l-2.92,1.38,1.37,2.95,2.92-1.38-1.37-2.95ZM22.96,49.23l-1.03-2.23,2.21-1.04,1.03,2.23-2.21,1.04Z"/>
      <path class="cls-1" d="M33.13,53.26l-.74.71.7.75.74-.71-.7-.75ZM33.09,54.54l-.53-.57.56-.54.53.57-.56.54Z"/>
      <path class="cls-2" d="M28.44,40.19l-2.61,1.92,1.9,2.64,2.61-1.92-1.9-2.64ZM27.82,44.19l-1.43-1.99,1.97-1.45,1.43,1.99-1.97,1.45Z"/>
      <path class="cls-3" d="M36.78,40.22l-1.8,2.7,2.67,1.82,1.8-2.7-2.67-1.82ZM37.54,44.19l-2.02-1.38,1.36-2.04,2.02,1.38-1.36,2.04Z"/>
      <path class="cls-3" d="M24.47,75.58l-2.96,1.28,1.27,3,2.96-1.28-1.27-3ZM22.98,79.34l-.96-2.27,2.24-.97.96,2.26-2.24.97Z"/>
      <path class="cls-1" d="M31.29,75.48l-1.47,2.9,2.87,1.48,1.47-2.9-2.87-1.48ZM32.52,79.33l-2.17-1.12,1.11-2.19,2.17,1.12-1.11,2.19Z"/>
      <path class="cls-2" d="M31.9,64.46l-4.14,3.12,3.08,4.18,4.14-3.12-3.08-4.18ZM30.98,70.87l-2.33-3.16,3.12-2.36,2.33,3.16-3.12,2.36Z"/>
      <path class="cls-4" d="M38.27,70.28l-2.57,1.97,1.95,2.6,2.57-1.97-1.95-2.6ZM37.73,74.29l-1.47-1.96,1.94-1.49,1.47,1.96-1.94,1.49Z"/>
      <path class="cls-4" d="M23.69,65.31l-2.69,1.79,1.77,2.72,2.69-1.79-1.77-2.72ZM22.88,69.28l-1.34-2.06,2.03-1.35,1.34,2.06-2.03,1.35Z"/>
      <path class="cls-2" d="M33.29,73.34l-.81.62.61.82.81-.62-.61-.82ZM33.11,74.61l-.46-.62.61-.47.46.62-.61.47Z"/>
      <path class="cls-3" d="M29.23,60.46l-2.9,1.42,1.4,2.94,2.9-1.42-1.4-2.94ZM27.91,64.28l-1.06-2.22,2.19-1.07,1.06,2.22-2.19,1.07Z"/>
      <path class="cls-3" d="M37.3,60.22l-2.1,2.48,2.45,2.12,2.1-2.48-2.45-2.12ZM37.61,64.25l-1.85-1.6,1.58-1.87,1.85,1.6-1.58,1.87Z"/>
      <path class="cls-3" d="M22.1,95.37l-1.92,2.62,2.59,1.94,1.92-2.62-2.59-1.94ZM22.69,99.37l-1.96-1.47,1.45-1.98,1.96,1.47-1.45,1.98Z"/>
      <path class="cls-2" d="M31.4,95.51l-1.54,2.87,2.83,1.56,1.54-2.87-2.83-1.56ZM32.53,99.39l-2.14-1.17,1.16-2.17,2.14,1.18-1.16,2.16Z"/>
      <path class="cls-1" d="M33.26,84.86l-4.65,2.26,2.23,4.71,4.65-2.26-2.23-4.7ZM31.14,90.97l-1.69-3.55,3.51-1.71,1.69,3.55-3.51,1.71Z"/>
      <path class="cls-1" d="M39.27,90.6l-2.94,1.34,1.32,2.97,2.94-1.34-1.32-2.97ZM37.85,94.39l-1-2.25,2.22-1.01,1,2.25-2.22,1.01Z"/>
      <path class="cls-3" d="M23.48,85.34l-2.61,1.92,1.9,2.64,2.61-1.92-1.9-2.64ZM22.86,89.34l-1.43-1.99,1.97-1.45,1.43,1.99-1.97,1.45Z"/>
      <path class="cls-3" d="M32.66,93.46l-.48.91.9.48.48-.91-.9-.48ZM33.04,94.68l-.68-.36.36-.69.68.36-.36.69Z"/>
      <path class="cls-2" d="M29.24,80.53l-2.9,1.41,1.4,2.94,2.9-1.41-1.4-2.94ZM27.92,84.35l-1.06-2.22,2.19-1.07,1.06,2.22-2.19,1.07Z"/>
      <path class="cls-3" d="M38.05,80.29l-2.47,2.1,2.07,2.5,2.47-2.1-2.07-2.5ZM37.7,84.32l-1.56-1.89,1.87-1.58,1.56,1.89-1.86,1.58Z"/>
      <path class="cls-3" d="M23.75,115.49l-2.71,1.76,1.74,2.75,2.71-1.76-1.74-2.75ZM22.89,119.45l-1.31-2.07,2.05-1.33,1.31,2.07-2.05,1.33Z"/>
      <path class="cls-1" d="M31.37,115.59l-1.52,2.88,2.84,1.54,1.52-2.88-2.84-1.54ZM32.53,119.46l-2.15-1.16,1.15-2.17,2.15,1.16-1.15,2.17Z"/>
      <path class="cls-1" d="M30.05,104.56l-3.23,4.07,4.02,3.26,3.23-4.07-4.02-3.26ZM30.75,111l-3.04-2.47,2.44-3.08,3.04,2.47-2.44,3.08Z"/>
      <path class="cls-4" d="M38.46,110.45l-2.65,1.86,1.84,2.68,2.65-1.86-1.84-2.68ZM37.75,114.43l-1.39-2.02,2-1.4,1.39,2.02-2,1.4Z"/>
      <path class="cls-4" d="M21.3,105.6l-1.42,2.93,2.89,1.44,1.42-2.93-2.89-1.44ZM22.59,109.43l-2.18-1.09,1.07-2.21,2.19,1.09-1.07,2.21Z"/>
      <path class="cls-1" d="M32.69,113.52l-.49.9.89.5.49-.9-.89-.5ZM33.04,114.75l-.67-.38.37-.68.67.38-.37.68Z"/>
      <path class="cls-2" d="M26.72,100.45l-1.72,2.76,2.73,1.74,1.72-2.76-2.73-1.74ZM27.61,104.4l-2.06-1.31,1.3-2.08,2.06,1.31-1.3,2.08Z"/>
      <path class="cls-3" d="M36.81,100.42l-1.82,2.69,2.66,1.84,1.82-2.69-2.66-1.84ZM37.55,104.39l-2.01-1.39,1.37-2.03,2.01,1.39-1.37,2.03Z"/>
      <path class="cls-2" d="M3.07,15.05l-2.34,2.24,2.21,2.37,2.34-2.24-2.21-2.37ZM2.95,19.1l-1.67-1.79,1.77-1.69,1.67,1.79-1.77,1.69Z"/>
      <path class="cls-1" d="M12.84,15.05l-2.27,2.31,2.29,2.3,2.27-2.31-2.29-2.3ZM12.85,19.1l-1.73-1.74,1.72-1.75,1.73,1.74-1.72,1.75Z"/>
      <path class="cls-1" d="M9.48,4.34l-2.8,4.38,4.33,2.83,2.8-4.38-4.33-2.83ZM10.82,10.67l-3.27-2.14,2.11-3.31,3.27,2.14-2.11,3.31Z"/>
      <path class="cls-1" d="M16.45,10.24l-1.5,2.89,2.86,1.51,1.5-2.89-2.86-1.51ZM17.65,14.11l-2.16-1.14,1.13-2.18,2.16,1.14-1.13,2.18Z"/>
      <path class="cls-2" d="M1.61,5.21L.09,8.09l2.84,1.54,1.52-2.88-2.84-1.54ZM2.77,9.09l-2.15-1.16,1.15-2.17,2.15,1.16-1.15,2.17Z"/>
      <path class="cls-1" d="M13.77,13.22l-.93.42.41.94.93-.42-.41-.94ZM13.31,14.41l-.31-.71.7-.32.31.71-.7.32Z"/>
      <path class="cls-1" d="M7.54.01l-2.1,2.48,2.45,2.12,2.1-2.48L7.54.01ZM7.85,4.05l-1.85-1.6,1.58-1.87,1.85,1.6-1.58,1.87Z"/>
      <path class="cls-1" d="M18.7.09l-2.68,1.81,1.79,2.71,2.68-1.81L18.7.09ZM17.92,4.06l-1.36-2.05,2.02-1.37,1.36,2.05-2.02,1.37Z"/>
      <path class="cls-1" d="M2.36,35.15l-1.97,2.58,2.55,2,1.97-2.58-2.55-2ZM2.86,39.17l-1.92-1.51,1.49-1.95,1.92,1.51-1.49,1.95Z"/>
      <path class="cls-2" d="M13.81,35.22l-2.71,1.77,1.75,2.74,2.71-1.77-1.75-2.74ZM12.97,39.18l-1.32-2.07,2.04-1.34,1.32,2.07-2.04,1.34Z"/>
      <path class="cls-4" d="M12.56,24.41l-4.34,2.82,2.79,4.39,4.34-2.82-2.79-4.39ZM11.2,30.74l-2.11-3.32,3.28-2.13,2.11,3.32-3.28,2.13Z"/>
      <path class="cls-4" d="M19.37,30.38l-2.92,1.38,1.36,2.96,2.92-1.38-1.36-2.96ZM18,34.18l-1.03-2.23,2.21-1.04,1.03,2.23-2.21,1.04Z"/>
      <path class="cls-2" d="M3.18,25.09l-2.4,2.18,2.15,2.43,2.4-2.18-2.15-2.43ZM2.96,29.13l-1.63-1.83,1.81-1.64,1.63,1.83-1.81,1.64Z"/>
      <path class="cls-2" d="M13.24,33.19l-.72.73.72.73.72-.73-.72-.73ZM13.25,34.47l-.55-.55.54-.55.55.55-.54.55Z"/>
      <path class="cls-1" d="M9.59,20.4l-2.96,1.28,1.27,3,2.96-1.28-1.27-3ZM8.1,24.15l-.96-2.26,2.24-.97.96,2.26-2.24.97Z"/>
      <path class="cls-2" d="M19.46,20.38l-2.95,1.31,1.3,2.98,2.95-1.31-1.3-2.98ZM18.01,24.15l-.98-2.25,2.23-.99.98,2.25-2.23.99Z"/>
      <path class="cls-2" d="M1.77,55.34l-1.62,2.82,2.79,1.64,1.62-2.82-2.79-1.64ZM2.79,59.25l-2.1-1.24,1.22-2.13,2.1,1.24-1.22,2.13Z"/>
      <path class="cls-2" d="M13.29,55.21l-2.49,2.07,2.05,2.52,2.49-2.07-2.05-2.52ZM12.91,59.24l-1.55-1.9,1.88-1.57,1.55,1.9-1.88,1.57Z"/>
      <path class="cls-1" d="M11.24,44.31l-3.76,3.57,3.53,3.8,3.76-3.57-3.53-3.8ZM11.04,50.79l-2.67-2.87,2.84-2.7,2.67,2.87-2.84,2.7Z"/>
      <path class="cls-1" d="M16.26,50.44l-1.37,2.95,2.92,1.38,1.37-2.95-2.92-1.38ZM17.62,54.25l-2.2-1.05,1.03-2.23,2.2,1.05-1.03,2.23Z"/>
      <path class="cls-1" d="M2.64,45.16l-2.13,2.45,2.42,2.15,2.13-2.45-2.42-2.15ZM2.9,49.2l-1.83-1.63,1.61-1.85,1.83,1.63-1.61,1.85Z"/>
      <path class="cls-2" d="M13.43,53.27l-.81.63.62.82.81-.63-.62-.82ZM13.27,54.54l-.47-.62.61-.48.47.62-.61.48Z"/>
      <path class="cls-2" d="M7.01,40.22l-1.8,2.71,2.68,1.82,1.8-2.71-2.68-1.82ZM7.79,44.19l-2.02-1.37,1.36-2.05,2.02,1.37-1.36,2.05Z"/>
      <path class="cls-4" d="M17.81,40.13l-2.28,2.3,2.28,2.31,2.28-2.31-2.28-2.31ZM17.81,44.18l-1.72-1.74,1.72-1.74,1.72,1.74-1.72,1.74Z"/>
      <path class="cls-2" d="M1.46,75.5l-1.42,2.93,2.89,1.44,1.42-2.93-2.89-1.44ZM2.75,79.33l-2.18-1.09,1.07-2.21,2.18,1.09-1.07,2.21Z"/>
      <path class="cls-3" d="M13.05,75.26l-2.37,2.2,2.18,2.4,2.37-2.21-2.18-2.4ZM12.88,79.3l-1.65-1.81,1.79-1.67,1.65,1.81-1.79,1.67Z"/>
      <path class="cls-2" d="M13.08,64.68l-4.53,2.49,2.46,4.59,4.53-2.49-2.46-4.59ZM11.26,70.89l-1.86-3.46,3.42-1.88,1.86,3.46-3.42,1.88Z"/>
      <path class="cls-1" d="M16.92,70.33l-1.79,2.71,2.68,1.81,1.79-2.71-2.68-1.81ZM17.7,74.29l-2.02-1.37,1.35-2.05,2.03,1.37-1.35,2.05Z"/>
      <path class="cls-3" d="M4.06,65.36l-2.77,1.67,1.65,2.8,2.77-1.67-1.65-2.8ZM3.07,69.28l-1.24-2.12,2.09-1.26,1.24,2.12-2.09,1.26Z"/>
      <path class="cls-1" d="M13.15,73.33l-.67.78.77.68.67-.78-.77-.68ZM13.24,74.61l-.58-.51.51-.59.58.51-.51.59Z"/>
      <path class="cls-1" d="M7.17,60.26l-1.89,2.64,2.61,1.91,1.89-2.64-2.61-1.91ZM7.8,64.26l-1.97-1.44,1.43-2,1.97,1.44-1.43,2Z"/>
      <path class="cls-2" d="M17.16,60.25l-1.93,2.61,2.58,1.95,1.93-2.61-2.58-1.95ZM17.73,64.26l-1.95-1.47,1.46-1.97,1.95,1.47-1.46,1.97Z"/>
      <path class="cls-1" d="M1.6,95.52l-1.51,2.88,2.85,1.53,1.51-2.88-2.85-1.53ZM2.77,99.39l-2.15-1.16,1.14-2.18,2.15,1.16-1.14,2.18Z"/>
      <path class="cls-2" d="M11.71,95.47l-1.63,2.81,2.78,1.65,1.63-2.81-2.78-1.65ZM12.71,99.39l-2.1-1.25,1.23-2.12,2.1,1.25-1.23,2.12Z"/>
      <path class="cls-1" d="M10.79,84.45l-3.54,3.8,3.76,3.58,3.54-3.8-3.76-3.58ZM10.98,90.92l-2.84-2.7,2.67-2.87,2.84,2.7-2.67,2.87Z"/>
      <path class="cls-2" d="M19.05,90.48l-2.81,1.59,1.58,2.84,2.81-1.6-1.58-2.84ZM17.96,94.37l-1.19-2.15,2.12-1.21,1.19,2.15-2.12,1.2Z"/>
      <path class="cls-4" d="M1.33,85.58l-1.33,2.97,2.93,1.35,1.33-2.97-2.93-1.35ZM2.74,89.37l-2.22-1.02,1.01-2.24,2.22,1.02-1.01,2.24Z"/>
      <path class="cls-2" d="M13.04,93.41l-.61.83.82.62.61-.83-.82-.62ZM13.22,94.68l-.62-.46.46-.62.62.46-.46.62Z"/>
      <path class="cls-1" d="M6.77,80.41l-1.64,2.8,2.77,1.66,1.64-2.8-2.77-1.66ZM7.76,84.33l-2.09-1.26,1.24-2.12,2.09,1.26-1.24,2.12Z"/>
      <path class="cls-4" d="M16.78,80.39l-1.71,2.77,2.73,1.73,1.71-2.77-2.73-1.73ZM17.69,84.33l-2.07-1.3,1.29-2.09,2.07,1.3-1.29,2.09Z"/>
      <path class="cls-4" d="M2.54,115.41l-2.07,2.5,2.47,2.1,2.07-2.5-2.47-2.1ZM2.89,119.44l-1.86-1.58,1.57-1.88,1.86,1.58-1.57,1.89Z"/>
      <path class="cls-4" d="M11.54,115.58l-1.53,2.87,2.84,1.54,1.53-2.87-2.84-1.54ZM12.69,119.46l-2.14-1.17,1.15-2.17,2.14,1.17-1.15,2.17Z"/>
      <path class="cls-1" d="M8.86,104.84l-2.41,4.61,4.56,2.44,2.41-4.61-4.56-2.44ZM10.75,111.03l-3.44-1.84,1.82-3.48,3.44,1.84-1.82,3.48Z"/>
      <path class="cls-1" d="M19.29,110.62l-2.89,1.43,1.42,2.93,2.89-1.43-1.42-2.93ZM17.99,114.45l-1.07-2.21,2.19-1.08,1.07,2.21-2.19,1.08Z"/>
      <path class="cls-2" d="M3.4,105.38l-2.5,2.06,2.04,2.53,2.5-2.06-2.04-2.53ZM2.99,109.4l-1.54-1.91,1.89-1.56,1.54,1.91-1.89,1.56Z"/>
      <path class="cls-2" d="M13.57,113.5l-.86.55.54.87.86-.55-.54-.87ZM13.29,114.75l-.41-.66.65-.42.41.66-.65.42Z"/>
      <path class="cls-3" d="M6.86,100.46l-1.71,2.77,2.73,1.73,1.71-2.77-2.73-1.73ZM7.77,104.4l-2.07-1.3,1.29-2.09,2.07,1.3-1.29,2.09Z"/>
      <path class="cls-1" d="M18.83,100.45l-2.73,1.73,1.71,2.76,2.73-1.73-1.71-2.76ZM17.94,104.4l-1.29-2.09,2.06-1.31,1.29,2.09-2.06,1.31Z"/>
    </g>
  </g>
</svg>