<?xml version="1.0" encoding="UTF-8"?>
<svg id="Layer_2" data-name="Layer 2" xmlns="http://www.w3.org/2000/svg" viewBox="0 0 438.01 341.4">
  <defs>
    <style>
      .cls-1 {
        fill: #b5c2f6;
      }

      .cls-2 {
        fill: #fff;
      }

      .cls-3 {
        fill: #ffdb76;
      }

      .cls-4 {
        fill: #dd6936;
      }

      .cls-5 {
        fill: #a51e1e;
      }

      .cls-6 {
        fill: #637ed3;
      }

      .cls-7 {
        fill: #fbb136;
      }

      .cls-8 {
        fill: #c44c22;
      }

      .cls-9 {
        fill: #5e4ddb;
      }

      .cls-10 {
        fill: #6177ff;
      }

      .cls-11 {
        fill: #ff8983;
      }

      .cls-12 {
        fill: #ef7369;
      }

      .cls-13 {
        fill: #407ffe;
      }

      .cls-14 {
        fill: #328f60;
      }

      .cls-15 {
        fill: #ce3f38;
      }

      .cls-16 {
        fill: #7a9bfc;
      }

      .cls-17 {
        fill: #3660c9;
      }

      .cls-18 {
        fill: #110647;
      }

      .cls-19 {
        fill: #e1ecff;
      }

      .cls-20 {
        fill: #3e2b7c;
      }

      .cls-21 {
        fill: #212155;
      }

      .cls-22 {
        fill: #607bff;
      }

      .cls-23 {
        fill: #fa9664;
      }

      .cls-24 {
        fill: #f0746a;
      }

      .cls-25 {
        fill: #ebf3ff;
      }
    </style>
  </defs>
  <g id="Layer_1-2" data-name="Layer 1">
    <g>
      <path class="cls-1" d="M292.38,87.72c-8.78-1.94-17.31-4.62-25.1-8.65-1.64-.85-3.21-1.77-4.74-2.77-13.97-9.17-23.51-24.34-34.7-36.42C179.91-11.87,95.86,4.49,51.86,52.77c-18.79,20.61-31.37,46.86-35.48,74.45-8.31,55.88,16.24,115.42,74.41,130.4,35.06,9.03,68.85-.95,103.66-4.86,9.41-1.06,18.84-1.02,28.22-.2,4.21.36,8.41.89,12.59,1.55,7.01,1.1,13.97,2.56,20.86,4.27,5.85,1.44,11.64,3.06,17.36,4.76,1.04.31,2.08.63,3.12.95,15.66,4.89,32.11,11.52,48.71,16.42.53.16,1.07.32,1.61.47,12.35,3.56,24.77,6.1,37,6.17,56.85.33,84.38-64.87,70.58-113.5-13.71-48.32-60.84-68.88-106.19-79.1-2.55-.57-5.09-1.12-7.62-1.63-2.49-.5-4.96-.97-7.42-1.42-1.56-.29-3.11-.56-4.66-.82-1.7-.3-3.39-.58-5.07-.85-.67-.11-1.34-.22-2.01-.33-3.07-.52-6.13-1.11-9.15-1.78Z"/>
      <path class="cls-6" d="M96.36,298.71c-9.24,0-18.03-1.1-26.23-3.29-11.43-3.05-22.04-8.31-31.55-15.62-11.54-8.88-21.29-20.96-28.2-34.94C3.43,230.8-.16,215.77,0,201.41c.12-10.88,2.39-21.01,6.72-30.1,4.68-9.82,11.7-18.2,20.87-24.92,8.76-6.43,19.38-11.87,33.42-17.12.52-.2,1.05-.4,1.57-.58,8.94-3.28,18.22-6.13,27.21-8.89,7.57-2.33,14.72-4.52,21.69-6.96,1.02-.36,2.05-.73,3.07-1.1,6.29-2.29,11.77-4.43,16.77-6.52,6.98-2.91,13.29-5.86,19.29-9,3.9-2.04,7.61-4.14,11.02-6.26,8.56-5.26,15.93-10.81,22.52-16.97,6.27-5.85,12.37-12.04,18.27-18.04,18.07-18.37,36.76-37.36,62.11-47.68,26.16-10.65,53.73-9.61,79.71,3,23.71,11.51,44.28,31.89,57.92,57.4,13.06,24.45,18.71,53.21,15.9,81-1.83,18.19-7.75,36.64-17.11,53.36-9.39,16.77-22.02,31.37-36.51,42.22-11.6,8.69-24.14,14.84-37.26,18.29-14.03,3.69-28.46,4.19-42.89,1.49-5.01-.94-10.16-2.23-15.15-3.48-11.25-2.82-22.88-5.75-34.39-5.08-1.85.11-3.63.31-5.44.6-7.82,1.27-16.09,3.89-25.28,8.01h0c-2.71,1.21-5.54,2.57-8.4,4.02l-1.81.93c-1.77.92-3.23,1.66-4.58,2.34-1.55.79-2.94,1.49-4.23,2.12-2.44,1.2-4.66,2.27-6.81,3.28-2.11.99-4.43,2.05-7.09,3.23-25.21,11.16-47.21,17.2-67.26,18.45-2.53.16-5.03.23-7.5.23ZM300.96.25c-12.22,0-24.42,2.42-36.33,7.27-25.3,10.3-43.97,29.27-62.02,47.62-5.9,5.99-12,12.19-18.27,18.04-6.61,6.16-13.99,11.73-22.56,17-3.42,2.12-7.14,4.22-11.04,6.26-6,3.15-12.32,6.09-19.3,9.01-5,2.1-10.49,4.23-16.78,6.53-1.02.37-2.05.74-3.07,1.1-6.98,2.44-14.13,4.63-21.7,6.96-8.98,2.76-18.26,5.61-27.19,8.89-.52.19-1.05.38-1.57.58-14.01,5.24-24.61,10.67-33.36,17.08-9.13,6.7-16.12,15.05-20.79,24.82-4.32,9.05-6.58,19.15-6.7,29.99-.16,14.32,3.41,29.3,10.35,43.33,6.89,13.95,16.62,26,28.13,34.85,9.48,7.29,20.07,12.54,31.46,15.58,10.36,2.77,21.68,3.79,33.65,3.05,20.02-1.25,42-7.27,67.17-18.43,2.66-1.18,4.98-2.24,7.09-3.23,2.14-1.01,4.36-2.08,6.8-3.28,1.29-.63,2.68-1.33,4.23-2.12,1.35-.68,2.8-1.42,4.58-2.34l1.81-.93c2.87-1.46,5.7-2.81,8.41-4.03h0c9.21-4.12,17.5-6.75,25.34-8.02,1.82-.3,3.61-.49,5.47-.6,11.55-.67,23.2,2.26,34.47,5.08,4.98,1.25,10.14,2.54,15.14,3.48,14.38,2.69,28.78,2.2,42.77-1.48,13.09-3.44,25.6-9.58,37.17-18.25,14.46-10.83,27.06-25.4,36.44-42.14,9.35-16.69,15.25-35.11,17.08-53.26,2.8-27.74-2.84-56.45-15.88-80.86-13.61-25.46-34.14-45.81-57.81-57.29-14.08-6.84-28.63-10.27-43.17-10.27ZM203.99,263.99h0,0Z"/>
      <path class="cls-7" d="M117.56,285.46c-.55,0-1-.45-1-1v-13.6c0-.55.45-1,1-1s1,.45,1,1v13.61c0,.55-.45,1-1,1Z"/>
      <path class="cls-7" d="M124.36,278.66h-13.6c-.55,0-1-.45-1-1s.45-1,1-1h13.6c.55,0,1,.45,1,1s-.45,1-1,1Z"/>
      <path class="cls-7" d="M285.84,54.93c-.55,0-1-.45-1-1v-13.6c0-.55.45-1,1-1s1,.45,1,1v13.6c0,.55-.45,1-1,1Z"/>
      <path class="cls-7" d="M292.65,48.13h-13.6c-.55,0-1-.45-1-1s.45-1,1-1h13.6c.55,0,1,.45,1,1s-.45,1-1,1Z"/>
      <path class="cls-7" d="M87.38,12.06c-.26,0-.51-.1-.71-.29-.39-.39-.39-1.02,0-1.41L96.29.74c.39-.39,1.02-.39,1.41,0,.39.39.39,1.02,0,1.41l-9.62,9.62c-.2.2-.45.29-.71.29Z"/>
      <path class="cls-7" d="M96.99,12.06c-.26,0-.51-.1-.71-.29l-9.62-9.62c-.39-.39-.39-1.02,0-1.41.39-.39,1.02-.39,1.41,0l9.62,9.62c.39.39.39,1.02,0,1.41-.2.2-.45.29-.71.29Z"/>
      <path class="cls-13" d="M29.93,239.24c-.55,0-1-.45-1-1v-13.6c0-.55.45-1,1-1s1,.45,1,1v13.6c0,.55-.45,1-1,1Z"/>
      <path class="cls-13" d="M36.73,232.43h-13.6c-.55,0-1-.45-1-1s.45-1,1-1h13.6c.55,0,1,.45,1,1s-.45,1-1,1Z"/>
      <path class="cls-13" d="M259.04,281.42c-.26,0-.51-.1-.71-.29l-9.62-9.62c-.39-.39-.39-1.02,0-1.41s1.02-.39,1.41,0l9.62,9.62c.39.39.39,1.02,0,1.41-.2.2-.45.29-.71.29Z"/>
      <path class="cls-13" d="M249.42,281.42c-.26,0-.51-.1-.71-.29-.39-.39-.39-1.02,0-1.41l9.62-9.62c.39-.39,1.02-.39,1.41,0s.39,1.02,0,1.41l-9.62,9.62c-.19.2-.45.29-.71.29Z"/>
      <path class="cls-13" d="M410.44,108.17c-.55,0-1-.45-1-1v-13.6c0-.55.45-1,1-1s1,.45,1,1v13.6c0,.55-.45,1-1,1Z"/>
      <path class="cls-13" d="M417.24,101.37h-13.6c-.55,0-1-.45-1-1s.45-1,1-1h13.6c.55,0,1,.45,1,1s-.45,1-1,1Z"/>
      <path class="cls-1" d="M15.48,205.19c0-2.58-2.09-4.67-4.67-4.67s-4.67,2.09-4.67,4.67,2.09,4.67,4.67,4.67c2.58,0,4.67-2.09,4.67-4.67Z"/>
      <path class="cls-1" d="M227.95,15.6c0-2.58-2.09-4.67-4.66-4.67s-4.66,2.09-4.66,4.67,2.09,4.67,4.66,4.67,4.66-2.09,4.66-4.67Z"/>
      <path class="cls-1" d="M431.74,123.73c0-2.58-2.09-4.66-4.67-4.66s-4.67,2.09-4.67,4.66,2.09,4.66,4.67,4.66,4.67-2.09,4.67-4.66Z"/>
      <circle class="cls-1" cx="82.69" cy="294.6" r="9.49"/>
      <circle class="cls-1" cx="309.41" cy="22.08" r="9.49"/>
      <path class="cls-22" d="M252.05,210.31H55.66c-8.18,0-14.81-6.63-14.81-14.8V49c0-8.18,6.63-14.81,14.81-14.81h196.39c8.18,0,14.8,6.63,14.8,14.81v146.5c0,8.18-6.63,14.8-14.8,14.8Z"/>
      <path class="cls-25" d="M55.33,202.98c-4.12,0-7.47-3.35-7.47-7.48v-119.43c0-4.12,3.35-7.48,7.47-7.48h196.39c4.12,0,7.48,3.35,7.48,7.48v119.43c0,4.12-3.35,7.48-7.48,7.48H55.33Z"/>
      <rect class="cls-19" x="54.48" y="76.64" width="22.08" height="21.5"/>
      <rect class="cls-19" x="83.92" y="76.64" width="22.08" height="21.5"/>
      <rect class="cls-7" x="113.37" y="76.64" width="22.08" height="21.5"/>
      <rect class="cls-19" x="142.81" y="76.64" width="22.08" height="21.5"/>
      <rect class="cls-19" x="172.26" y="76.64" width="22.08" height="21.5"/>
      <rect class="cls-19" x="201.7" y="76.64" width="22.08" height="21.5"/>
      <rect class="cls-10" x="231.15" y="76.64" width="22.08" height="21.5"/>
      <rect class="cls-24" x="54.48" y="108.55" width="22.08" height="21.5"/>
      <rect class="cls-19" x="83.92" y="108.55" width="22.08" height="21.5"/>
      <rect class="cls-19" x="113.37" y="108.55" width="22.08" height="21.5"/>
      <rect class="cls-19" x="142.81" y="108.55" width="22.08" height="21.5"/>
      <rect class="cls-19" x="172.26" y="108.55" width="22.08" height="21.5"/>
      <rect class="cls-19" x="201.7" y="108.55" width="22.08" height="21.5"/>
      <rect class="cls-24" x="231.15" y="108.55" width="22.08" height="21.5"/>
      <rect class="cls-19" x="54.48" y="140.46" width="22.08" height="21.5"/>
      <rect class="cls-24" x="83.92" y="140.46" width="22.08" height="21.5"/>
      <rect class="cls-19" x="113.37" y="140.46" width="22.08" height="21.5"/>
      <rect class="cls-10" x="142.81" y="140.46" width="22.08" height="21.5"/>
      <rect class="cls-19" x="172.26" y="140.46" width="22.08" height="21.5"/>
      <rect class="cls-10" x="201.7" y="140.46" width="22.08" height="21.5"/>
      <rect class="cls-19" x="231.15" y="140.46" width="22.08" height="21.5"/>
      <rect class="cls-24" x="54.48" y="172.37" width="22.08" height="21.5"/>
      <rect class="cls-10" x="83.92" y="172.37" width="22.08" height="21.5"/>
      <rect class="cls-19" x="113.37" y="172.37" width="22.08" height="21.5"/>
      <rect class="cls-19" x="142.81" y="172.37" width="22.08" height="21.5"/>
      <rect class="cls-19" x="172.26" y="172.37" width="22.08" height="21.5"/>
      <rect class="cls-24" x="201.7" y="172.37" width="22.08" height="21.5"/>
      <rect class="cls-10" x="231.15" y="172.37" width="22.08" height="21.5"/>
      <circle class="cls-7" cx="153.87" cy="212.18" r="39.03" transform="translate(-45.33 41.83) rotate(-13.52)"/>
      <circle class="cls-3" cx="153.84" cy="212.19" r="32.71" transform="translate(-32.31 27.69) rotate(-9.31)"/>
      <path class="cls-2" d="M153.86,213.69c-.46,0-.9-.21-1.19-.59l-13.87-18.21c-.5-.66-.37-1.6.29-2.1.66-.5,1.6-.37,2.1.28l11.17,14.67v-24.51c0-.83.67-1.5,1.5-1.5s1.5.67,1.5,1.5v28.95c0,.64-.41,1.22-1.02,1.42-.16.05-.32.08-.48.08Z"/>
      <rect class="cls-7" x="144.68" y="170.2" width="18.63" height="5.44"/>
      <path class="cls-3" d="M164.81,170.2h-21.62c-1.5,0-2.72-1.22-2.72-2.72h0c0-1.5,1.22-2.72,2.72-2.72h21.62c1.5,0,2.72,1.22,2.72,2.72h0c0,1.5-1.22,2.72-2.72,2.72Z"/>
      <path class="cls-3" d="M112.54,221.02h0c-1.26,0-2.28-1.02-2.28-2.28v-13.1c0-1.26,1.02-2.28,2.28-2.28h0c1.26,0,2.28,1.02,2.28,2.28v13.1c0,1.26-1.02,2.28-2.28,2.28Z"/>
      <path class="cls-13" d="M125.59,165.46H11.47c-4.97,0-9.01-4.03-9.01-9.01v-36.57c0-4.97,4.03-9.01,9.01-9.01h114.11c4.97,0,9.01,4.03,9.01,9.01v36.57c0,4.97-4.03,9-9,9Z"/>
      <path class="cls-2" d="M120,134.42H17.07c-.87,0-1.58-.71-1.58-1.58h0c0-.87.71-1.58,1.58-1.58h102.93c.87,0,1.58.71,1.58,1.58h0c0,.87-.71,1.58-1.58,1.58Z"/>
      <path class="cls-2" d="M120,143.32H17.07c-.87,0-1.58-.71-1.58-1.58h0c0-.87.71-1.58,1.58-1.58h102.93c.87,0,1.58.71,1.58,1.58h0c0,.87-.71,1.58-1.58,1.58Z"/>
      <polygon class="cls-13" points="102.6 110.88 124.36 83.98 121.88 110.88 102.6 110.88"/>
      <circle class="cls-14" cx="248.42" cy="205.2" r="27.93"/>
      <path class="cls-2" d="M238.53,216.72c-.11,0-.22-.01-.33-.04-.38-.1-.69-.36-.85-.7l-6.38-13.45c-.31-.65-.03-1.43.62-1.74.65-.31,1.43-.03,1.74.62l5.71,12.04,24.9-17.76c.59-.42,1.4-.28,1.82.3.42.59.28,1.4-.3,1.82l-26.17,18.67c-.22.16-.49.24-.76.24Z"/>
      <path class="cls-2" d="M413.61,201.55c-.99,2.54-2.06,5.05-3.17,7.5h-.01c-5.2-17.91-16.21-24.88-22.5-27.47-2.8-1.16-4.66-1.44-4.66-1.44.74-1.75,1.57-3.37,2.44-4.87,0,0,18.6.51,27.9,26.28Z"/>
      <path class="cls-15" d="M375.13,175.27l15.47-6.81c-1.7,1.94-3.38,4.19-4.89,6.81-.87,1.5-1.7,3.12-2.44,4.87-.97,2.27-1.82,4.74-2.49,7.45l-5.65-12.32Z"/>
      <path class="cls-4" d="M388.28,203.93l-7.5-16.34c.67-2.71,1.52-5.18,2.49-7.45,0,0,1.86.28,4.66,1.44,0,0-1,9.25.35,22.35Z"/>
      <path class="cls-15" d="M385.49,286.91l-1.77-6.4c.53.16,1.07.32,1.61.47.06,1.99.12,3.97.16,5.93Z"/>
      <path class="cls-15" d="M385.33,280.98c-.54-.15-1.08-.31-1.61-.47l-2.6-9.44c1.27-.19,2.54-.47,3.8-.84.16,3.52.29,7.14.41,10.75Z"/>
      <path class="cls-15" d="M383.27,247.56c.72,5.86,1.26,13.97,1.65,22.67-1.26.37-2.53.65-3.8.84l-6.39-23.14h0c2.26.85,5.09,1.01,8.54-.37Z"/>
      <path class="cls-21" d="M378.87,104.37h-.01l-1.44-2.04-6.14-8.65-3.67,2.97-5.04,4.08-7.75,6.27c1.47-.89,3.25-1.14,4.91-.69l4.73,1.27c.54.14,1.03.38,1.48.68v-6.59c0-.66.27-1.26.7-1.69.27-.27.6-.47.97-.59.22-.07.46-.11.71-.11,1.24,0,2.28.95,2.39,2.18l1.14,13.05.33,3.68,1.2-1.08,8.83-8.03-3.34-4.71Z"/>
      <path class="cls-4" d="M362.17,94.65c.42,1.75.61,3.77.4,6.08l-7.75,6.27-1.09.66c-1.18.71-1.71,2.15-1.27,3.46l-.02.58c-1.84-.1-3.66.49-5.1,1.65.02-.77.08-1.53.19-2.28,2.14-15.03,14.64-16.42,14.64-16.42Z"/>
      <path class="cls-23" d="M343.97,116.09l3.32-2.71s.03-.03.05-.03c.02-.77.08-1.53.19-2.28,2.14-15.03,14.64-16.42,14.64-16.42-.5-2.11-1.35-3.82-2.23-5.15-.17-.25-.34-.49-.51-.72-1.21-1.61-2.87-2.81-4.69-3.68-7.98-3.84-7.16-11.1-7.16-11.1,1.05-4.51-.6-6.71-1.89-7.7-.6-.46-1.34-.7-2.09-.8-1.53-.22-2.79-.66-3.83-1.21-1.24-.65-2.21-1.59-2.87-2.68h-.01c-5.77,4.3-9.85,5.31-12.72,4.77l-.05.26s-1.31,3.77-3.08,9.38c-.04.09-.06.18-.09.28-2.67,8.42-6.35,20.81-8.29,30.86-.51,2.61-.9,5.07-1.12,7.25-.44,4.23,1.35,8.32,4.58,10.83.92.72,1.95,1.31,3.09,1.73.37.14.76.27,1.16.38,2.33.7,5.24,1.08,8.86.87.45-.02.9-.07,1.35-.15,1.02-.15,2.03-.42,3.01-.77,3.23-1.16,9.43-3.44,11.32-4.54l.06.04c.72-.91,1.65-1.48,2.67-1.82h0c-.04-.28-.07-.67-.1-1.14l-.78.42c-.38.2-.79.3-1.2.3-.74,0-1.47-.33-1.96-.94-.87-1.08-.71-2.66.37-3.53ZM325.23,85.59c-.91,0-1.65-.74-1.65-1.65s.74-1.64,1.65-1.64,1.65.74,1.65,1.64-.74,1.65-1.65,1.65ZM344.91,90.84c.91,0,1.65.74,1.65,1.65s-.74,1.64-1.65,1.64-1.64-.74-1.64-1.64c0-.91.74-1.65,1.64-1.65Z"/>
      <path class="cls-4" d="M353.07,118.91l2.57,2.49s-4.49-1.6-8-.42h0c-.04-.28-.07-.67-.1-1.14l2.47-1.34c1-.55,2.24-.38,3.06.41Z"/>
      <path class="cls-4" d="M346.59,132.36l3.01-5.4s-1.06,3.75-3.4,8.86c-1.47,3.22-1.76,6.85-.89,10.28l-14.73-18.03c1.02-.15,2.03-.42,3.01-.77,3.23-1.16,9.43-3.44,11.32-4.54l.06.04c-.3.37-.56.8-.77,1.3l-2.44,5.93c-.52,1.25-.03,2.68,1.14,3.35.42.24.89.36,1.34.36.94,0,1.86-.5,2.35-1.38Z"/>
      <path class="cls-2" d="M346.22,149.71l1.43,5.61h-.01c-9.36,8.5-21.55,3.91-21.55,3.91-8.18-2.95-11.38-9.08-12.28-15.34,1.85.42,3.7.58,5.61.64.68,2.21,1.8,4.35,3.54,6.24,3.39,3.69,8.4,5.58,13.37,5.01,3.29-.38,7.1-1.86,9.89-6.07Z"/>
      <path class="cls-23" d="M410.43,209.05c-5.2-17.91-16.21-24.88-22.5-27.47,0,0-1,9.25.35,22.35l-7.5-16.34-5.65-12.32-8.4-18.31c-.81-1.75-1.38-3.6-1.65-5.51-.6-4.32-.52-11.67,4.76-18.59l1.3-1.86c1.24-1.76,1.81-3.9,1.63-6.04l-.59-6.77-.33-3.68-1.14-13.05c-.11-1.23-1.15-2.18-2.39-2.18-.25,0-.49.04-.71.11-.37.12-.7.32-.97.59-.43.43-.7,1.03-.7,1.69v6.59c-.45-.3-.94-.54-1.48-.68l-4.73-1.27c-1.66-.45-3.44-.2-4.91.69l-1.09.66c-1.18.71-1.71,2.15-1.27,3.46l-.02.58c-1.84-.1-3.66.49-5.1,1.65-.02,0-.03.02-.05.03l-3.32,2.71c-1.08.87-1.24,2.45-.37,3.53.49.61,1.22.94,1.96.94.41,0,.82-.1,1.2-.3l.78-.42,2.47-1.34c1-.55,2.24-.38,3.06.41l2.57,2.49s-4.49-1.6-8-.42c-1.02.34-1.95.91-2.67,1.82-.3.37-.56.8-.77,1.3l-2.44,5.93c-.52,1.25-.03,2.68,1.14,3.35.42.24.89.36,1.34.36.94,0,1.86-.5,2.35-1.38l3.01-5.4s-1.06,3.75-3.4,8.86c-1.47,3.22-1.76,6.85-.89,10.28l.91,3.61,1.43,5.61,1.42,5.61c.24.97.45,1.94.63,2.92,1.75,9.67,11.94,65.08,18.02,77.4,0,0,2.22,4.88,7.01,6.67,2.26.86,5.09,1.02,8.54-.36,2.83-1.12,6.06-3.28,9.73-6.95,0,0,9.67-14.34,17.44-31.56h-.01Z"/>
      <path class="cls-23" d="M319.42,144.53c-2.52-8.17.95-17.18.95-17.18,2.33.7,5.24,1.08,8.86.87.45-.02.9-.07,1.35-.15l14.73,18.03.91,3.61c-2.79,4.21-6.6,5.69-9.89,6.07-4.97.57-9.98-1.32-13.37-5.01-1.74-1.89-2.86-4.03-3.54-6.24Z"/>
      <path d="M344.91,90.84c.91,0,1.65.74,1.65,1.65s-.74,1.64-1.65,1.64-1.64-.74-1.64-1.64c0-.91.74-1.65,1.64-1.65Z"/>
      <path d="M325.23,82.3c.91,0,1.65.74,1.65,1.64s-.74,1.65-1.65,1.65-1.65-.74-1.65-1.65.74-1.64,1.65-1.64Z"/>
      <path class="cls-2" d="M319.21,126.97c.37.14.76.27,1.16.38,0,0-3.47,9.01-.95,17.18-1.91-.06-3.76-.22-5.61-.64-1.32-9.19,2.31-18.65,2.31-18.65.92.72,1.95,1.31,3.09,1.73Z"/>
      <path class="cls-15" d="M289.46,134.38l-2.03,12.6c-1.82-1.12-3.56-2.33-5.2-3.68l7.23-8.92Z"/>
      <path class="cls-12" d="M282.23,143.3l7.23-8.92-2.03,12.6c10.79,6.64,24.18,9.91,34.13,17.88,16.65,13.33,17.22,30.01,15.82,49.95-1.03,14.71.67,31.34,11.04,42.78,8.58,9.48,20.55,15.35,32.7,13.48l-6.39-23.14h0c-4.79-1.8-7.01-6.68-7.01-6.68-6.08-12.32-16.27-67.73-18.02-77.4-.18-.98-.39-1.95-.63-2.92l-1.42-5.61h-.01c-9.36,8.5-21.55,3.91-21.55,3.91-8.18-2.95-11.38-9.08-12.28-15.34-1.7-.39-3.41-1-5.16-1.99-3.91-2.2-6.73-5.48-8.22-9.69-2.56-7.24.86-17.36-2.58-23.69-6.71.92-14.12,2.18-20.49,3.34-.69.13-1.38.24-2.07.34-1.17,1.75-2.27,3.56-2.82,5.84-1.73,7.21-.71,12.95,3.66,18.9,1.79,2.44,3.85,4.53,6.1,6.36ZM406.36,175.07c-4.62-3.24-9.69-5.41-14.53-7.93-4.38-2.28-8.58-4.85-12.09-8.77-5.56-6.19-1.67-16.59.61-23.47.42-1.27,2.09-5.8,3.01-10.18-3.18-2.65-6.52-5.22-9.98-7.61l-1.2,1.08.59,6.77c.18,2.14-.39,4.28-1.63,6.04l-1.3,1.86c-5.28,6.92-5.36,14.27-4.76,18.59.27,1.91.84,3.76,1.65,5.51l8.4,18.31,15.47-6.81c-1.7,1.94-3.38,4.19-4.89,6.81,0,0,18.6.51,27.9,26.28,1.1-2.81,2.12-5.65,2.99-8.47-1.37-7.25-4.5-13.99-10.24-18.01ZM402.82,159c.24.17.49.33.74.48,4.21,2.52,8.45,2.47,12.58,1.19-.3-.5-.62-.98-.95-1.46-3.47-4.99-10.47-14-19.79-23.4-.39,4.35-.86,8.48-.33,11,1.03,4.9,3.52,9.36,7.75,12.19ZM370.81,307.18c-3.36,1.93-6.7,3.02-10.12,3.26-3.31.23-6.68-.33-10.18-1.7-14.07-5.52-15.39-18.39-14.94-31.62.11-3.28.23-8.36-.56-13.03-.73-4.25-2.2-8.15-5.12-10.03-5.37-3.46-10.93-.38-15.36,4.32-3.9,4.14-6.93,9.53-8.18,12.81-4.13,10.83-4.79,24.73-1.5,36.14,1.45.51,2.97,1,4.56,1.47,9.36,2.78,21.07,4.79,35.5,4.95,5,.06,10.33-.11,16-.55,4.22-.32,8.64-.8,13.25-1.44,3.8-.53,7.04-2.63,9.11-5.59h0c1.43-2.05,2.3-4.49,2.43-7.1-.92.16-1.82.4-2.69.73-4.43,1.67-8.14,5.05-12.2,7.38ZM308.55,187.79c-4.96-4.01-11.4-5.48-17.03-8.41-1.83-.95-3.83-1.78-5.83-2.68v25.93l-4.61,49.93-2.58,28c-.41,4.43.7,8.76,3.02,12.37,1.32,2.06,3.03,3.89,5.09,5.36-.68-4.77-.75-9.85-.51-15.27.45-9.98,2.99-20,7.57-28.91.2-.4.41-.79.62-1.18,8.1-14.97,25.79-26.38,25.85-44.85.02-8.46-5.26-15.16-11.59-20.29Z"/>
      <path class="cls-16" d="M383.27,306.17c-2.07,2.96-5.31,5.06-9.11,5.59-4.61.64-9.03,1.12-13.25,1.44-5.67.44-11,.61-16,.55-14.43-.16-26.14-2.17-35.5-4.95-1.59-.47-3.11-.96-4.56-1.47-3.15-1.11-5.99-2.29-8.54-3.5-3.6-1.71-6.63-3.47-9.12-5.13-.2-.13-.39-.27-.58-.41-2.06-1.47-3.77-3.3-5.09-5.36l-.61,27.99-.45,20.48h105.25l-2.44-35.23Z"/>
      <path class="cls-15" d="M287.43,146.98l-.97,6c-.16.96-.29,1.93-.4,2.9-2.34-.31-6.9-1.61-11.55-3.05l7.72-9.53c1.64,1.35,3.38,2.56,5.2,3.68Z"/>
      <path class="cls-11" d="M276.13,136.94c-4.37-5.95-5.39-11.69-3.66-18.9.55-2.28,1.65-4.09,2.82-5.84-2.57.4-5.15.66-7.73.77h0s1.87,18.78.34,37.74h0c2.06.68,4.35,1.42,6.61,2.12l7.72-9.53c-2.25-1.83-4.31-3.92-6.1-6.36ZM300.43,132.21c1.49,4.21,4.31,7.49,8.22,9.69,1.75.99,3.46,1.6,5.16,1.99-1.32-9.19,2.31-18.65,2.31-18.65-3.23-2.51-5.02-6.6-4.58-10.83.22-2.18.61-4.64,1.12-7.25-3.62,0-8.95.55-14.81,1.36,3.44,6.33.02,16.45,2.58,23.69ZM383.72,280.51l-2.6-9.44c-12.15,1.87-24.12-4-32.7-13.48-10.37-11.44-12.07-28.07-11.04-42.78,1.4-19.94.83-36.62-15.82-49.95-9.95-7.97-23.34-11.24-34.13-17.88l-.97,6c-.16.96-.29,1.93-.4,2.9-.24,2.2-.37,4.41-.37,6.62v14.2c2,.9,4,1.73,5.83,2.68,5.63,2.93,12.07,4.4,17.03,8.41,6.33,5.13,11.61,11.83,11.59,20.29-.06,18.47-17.75,29.88-25.85,44.85-.21.39-.42.78-.62,1.18-4.58,8.91-7.12,18.93-7.57,28.91-.24,5.42-.17,10.5.51,15.27.19.14.38.28.58.41,2.49,1.66,5.52,3.42,9.12,5.13,2.55,1.21,5.39,2.39,8.54,3.5-3.29-11.41-2.63-25.31,1.5-36.14,1.25-3.28,4.28-8.67,8.18-12.81,4.43-4.7,9.99-7.78,15.36-4.32,2.92,1.88,4.39,5.78,5.12,10.03.79,4.67.67,9.75.56,13.03-.45,13.23.87,26.1,14.94,31.62,3.5,1.37,6.87,1.93,10.18,1.7,3.42-.24,6.76-1.33,10.12-3.26,4.06-2.33,7.77-5.71,12.2-7.38.87-.33,1.77-.57,2.69-.73.01-.27.01-.55.01-.83-.05-3.58-.12-7.41-.22-11.33l-1.77-6.4ZM416.14,160.67c-4.13,1.28-8.37,1.33-12.58-1.19-.25-.15-.5-.31-.74-.48-4.23-2.83-6.72-7.29-7.75-12.19-.53-2.52-.06-6.65.33-11-3.67-3.71-7.71-7.48-12.04-11.09-.92,4.38-2.59,8.91-3.01,10.18-2.28,6.88-6.17,17.28-.61,23.47,3.51,3.92,7.71,6.49,12.09,8.77,4.84,2.52,9.91,4.69,14.53,7.93,5.74,4.02,8.87,10.76,10.24,18.01,2-6.4,3.31-12.72,3.4-18.45.08-4.93-1.32-9.75-3.86-13.96Z"/>
      <path class="cls-2" d="M267.56,112.98s1.87,18.77.34,37.73c-2.3-.75-4.32-1.44-5.71-1.91,1.17-14.57-1.16-35.78-1.16-35.78h0c2.18.08,4.36.07,6.53-.05h0Z"/>
      <path class="cls-23" d="M261.03,113.02h0c-5.37-.21-10.72-.98-15.95-2.32l-66.43-17.02-15.26-16.84c-.98-1.08-2.45-1.6-3.89-1.36l-2.01.32-.15.23-1.41-.88c-1.25-.79-2.86-.74-4.07.13l-3.64,2.62v.17c-.99.03-1.94.41-2.68,1.1l-3.48,3.21-6.02.48c-1.17.14-2.01,1.2-1.87,2.38.13,1.08,1.05,1.89,2.13,1.89.06,0,.11,0,.17,0l5.81-.48c1.31-.11,2.62.02,3.88.39l4.89,1.42c1.69.49,2.67,2.25,2.19,3.95-.39,1.41-1.68,2.35-3.09,2.35-.25,0-.5-.03-.75-.09l-10.01-2.41c-1.42-.34-2.85.51-3.23,1.92-.06.24-.09.47-.09.71,0,1.15.74,2.22,1.9,2.57l11.45,3.51c1.41.43,2.75,1.04,4,1.82l3.16,1.96c2.39,1.49,5.2,2.16,8,1.92l2.6-.22c1.22-.11,2.45.11,3.56.62l89.45,41.05s.75.26,2,.69c1.17-14.57-1.16-35.78-1.16-35.78Z"/>
      <path class="cls-8" d="M311.54,114.41c-.17,3.56,1.18,7.09,3.66,9.49,2.45,2.48,5.98,3.41,9.42,3.75,1.73.16,3.51.2,5.23.02,1.74-.1,3.36-.69,5.05-1.26,1.68-.57,3.36-1.14,5.04-1.74,1.68-.58,3.36-1.17,4.97-1.91-3.08,1.8-6.45,3.05-9.74,4.38-1.62.67-3.39,1.31-5.22,1.48-1.82.21-3.61.18-5.42.03-1.8-.18-3.6-.55-5.31-1.18-1.74-.62-3.31-1.69-4.56-3.03-1.25-1.34-2.18-2.96-2.73-4.69-.52-1.74-.66-3.58-.38-5.34Z"/>
      <path class="cls-8" d="M395.27,219.17c-1.58-2.95-3.06-5.94-4.52-8.94-1.47-2.99-2.88-6.02-4.28-9.05-1.38-3.04-2.76-6.07-4.07-9.14l-1.96-4.61c-.62-1.55-1.27-3.09-1.86-4.65,1.58,2.95,3.06,5.94,4.52,8.93,1.47,2.99,2.88,6.02,4.28,9.05,1.38,3.04,2.76,6.07,4.07,9.14,1.32,3.06,2.62,6.14,3.82,9.25Z"/>
      <path class="cls-8" d="M368.9,114.77c-.49-1.07-.89-2.16-1.25-3.26-.31-1.08-.87-1.96-1.7-2.62-.39-.33-.87-.6-1.35-.77-.49-.18-1.09-.34-1.62-.53-1.1-.37-2.19-.78-3.25-1.28,1.17.1,2.32.29,3.45.52.58.11,1.1.23,1.72.39.61.2,1.17.5,1.67.89.99.79,1.66,2.01,1.82,3.2.22,1.14.41,2.29.5,3.46Z"/>
      <path class="cls-8" d="M349.6,126.96c-.73,3.12-1.83,6.14-3.08,9.09-1.19,2.87-1.52,6.08-.9,9.11.71,3.06,1.52,6.18,2.21,9.29.69,3.12,1.45,6.22,1.88,9.4-.45-1.54-.81-3.08-1.31-4.61l-1.31-4.61c-.87-3.08-1.7-6.13-2.45-9.29-.64-3.23-.24-6.67,1.19-9.62.7-1.43,1.36-2.88,1.98-4.34.65-1.46,1.23-2.94,1.8-4.43Z"/>
      <path class="cls-8" d="M355.64,121.4c-1.89-.41-3.83-.6-5.69-.44-1.85.17-3.67.83-4.7,2.29-.27.35-.48.73-.65,1.15l-.57,1.34c-.39.88-.77,1.77-1.18,2.65l-.61,1.32c-.22.45-.41.82-.45,1.27-.12.88.31,1.83,1.1,2.4-.91-.38-1.56-1.36-1.59-2.42-.03-.53.17-1.07.33-1.5l.49-1.37c.33-.91.68-1.81,1.03-2.71l.54-1.35c.18-.47.44-.95.75-1.38.63-.84,1.51-1.51,2.47-1.9.97-.38,1.98-.56,2.98-.57,2-.03,3.95.44,5.73,1.22Z"/>
      <path class="cls-8" d="M364.83,122.25c-.74-1.29-1.44-2.6-2.15-3.9-.36-.65-.69-1.31-1.04-1.96-.34-.68-.69-1.26-1.17-1.79-.94-1.04-2.21-1.77-3.56-2.05-.66-.15-1.4-.13-2.14-.2l-2.22-.15h.04c-.5-.03-.9-.02-1.35.04-.43.05-.86.14-1.28.27-.84.26-1.62.67-2.31,1.22l-.3.11c.17,0,.28-.1.28-.1,0,0-.03.04-.12.08l.09-.06-3.02,2.4c-.26.21-.49.38-.66.57-.18.2-.31.44-.4.7-.18.52-.14,1.11.1,1.61.46,1.05,1.81,1.57,2.92,1.11l3.48-1.65c-1.09.69-2.18,1.35-3.31,2.01-1.24.69-3,.14-3.67-1.17-.35-.64-.44-1.42-.25-2.13.1-.36.27-.7.49-.99.23-.31.53-.53.76-.73l2.95-2.48.09-.06c-.07.04-.1.07-.07.04.01-.01.14-.13.33-.13l-.3.11c.77-.63,1.67-1.11,2.62-1.41.48-.15.97-.26,1.46-.32.49-.06,1.02-.06,1.46-.03h.04s2.22.17,2.22.17c.73.07,1.48.08,2.27.27,1.54.36,2.94,1.25,3.91,2.47.49.6.87,1.32,1.15,1.99.3.68.62,1.35.91,2.03.58,1.36,1.19,2.72,1.75,4.09Z"/>
      <path class="cls-5" d="M405.84,157.71c-1.44.62-2.82,1.36-4.15,2.18-1.34.79-2.63,1.67-3.87,2.61-1.24.93-2.44,1.93-3.58,2.98-1.15,1.04-2.21,2.18-3.26,3.31l-.16.17h-.21s-.01,0-.01,0l.37-.17c-1.72,1.94-3.27,4.02-4.68,6.21-.7,1.1-1.35,2.23-1.97,3.37-.64,1.14-1.17,2.33-1.75,3.51.39-1.25.83-2.49,1.35-3.71.52-1.21,1.12-2.39,1.76-3.55,1.27-2.32,2.82-4.49,4.56-6.49l.14-.17h.23s.01,0,.01,0l-.37.17c2.11-2.39,4.48-4.52,7.11-6.3,1.32-.88,2.68-1.69,4.09-2.4,1.42-.68,2.88-1.32,4.4-1.72Z"/>
      <path class="cls-5" d="M290.45,128.28c-.45,4.04-1,8.07-1.57,12.1-.57,4.03-1.22,8.04-1.83,12.06-.31,2-.63,3.99-.77,6-.18,2.01-.16,4.02-.21,6.06l-.14,6.1c-.08,2.03-.13,4.07-.24,6.1-.11-2.03-.16-4.07-.24-6.1l-.14-6.1c-.16-4.06.11-8.19.76-12.23.69-4.01,1.33-8.02,2.06-12.02l1.11-6c.41-1.99.78-3.99,1.22-5.98Z"/>
      <path class="cls-17" d="M309.41,308.8c.27,2.71.44,5.43.59,8.14.16,2.71.24,5.43.32,8.15.05,2.72.11,5.43.08,8.15l-.04,4.08c-.05,1.36-.07,2.72-.15,4.08-.15-1.36-.23-2.71-.34-4.07l-.24-4.07c-.16-2.71-.24-5.43-.31-8.15-.05-2.72-.11-5.43-.08-8.15.01-2.72.04-5.44.18-8.16Z"/>
      <path class="cls-17" d="M374.16,311.76s2.09,10.96,2.93,21.73c.21,2.71.34,5.41.34,7.91"/>
      <path class="cls-17" d="M344.91,313.76c.31,1.73.84,3.41,1.54,5,.69,1.6,1.54,3.12,2.56,4.51,2.03,2.79,4.71,5.07,7.76,6.67,3.04,1.63,6.42,2.55,9.85,3.09.86.15,1.73.21,2.59.32l2.61.15,2.63.05c.88-.03,1.75-.05,2.64-.05h.01s-.01,0-.01,0h0c-3.48.52-7.04.68-10.57.3-3.52-.37-7.04-1.29-10.22-2.97-3.16-1.68-5.96-4.11-7.92-7.12-1.96-2.99-3.24-6.42-3.48-9.94Z"/>
      <path class="cls-17" d="M280.91,320.92c1.84-.77,3.51-1.85,5.07-3.01,1.55-1.2,2.98-2.53,4.25-4.01,2.57-2.95,4.49-6.4,6.07-10.07-.83,3.91-2.67,7.65-5.32,10.72-1.33,1.53-2.87,2.89-4.56,3.99-1.69,1.1-3.55,1.98-5.52,2.38Z"/>
      <path class="cls-8" d="M160.98,78.31c-1.15-.48-2.25-1.04-3.33-1.63-.54-.29-1.07-.6-1.61-.91-.28-.16-.51-.32-.75-.41-.24-.1-.5-.18-.76-.22-.52-.1-1.07-.05-1.58.11-.26.07-.5.19-.74.33l-.77.49c-1.04.66-2.1,1.29-3.22,1.84.88-.89,1.81-1.69,2.77-2.47.24-.2.46-.39.74-.58.28-.2.58-.37.91-.49.65-.24,1.37-.31,2.06-.2.68.1,1.37.48,1.85.82.51.35,1.02.68,1.52,1.05,1,.72,1.99,1.46,2.92,2.29Z"/>
      <path class="cls-8" d="M157.18,78.8c-2.8.11-5.59-.11-8.33-.23-1.34-.12-2.45.3-3.46,1.26-1.07.9-2.18,1.74-3.33,2.54.89-1.09,1.82-2.12,2.8-3.12.44-.49,1.07-1.06,1.78-1.35.72-.31,1.52-.38,2.24-.35,2.82.15,5.57.55,8.29,1.22Z"/>
      <path class="cls-8" d="M154.6,81.38c-3.06.64-6.15.98-9.24,1.24-3.09.23-6.2.39-9.32.24,3.06-.64,6.15-.98,9.24-1.24,3.1-.23,6.2-.39,9.32-.24Z"/>
      <path class="cls-8" d="M330.58,85.11c-.7,2.34-1.57,4.59-2.51,6.8-.92,2.22-1.95,4.4-3,6.56l-1.59,3.11c-.28.6.08,1.42.88,1.63,2.17.59,4.53.5,6.89-.11-2.01,1.38-4.63,2.02-7.19,1.64-.76-.08-1.61-.57-2.05-1.3-.46-.72-.59-1.66-.31-2.51l.12-.3.1-.21.2-.41.39-.81.78-1.62c1.08-2.14,2.19-4.28,3.4-6.36,1.2-2.09,2.46-4.14,3.9-6.11Z"/>
      <path class="cls-8" d="M319.85,108.53c1.73,1.07,3.62,1.81,5.55,2.24,1.93.4,3.92.5,5.84.11.48-.06.95-.23,1.42-.35.23-.07.48-.11.71-.2l.68-.28c.45-.2.93-.33,1.36-.57l1.3-.72c.45-.21.84-.52,1.25-.81l1.24-.85c.79-.62,1.53-1.3,2.34-1.93-.64.78-1.33,1.55-2.02,2.3l-1.17,1.01c-.39.34-.78.68-1.23.94-1.69,1.21-3.67,2.01-5.72,2.44-2.07.4-4.22.24-6.22-.34-2-.57-3.85-1.61-5.35-2.99Z"/>
      <path class="cls-20" d="M340.81,84.46c1.1-.49,2.29-.63,3.48-.62,1.18.03,2.38.26,3.51.72,1.13.46,2.18,1.16,3,2.09.82.9,1.4,2.06,1.51,3.25-.87-.83-1.66-1.52-2.55-2.07-.86-.57-1.77-1.02-2.72-1.41-1.91-.79-3.96-1.28-6.23-1.95Z"/>
      <path class="cls-20" d="M321.03,76.02h.01s0,0,0,0c.8-.35,1.62-.43,2.43-.42.81.02,1.61.17,2.38.44.77.27,1.5.67,2.14,1.2.63.55,1.18,1.22,1.44,2.05-.84-.23-1.53-.46-2.22-.69-.69-.22-1.36-.44-2.03-.68-.67-.24-1.35-.49-2.04-.79-.69-.31-1.38-.63-2.1-1.11h-.01Z"/>
      <path class="cls-20" d="M388.56,79.71c-.33.59-.66,1.17-.93,1.8-.35.85-.83,2.13-1.15,3.55-.01.06-.03.12-.04.18s-.03.13-.04.19c-.31,1.49-.45,3.09-.12,4.54,0,0,.59,2.01.44,4.58-.19,3.45-1.73,7.92-7.85,9.82h-.01l-1.37-1.94-.07-.1-.07-.1-6.07-8.55-3.54,2.87-.13.1-.14.11-4.9,3.97c.21-2.31.02-4.33-.4-6.08-.5-2.11-1.35-3.82-2.23-5.15-.17-.25-.34-.49-.51-.72-1.21-1.61-2.87-2.81-4.69-3.68-7.98-3.84-7.16-11.1-7.16-11.1,1.05-4.51-.6-6.71-1.89-7.7-.6-.46-1.34-.7-2.09-.8-1.53-.22-2.79-.66-3.83-1.21-1.24-.65-2.21-1.59-2.87-2.68-1.01-1.63-1.35-3.6-.96-5.42.02-.09.04-.17.06-.26.02-.08.04-.16.07-.24.05-.21.12-.41.2-.61.5-1.28,1.41-2.43,2.74-3.25.71-.43,1.46-.72,2.17-.83.62-.09,1.22-.05,1.76.15.24.09.48.17.73.25,3.51,1.08,7.28.74,10.59-.76l.25-.11c.74-.34,1.45-.75,2.13-1.21.02,0,.03-.02.05-.03.22-.15.45-.31.66-.47,1.32-.99,2.78-1.76,4.34-2.27.43-.14.86-.26,1.31-.35l.27-.06c.73-.14,1.49-.23,2.24-.25,2.53-.06,5.49.54,8.34,2.68,2.41,1.81,4.1,4.4,5,7.27.62,2,1.89,4.87,4.35,6.82,1.22.98,2.38,2.03,3.3,3.28,2.24,3.05,5.08,8.5,2.06,13.77Z"/>
      <path class="cls-20" d="M361.69,46.55c-1.56.51-3.02,1.28-4.34,2.27-.18.14-.37.27-.56.4-.03.02-.07.05-.1.07-.02,0-.03.02-.05.03s-.03.02-.05.03c-.7.48-1.44.89-2.2,1.24-3.34,1.54-7.16,1.9-10.72.81-.25-.08-.49-.16-.73-.25-.5-.18-1.05-.23-1.62-.17-.05,0-.09,0-.14.02-.05,0-.09.02-.14.03-.67.12-1.37.4-2.03.8-1.29.79-2.18,1.9-2.68,3.13h-.01s-.03.08-.05.12-.03.09-.04.13h-.01c-.09.24-.16.47-.22.72-.48,1.89-.16,3.97.9,5.68h-.01c-5.77,4.3-9.85,5.31-12.72,4.77-5.54-1.02-6.55-7.82-6.55-7.82-.01-.08-.02-.16-.02-.23l-.04-.39h0c-.51-5.66,1.75-8.74,4.18-10.41,2.05-1.41,4.58-1.96,7.06-1.75,1.28.11,2.48.17,3.6.18.09,0,.17,0,.25,0h.25c6.61.04,10.52-1.35,12.1-2.05.09-.04.19-.08.28-.12.05-.02.09-.04.14-.06.05-.02.11-.04.16-.06,1.24-.52,2.53-.91,3.85-1.11,7.96-1.19,12.26,3.98,12.26,3.98Z"/>
      <path class="cls-9" d="M363.6,83.18c-.65-.84-1.31-1.6-1.94-2.34-2.22-2.58-4.13-4.81-4.43-8.74-.37-4.55-1.8-7.01-5.3-9.09-2.05-1.21-4.26-1.22-6.4-1.23-1.69,0-3.44-.02-5.09-.62-2.09-.76-3.83-2.88-4.32-5.27-.02-.04-.02-.09-.03-.14v-.03s-.01-.02-.02-.03c-.03.08-.05.16-.07.24-.02.09-.04.17-.06.26.56,2.37,2.31,4.44,4.42,5.21,1.69.61,3.46.62,5.16.63,2.11,0,4.29.02,6.29,1.2,3.41,2.03,4.81,4.44,5.17,8.89.31,4.01,2.25,6.27,4.49,8.88.63.74,1.28,1.5,1.93,2.34,1.57,2.02,2.81,4.64,3.5,7.37.53,2.02.73,4.07.58,5.93,0,.04,0,.08-.01.12l.14-.11.13-.1c.13-1.85-.07-3.89-.6-5.9-.7-2.76-1.95-5.41-3.54-7.47ZM379.22,92.89c-.49-1.99-1.48-3.91-2.78-5.41-.88-1.01-1.88-1.99-2.95-3.03-3.18-3.09-6.47-6.3-6.52-10.49-.03-1.36.06-2.77.14-4.14.28-4.79.56-9.74-3.42-13.47-1.34-1.25-3.04-2.12-4.68-2.97l-.51-.26c-1.39-.72-2.85-1.51-3.99-2.59l-.25.11s.03.03.04.04c1.18,1.12,2.67,1.93,4.08,2.66l.52.27c1.62.83,3.31,1.69,4.62,2.92,3.9,3.66,3.61,8.54,3.34,13.27-.08,1.37-.17,2.79-.14,4.16.06,4.3,3.38,7.54,6.6,10.67,1.06,1.04,2.06,2.01,2.93,3.01,1.27,1.48,2.24,3.36,2.73,5.31.14.57.24,1.18.31,1.8.17,1.82-.02,5.72-1.94,7.48l.07.1.07.1h.01c2.02-1.83,2.21-5.84,2.03-7.7-.06-.64-.16-1.26-.31-1.84ZM382.61,80.34c-.64-.63-1.32-1.23-1.99-1.8-1.12-.98-2.29-1.99-3.21-3.19-2.57-3.32-2.21-6.87-1.83-10.64.14-1.36.28-2.77.28-4.18-.01-5.95-3.73-8.55-8.59-11.32-1.81-1.03-3.01-1.95-4-3.07l-.27.06s.03.03.04.05c1.01,1.16,2.24,2.11,4.11,3.18,4.78,2.73,8.45,5.28,8.46,11.1,0,1.4-.14,2.8-.28,4.16-.39,3.81-.75,7.42,1.88,10.82.94,1.21,2.12,2.23,3.25,3.22.66.57,1.34,1.16,1.97,1.79,1.65,1.64,2.93,3.2,3.9,4.78.03.04.05.09.07.13.01-.06.03-.13.04-.19s.03-.12.04-.18c-.98-1.56-2.25-3.11-3.87-4.72Z"/>
      <path class="cls-9" d="M336.26,54.96c-2.09.15-3.97,1.56-5.96,3.05-1.15.86-2.33,1.75-3.62,2.45-3.12,1.68-6.86-.07-9.01-2.41-.04-.04-.06-.07-.11-.11l.04.39c1.6,1.69,4,3.05,6.4,3.05.95,0,1.9-.21,2.8-.7,1.31-.71,2.5-1.6,3.65-2.47,1.94-1.46,3.77-2.84,5.77-3h.01s.02-.09.04-.13c.02-.04.03-.08.05-.12h-.06ZM341.27,50.92c-1.35-1.54-3.38-2.49-5.36-3.41-1.01-.48-2.05-.97-3.01-1.54h-.25c-.08,0-.16,0-.25,0,.06.05.12.08.18.12,1.02.62,2.14,1.14,3.23,1.65,2.02.95,3.91,1.84,5.23,3.3.05,0,.09-.02.14-.03.05,0,.09,0,.14-.02-.01-.02-.03-.04-.05-.06ZM356.78,49.21c-1.25-1.4-3.04-2.28-4.78-3.06-.65-.3-1.51-.59-2.42-.9-1.3-.43-2.77-.92-4-1.57-.05.02-.11.04-.16.06-.05.02-.09.04-.14.06.02.02.05.03.08.05,1.27.68,2.8,1.19,4.14,1.64.9.3,1.76.59,2.4.88,1.7.78,3.46,1.63,4.69,2.98.02,0,.03-.02.05-.03s.03-.02.05-.03c.03-.02.07-.05.1-.07h0Z"/>
      <path class="cls-18" d="M377.77,53.23c-1.04-1.78-2.4-3.35-4.07-4.51-1.67-1.15-3.55-1.99-5.54-2.29-1.98-.32-4.02-.17-5.93.43-.96.25-1.88.67-2.76,1.14-.9.48-1.64,1.05-2.52,1.69l-.05.03-.05.03.05-.03c-2.51,1.72-5.51,2.74-8.57,2.79-1.52.03-3.05-.15-4.52-.59-.37-.09-.73-.24-1.08-.36-.29-.11-.61-.16-.94-.16-.66,0-1.32.18-1.95.47-1.26.58-2.35,1.55-3,2.79-.63,1.24-.92,2.7-.71,4.11.19,1.41.78,2.78,1.73,3.88.47.55,1.03,1.02,1.65,1.41.63.37,1.32.64,1.98.97-.68-.27-1.4-.48-2.07-.82-.66-.36-1.26-.81-1.79-1.35-1.05-1.09-1.79-2.49-2.04-4-.28-1.51-.03-3.1.62-4.51.68-1.4,1.85-2.57,3.27-3.24.7-.33,1.49-.58,2.32-.58.41,0,.83.06,1.23.2.36.11.68.24,1.03.33,1.37.39,2.81.54,4.24.5,2.85-.11,5.68-1.02,8.07-2.61l.05-.03.05-.03-.05.03c1.61-1.22,3.52-2.36,5.57-2.88,2.03-.62,4.22-.65,6.28-.26,2.07.4,4.04,1.31,5.66,2.62,1.64,1.3,2.95,2.98,3.82,4.84Z"/>
    </g>
  </g>
</svg>