<?xml version="1.0" encoding="UTF-8"?>
<svg xmlns="http://www.w3.org/2000/svg" xmlns:xlink="http://www.w3.org/1999/xlink" viewBox="0 0 398.5 309.04">
  <defs>
    <style>
      .cls-1, .cls-2 {
        fill: #db3537;
      }

      .cls-3 {
        opacity: .43;
      }

      .cls-3, .cls-2, .cls-4, .cls-5, .cls-6, .cls-7, .cls-8, .cls-9 {
        mix-blend-mode: multiply;
      }

      .cls-3, .cls-10 {
        fill: #eac3b2;
      }

      .cls-11 {
        letter-spacing: 0em;
      }

      .cls-12 {
        fill: #05777c;
      }

      .cls-13 {
        filter: url(#drop-shadow-2);
      }

      .cls-4 {
        opacity: .33;
      }

      .cls-14, .cls-15 {
        fill: #fff;
      }

      .cls-16 {
        font-size: 11.83px;
        stroke: #2f2c33;
        stroke-miterlimit: 10;
        stroke-width: .16px;
      }

      .cls-16, .cls-17, .cls-18 {
        fill: #2f2c33;
      }

      .cls-16, .cls-18 {
        font-family: Montserrat-Regular, Montserrat;
      }

      .cls-19 {
        opacity: .17;
      }

      .cls-19, .cls-20, .cls-7, .cls-21 {
        fill: #0ba9b9;
      }

      .cls-20 {
        opacity: .22;
      }

      .cls-15 {
        opacity: .19;
      }

      .cls-22 {
        fill: #513216;
      }

      .cls-23 {
        letter-spacing: .02em;
      }

      .cls-24 {
        filter: url(#drop-shadow-1);
      }

      .cls-25 {
        isolation: isolate;
      }

      .cls-26, .cls-9 {
        fill: #f77b00;
      }

      .cls-27 {
        fill: #97ffff;
      }

      .cls-28 {
        fill: #aa5611;
      }

      .cls-5, .cls-29 {
        fill: #224d99;
      }

      .cls-30, .cls-6, .cls-8 {
        fill: #ffc400;
      }

      .cls-6 {
        opacity: .34;
      }

      .cls-31 {
        opacity: .15;
      }

      .cls-31, .cls-32 {
        fill: #117bd3;
      }

      .cls-7 {
        opacity: .31;
      }

      .cls-8 {
        opacity: .73;
      }

      .cls-9 {
        opacity: .2;
      }

      .cls-32 {
        opacity: .25;
      }

      .cls-33 {
        fill: #dd6b05;
      }

      .cls-18 {
        font-size: 7.38px;
        letter-spacing: .02em;
      }
    </style>
    <filter id="drop-shadow-1" x="-16.53" y="-16.65" width="442" height="352" filterUnits="userSpaceOnUse">
      <feOffset dx="5" dy="5"/>
      <feGaussianBlur result="blur" stdDeviation="7"/>
      <feFlood flood-color="#142e60" flood-opacity=".5"/>
      <feComposite in2="blur" operator="in"/>
      <feComposite in="SourceGraphic"/>
    </filter>
    <filter id="drop-shadow-2" x="234.47" y="173.35" width="44" height="52" filterUnits="userSpaceOnUse">
      <feOffset dx="3" dy="2"/>
      <feGaussianBlur result="blur-2" stdDeviation="2"/>
      <feFlood flood-color="#4992ce" flood-opacity=".5"/>
      <feComposite in2="blur-2" operator="in"/>
      <feComposite in="SourceGraphic"/>
    </filter>
  </defs>
  <g class="cls-25">
    <g id="Layer_2" data-name="Layer 2">
      <g id="OBJECTS">
        <g class="cls-24">
          <g>
            <path class="cls-32" d="M392.98,280.1c0-9.53-67.05-17.26-149.76-17.26-16.32,0-32.02.3-46.73.86-14.71-.56-30.41-.86-46.73-.86-82.71,0-149.76,7.73-149.76,17.26,0,5.03,18.67,9.55,48.45,12.71,4.59,9.06,69.76,16.24,149.49,16.24s146.48-7.36,149.63-16.57c28.01-3.14,45.41-7.52,45.41-12.38Z"/>
            <path class="cls-19" d="M147.52,62.16c17.88,3.49,36.36.38,52.13-8.73,20.23-11.69,52.43-35.32,93.35-31.65,88.04,7.91,132.5,77.13,88.04,155.63-42.1,74.33-180.6,64.76-180.6,64.76,0,0-142.3,18.43-173.54-59.62-20.33-50.8,7.23-142.52,120.62-120.39Z"/>
            <g>
              <g>
                <path class="cls-26" d="M137.92,212.92H61.95s-2.32,58.92,18.53,78.63h50.03s23.96-7.83,23.96-78.63h-16.55Z"/>
                <path class="cls-33" d="M154.43,212.92c0,3.44-20.71,6.22-46.26,6.22s-46.26-2.79-46.26-6.22,20.71-6.22,46.26-6.22,46.26,2.79,46.26,6.22Z"/>
                <path class="cls-28" d="M68.12,216.03c8,1.86,22.94,3.11,40.05,3.11s32.06-1.25,40.05-3.11c-8-1.86-22.94-3.11-40.05-3.11s-32.06,1.25-40.05,3.11Z"/>
                <path class="cls-9" d="M152.48,212.92c-7.24,39-33.78,67.77-65.12,67.77h-14.6c2.14,4.25,4.69,7.98,7.74,10.86h50.03s23.96-7.83,23.96-78.63h-2Z"/>
              </g>
              <g>
                <path class="cls-12" d="M77.61,10.83c6.31,6.3,11.17,14.41,12.48,23.34,1.29,9.01-1.94,17.81-3.17,26.59-1.39,8.77-.48,17.7,2.86,25.95,12.23,28.77,22.51,44.43,18.53,77.64-1.32,13.28-3.38,26.36-.79,39.42.83,4.23,2.14,8.34,3.84,12.28.55,1.24-.02,2.68-1.26,3.22-1.25.54-2.71-.06-3.22-1.32-1.74-4.3-3.05-8.79-3.84-13.35-2.42-13.49,0-27.4,1.64-40.64,4.66-32.47-5.3-48.06-16.62-76.62-3.22-8.46-3.98-17.87-2.34-26.77,1.43-8.78,4.84-17.34,3.77-26.32-1.09-8.84-5.76-17.03-11.87-23.42h0Z"/>
                <path class="cls-12" d="M118.62,89.13c-.64,6.58-3.92,12.81-8.37,17.65-2.68,2.98-6,5.47-9.4,7.57,0,0-1.38-2.58-1.38-2.58,1.11-.6,2.26-1.15,3.35-1.79,7.68-4.52,14.07-11.94,15.8-20.86h0Z"/>
                <path class="cls-12" d="M67.67,93.63c5.15,10.76,15.25,18.43,26.25,22.5,3.16,1.08,6.19,1.87,9.44,2.56,0,0-1,4.18-1,4.18-1.88-.64-3.78-1.2-5.63-1.91-.93-.4-3.21-1.35-4.1-1.73-2.04-1.05-4.56-2.33-6.46-3.62-8.15-5.22-15.13-12.86-18.5-21.98h0Z"/>
                <g>
                  <path class="cls-21" d="M70.13,0s27.66,3.01,32.04,30.08c1.64,10.15-1.08,17.08-3.92,21.63-5.52,8.84-18.56,8.39-23.97-.52-1.46-2.4-2.7-5.39-3.44-9.09-4.27-21.45,7.05-24.64-.71-42.1Z"/>
                  <path class="cls-7" d="M102.17,30.08C97.79,3.01,70.13,0,70.13,0c0,0,10.01,6.91,15.96,22.58,4.36,11.49,2.32,27.49.89,35.52,4.37-.11,8.66-2.21,11.27-6.39,2.84-4.55,5.57-11.48,3.92-21.63Z"/>
                  <path class="cls-27" d="M70.13,0c7.62,5.48,12.97,13.73,16.38,22.39,4.07,11.46,2.82,24.04.47,35.71.36-2.64.69-5.28.9-7.93.66-7.88.81-15.97-1.1-23.68C83.96,16.36,78.16,6.84,70.13,0h0Z"/>
                  <path class="cls-27" d="M85.34,8.39c2.98,5.54,4.49,12.36,2.2,18.43,0,0-.9-.38-.9-.38,2.51-5.77,1.31-12.51-1.31-18.05h0Z"/>
                  <path class="cls-27" d="M94.62,17.39c.41,6.28-1.05,13.11-5.65,17.68,0,0-.66-.72-.66-.72,4.68-4.21,6.39-10.83,6.31-16.96h0Z"/>
                  <path class="cls-27" d="M78.88,27.19c1.48,5.95,4.81,11.92,10.41,14.81,0,0-.46.86-.46.86-5.61-3.25-8.75-9.49-9.95-15.67h0Z"/>
                  <path class="cls-27" d="M77.46,15.59c1.65,5.9,5.15,11.78,10.83,14.5,0,0-.43.87-.43.87-5.7-3.09-9.02-9.23-10.39-15.38h0Z"/>
                  <path class="cls-27" d="M99.33,30.79c-1.53,6.11-5.01,12.16-10.78,15.11,0,0-.41-.88-.41-.88,5.74-2.58,9.39-8.37,11.19-14.23h0Z"/>
                </g>
                <g>
                  <path class="cls-21" d="M35.57,49.54s-17.81,29.64,5.69,54.32c8.81,9.26,17.72,11.77,24.36,12.37,12.9,1.17,22.25-12.07,17.51-24.12-1.28-3.25-3.3-6.72-6.41-10.23-18.02-20.35-29.68-11.54-41.15-32.35Z"/>
                  <path class="cls-7" d="M41.26,103.86c-23.5-24.68-5.69-54.32-5.69-54.32,0,0-.69,15.1,10.36,32.77,8.1,12.95,25.46,22.96,34.49,27.58-3.4,4.24-8.7,6.91-14.8,6.35-6.64-.6-15.55-3.12-24.36-12.37Z"/>
                  <path class="cls-27" d="M35.57,49.54c.62,12.33,5.32,24.3,12.21,34.45,4.34,5.99,9.98,10.9,15.92,15.28,5.31,3.93,10.97,7.37,16.72,10.62-12.63-6.07-25.12-13.77-33.6-25.21-6.89-10.28-11.53-22.65-11.25-35.13h0Z"/>
                  <path class="cls-27" d="M32.44,70.91c3.52,6.76,9.28,13.01,16.89,14.86,0,0-.3,1.17-.3,1.17-7.72-2.3-13.34-8.92-16.58-16.03h0Z"/>
                  <path class="cls-27" d="M34.38,86.85c6.01,4.68,13.85,7.97,21.53,6.5,0,0,.21,1.19.21,1.19-7.98,1.12-15.84-2.57-21.75-7.69h0Z"/>
                  <path class="cls-27" d="M55.91,78.64c5.21,5.83,9.02,13.63,8.03,21.63,0,0-1.19-.19-1.19-.19,1.35-7.71-2.06-15.5-6.83-21.43h0Z"/>
                  <path class="cls-27" d="M45.49,68.51c5.05,5.98,8.63,13.89,7.41,21.85,0,0-1.19-.23-1.19-.23,1.57-7.67-1.61-15.55-6.22-21.62h0Z"/>
                  <path class="cls-27" d="M44.1,101.58c7.15,2.63,15.62,3.36,22.49-.38,0,0,.57,1.07.57,1.07-7.26,3.5-15.86,2.39-23.06-.69h0Z"/>
                </g>
                <g>
                  <path class="cls-21" d="M129.07,18.04s34.26,22.92,21.46,61.47c-4.8,14.46-13.13,21.69-19.98,25.72-13.31,7.82-30.12-1.71-31.13-17.12-.27-4.16.15-8.93,1.71-14.29,9.1-31.1,26.14-27.52,27.94-55.78Z"/>
                  <path class="cls-7" d="M150.53,79.5c12.8-38.55-21.46-61.47-21.46-61.47,0,0,8.41,15.93,5.47,40.59-2.15,18.08-15.79,37.69-23.18,47.26,5.82,2.85,12.89,3.03,19.18-.67,6.85-4.02,15.18-11.26,19.98-25.72Z"/>
                  <path class="cls-27" d="M129.07,18.04c6.25,12.41,7.62,26.93,6.16,40.63-2.51,17.84-12.77,33.49-23.87,47.22,8.96-12.78,17.62-26.36,21.41-41.65,3.26-14.39,2.03-32.56-3.7-46.2h0Z"/>
                  <path class="cls-27" d="M143.3,39.49c.11,9.32-2.58,19.32-9.74,25.71,0,0-.92-1.11-.92-1.11,7.25-5.86,10.3-15.53,10.66-24.6h0Z"/>
                  <path class="cls-27" d="M149.31,57.66c-3.77,8.53-10.37,16.5-19.54,19.34,0,0-.38-1.39-.38-1.39,9.03-2.32,15.82-9.85,19.92-17.95h0Z"/>
                  <path class="cls-27" d="M121.92,59.75c-2.13,8.82-1.85,18.96,3.52,26.58,0,0-1.19.82-1.19.82-5.13-8.11-4.99-18.46-2.33-27.4h0Z"/>
                  <path class="cls-27" d="M128.01,43.54c-1.88,8.88-1.31,19,4.28,26.47,0,0-1.17.85-1.17.85-5.36-7.96-5.52-18.31-3.11-27.32h0Z"/>
                  <path class="cls-27" d="M146.31,78.48c-6.19,6.97-14.91,12.54-24.51,12.46,0,0,.07-1.44.07-1.44,9.31.55,18.07-4.55,24.45-11.01h0Z"/>
                </g>
                <path class="cls-12" d="M123.51,177.68c-.64,6.59-3.92,12.81-8.37,17.65-2.68,2.98-6,5.47-9.4,7.57,0,0-1.38-2.58-1.38-2.58,1.11-.6,2.26-1.15,3.35-1.79,7.68-4.52,14.07-11.94,15.8-20.86h0Z"/>
                <path class="cls-12" d="M81.65,159.71c3.94,8.19,12,13.75,20.57,16.17,1.22.34,2.47.58,3.7.88l-.68,2.84c-3.82-1.17-7.66-2.73-11.01-4.94-5.54-3.55-10.29-8.74-12.58-14.95h0Z"/>
                <g>
                  <path class="cls-21" d="M135.17,115.64s27.83,18.61,17.43,49.93c-3.9,11.74-10.67,17.62-16.23,20.89-10.82,6.35-24.47-1.39-25.29-13.9-.22-3.38.12-7.25,1.39-11.61,7.39-25.26,21.24-22.36,22.69-45.31Z"/>
                  <path class="cls-7" d="M152.6,165.57c10.4-31.31-17.43-49.93-17.43-49.93,0,0,6.83,12.94,4.45,32.97-1.75,14.69-12.83,30.62-18.83,38.39,4.73,2.31,10.47,2.46,15.58-.54,5.56-3.27,12.33-9.15,16.23-20.89Z"/>
                  <path class="cls-27" d="M120.78,187c7.71-11.01,15.22-22.8,17.9-36.15.96-5.47,1.08-11.09.71-16.62-.47-6.35-1.74-12.7-4.23-18.59,2.93,5.72,4.47,12.1,5.13,18.51.53,4.77.37,9.73-.12,14.5-2.04,14.48-10.38,27.21-19.39,38.36h0Z"/>
                  <path class="cls-27" d="M146.73,133.07c.09,7.57-2.1,15.69-7.91,20.89,0,0-.75-.9-.75-.9,5.89-4.76,8.36-12.62,8.66-19.99h0Z"/>
                  <path class="cls-27" d="M151.61,147.83c-3.06,6.93-8.43,13.4-15.87,15.71,0,0-.3-1.13-.3-1.13,7.34-1.88,12.85-8,16.18-14.58h0Z"/>
                  <path class="cls-27" d="M129.36,149.52c-1.73,7.17-1.5,15.4,2.86,21.59,0,0-.97.66-.97.66-4.17-6.59-4.06-14.99-1.89-22.25h0Z"/>
                  <path class="cls-27" d="M134.31,136.36c-1.53,7.21-1.07,15.44,3.47,21.5,0,0-.95.69-.95.69-4.36-6.47-4.48-14.87-2.53-22.19h0Z"/>
                  <path class="cls-27" d="M149.17,164.75c-5.03,5.66-12.11,10.19-19.91,10.12,0,0,.05-1.17.05-1.17,7.56.45,14.68-3.7,19.86-8.95h0Z"/>
                </g>
                <g>
                  <path class="cls-21" d="M9.91,111.08s-11.54,45.31,28.49,68.15c15.01,8.56,27.53,8.35,36.36,6.56,17.17-3.49,24.13-24.28,13.3-38.05-2.92-3.72-6.89-7.43-12.28-10.76-31.26-19.35-42.93-3.41-65.87-25.9Z"/>
                  <path class="cls-7" d="M38.39,179.23C-1.63,156.39,9.91,111.08,9.91,111.08c0,0,4.98,19.82,26.15,38.41,15.52,13.63,41.91,19.84,55.39,22.31-2.75,6.81-8.58,12.33-16.7,13.98-8.83,1.8-21.35,2.01-36.36-6.56Z"/>
                  <path class="cls-27" d="M9.91,111.08c5.16,14.75,15.06,27.47,26.65,37.78,1.51,1.25,3.64,2.96,5.25,4.02,14.78,9.98,32.41,14.96,49.65,18.93-19.71-3.15-40.4-8.64-55.96-21.75-11.62-10.45-21.45-23.78-25.59-38.98h0Z"/>
                  <path class="cls-27" d="M14.16,139.98c7.18,7.38,17.08,13.24,27.65,12.69,0,0,.07,1.64.07,1.64-10.89.02-20.74-6.37-27.71-14.32h0Z"/>
                  <path class="cls-27" d="M22.87,159.87c9.6,3.73,21.04,4.94,30.42.05,0,0,.74,1.46.74,1.46-9.9,4.55-21.51,2.83-31.16-1.51h0Z"/>
                  <path class="cls-27" d="M47.57,140.86c9.02,5.53,16.98,14.15,18.8,24.89,0,0-1.62.21-1.62.21-1.25-10.51-8.69-19.27-17.18-25.11h0Z"/>
                  <path class="cls-27" d="M30.14,131.8c8.86,5.78,16.58,14.63,18.09,25.42,0,0-1.63.17-1.63.17-.95-10.54-8.14-19.51-16.46-25.58h0Z"/>
                  <path class="cls-27" d="M41.19,175.17c10.28.62,21.54-1.71,28.98-9.24,0,0,1.15,1.16,1.15,1.16-8.04,7.35-19.62,9.26-30.13,8.07h0Z"/>
                </g>
              </g>
            </g>
            <g>
              <g>
                <g>
                  <rect class="cls-29" x="132.3" y="9.72" width="165.45" height="282.17" rx="14.37" ry="14.37"/>
                  <rect class="cls-14" x="143.01" y="28.16" width="144.03" height="226.73"/>
                  <path class="cls-5" d="M233.74,280.96h-37.45c-4.18,0-7.56-3.39-7.56-7.56h0c0-4.18,3.39-7.56,7.56-7.56h37.45c4.18,0,7.56,3.39,7.56,7.56h0c0,4.18-3.39,7.56-7.56,7.56Z"/>
                  <circle class="cls-5" cx="168.58" cy="19.56" r="2.42"/>
                  <path class="cls-5" d="M178.89,19.56c0,.94-.77,1.71-1.71,1.71s-1.71-.77-1.71-1.71.77-1.71,1.71-1.71,1.71.77,1.71,1.71Z"/>
                  <path class="cls-5" d="M236.36,21.97h-42.69c-.67,0-1.21-.54-1.21-1.21h0c0-.67.54-1.21,1.21-1.21h42.69c.67,0,1.21.54,1.21,1.21h0c0,.67-.54,1.21-1.21,1.21Z"/>
                  <rect class="cls-20" x="143.01" y="28.16" width="144.03" height="226.73"/>
                </g>
                <path class="cls-31" d="M270.01,134.16h-92.52c-3.9,0-7.06-3.16-7.06-7.06h0c0-3.9,3.16-7.06,7.06-7.06h92.52c3.9,0,7.06,3.16,7.06,7.06h0c0,3.9-3.16,7.06-7.06,7.06Z"/>
                <path class="cls-31" d="M270.08,157.54h-92.52c-3.9,0-7.06-3.16-7.06-7.06h0c0-3.9,3.16-7.06,7.06-7.06h92.52c3.9,0,7.06,3.16,7.06,7.06h0c0,3.9-3.16,7.06-7.06,7.06Z"/>
                <path class="cls-30" d="M162.17,149.73v-1.06c0-2.5-2.03-4.54-4.54-4.54s-4.54,2.03-4.54,4.54v1.08c-.46.14-.81.55-.81,1.06v5.24c0,.62.5,1.12,1.12,1.12h8.52c.62,0,1.12-.5,1.12-1.12v-5.24c0-.53-.38-.96-.88-1.07ZM156.47,155.51l.49-1.92c-.23-.2-.39-.49-.39-.82,0-.61.49-1.1,1.1-1.1s1.1.49,1.1,1.1c0,.36-.19.67-.45.87l.55,1.88h-2.4ZM161.37,149.68h-7.46v-1.02c0-2.06,1.67-3.73,3.73-3.73s3.73,1.67,3.73,3.73v1.02Z"/>
                <g>
                  <path class="cls-30" d="M161.56,123.37c0,1.52-1.23,2.75-2.75,2.75s-2.75-1.23-2.75-2.75,1.23-2.75,2.75-2.75,2.75,1.23,2.75,2.75Z"/>
                  <path class="cls-30" d="M163.41,132.77h-9.26v-2.02c0-2.56,2.07-4.63,4.63-4.63h0c2.56,0,4.63,2.07,4.63,4.63v2.02Z"/>
                </g>
                <rect class="cls-30" x="183.61" y="169.86" width="68.77" height="15.81" rx="7.3" ry="7.3"/>
                <text class="cls-16" transform="translate(177.91 102.79)"><tspan class="cls-23" x="0" y="0">USER </tspan><tspan class="cls-11" x="37.38" y="0">L</tspan><tspan class="cls-23" x="44.42" y="0">OGIN</tspan></text>
                <text class="cls-18" transform="translate(201.33 180.1)"><tspan x="0" y="0">SIGN IN</tspan></text>
                <path class="cls-15" d="M281.26,9.72h-134.59c-7.94,0-14.37,6.44-14.37,14.37v198.57L281.26,9.72Z"/>
              </g>
              <path class="cls-17" d="M307.31,215.49s-9.57,0-9.57,3.89-1.54,27.26,0,27.26,4.46-3.41,5.68-8.76c1.22-5.35,5.6-13.4,8.76-15.22,3.16-1.82-4.87-7.17-4.87-7.17Z"/>
              <path class="cls-17" d="M328.11,268.76s-1.19,9.1,4.59,10.65c6.32,1.69,9.16,3.02,10.39,4.53.98,1.2.15,3-1.39,3.05-6.42.21-25.19.65-26.46-1.16-3.28-4.62.89-10.73-.16-16-.63-3.18,13.04-1.07,13.04-1.07Z"/>
              <path class="cls-30" d="M314.45,154.07l-9.09,2.5s.97,17.62,9.09,50.39c0,0-3.89,23.37-2.92,35.05s2.92,31.38,2.92,31.38h15.25l9.26-80.06-7.63-32.45-16.88-6.82Z"/>
              <path class="cls-6" d="M314.45,154.07l-9.09,2.5s.97,17.62,9.09,50.39c0,0-3.89,23.37-2.92,35.05s2.92,31.38,2.92,31.38h15.25l9.26-80.06-7.63-32.45-16.88-6.82Z"/>
              <path class="cls-30" d="M317.54,143.33l-15.58,5.13s1.19,14.22,28.23,29.21c28.72,15.92,47.71,18.01,36.02-.97-11.68-18.99-36.02-35.26-36.02-35.26l-12.66,1.9Z"/>
              <path class="cls-30" d="M353.56,180.1s-14.36.58-25.56,9.34c-11.2,8.76-26.04,27.02-26.04,27.02l9.01,9.74s47.95-22.11,58.17-38.31l-15.58-7.78Z"/>
              <path class="cls-8" d="M321.87,172.56s13.92,7.28,20.49,6.57c6.57-.72,11.12-.26,15.25.97,0,0-8.65-.72-17.87,2.53,0,0-17.19-8.94-17.87-10.07Z"/>
              <path class="cls-10" d="M321.1,68.22l-4.85-10.39s-2.98,15.38-8.21,20.96c0,0,5.16,9.37,15.66,11.45,0,0-.93-10.43,3.47-15.68,4.4-5.26-6.08-6.33-6.08-6.33Z"/>
              <path class="cls-3" d="M321.1,68.22l-4.85-10.39s-2.98,15.38-8.21,20.96c0,0,5.16,9.37,15.66,11.45,0,0-.93-10.43,3.47-15.68,4.4-5.26-6.08-6.33-6.08-6.33Z"/>
              <ellipse class="cls-10" cx="329.41" cy="63.82" rx="13.61" ry="18.03"/>
              <path class="cls-3" d="M320.17,63.82c0-8.97,4.95-16.39,11.42-17.78-.71-.15-1.44-.25-2.19-.25-7.52,0-13.61,8.07-13.61,18.03s6.09,18.03,13.61,18.03c.75,0,1.47-.1,2.19-.25-6.47-1.39-11.42-8.81-11.42-17.78Z"/>
              <rect class="cls-29" x="367.84" y="91.5" width="2.76" height="21.97" rx=".99" ry=".99" transform="translate(219.96 -250.43) rotate(51.56)"/>
              <path class="cls-1" d="M309.09,77.57s7.48,9.41,13.81,6.88c7.88-3.15,16.31,39,16.06,58.98v5.13s-23.85,6.82-37,0c0,0-2.68-25.8-1.7-40.4s4.24-32.34,8.83-30.58Z"/>
              <path class="cls-2" d="M327.21,114.52s-18.46-15.74-18.03-11.72c3.49,33.13,26.1,46.67,26.1,46.67l3.69-.9-.13-10.73-11.62-23.31Z"/>
              <g>
                <path class="cls-10" d="M356.64,115.19s5.1-5.09,5.19-8.13c.09-3.05,1.34-5.72,5.56-5.07,4.97.76,11.92-6.95,9.66-1.85-2.4,5.42-5.65,4.77-13.7,19.62-2.37,4.37-6.71-4.56-6.71-4.56Z"/>
                <path class="cls-1" d="M317.73,87.75c2.82.15,5.41,1.62,7.19,3.81,1.53,1.89,3.79,4.86,6.26,8.79,2.55,4.04,5.33,9.09,7.79,14.99,6.83,16.37,10.55,32.01-2.11,25.47-12.65-6.54-19.36-17.63-25.32-30.26-5.08-10.79-2.77-23.26,6.18-22.8Z"/>
                <path class="cls-1" d="M334.74,128.84c4.69-6.22,4.95-1.62,22.97-17.59.59-.52,1.12-1.13,1.68-1.71l9.78,4.54s-12.28,26.59-25.37,28.01c-13.09,1.42-11.72-9.7-9.06-13.24Z"/>
              </g>
              <path class="cls-22" d="M328.25,57.83s.41-2.38,7.58,1.8,14.56-1.26,12.61-6c-1.38-3.36-5.6-3.04-4.38-6.21,1.17-3.04-2.27-7.34-6.69-7.67-4.42-.32-6.64,3.98-7.97.73-1.32-3.25-8.75-3.89-9.9,0-1.15,3.89-2.6,4.43-6.58,5.3-3.98.87-5.14,4.11-4.88,6.38.25,2.27.9,5.52-2.67,6.82-3.57,1.3-4,8.11-.38,9.41,3.62,1.3,1.15,1.76-2.42,4.46-4.02,3.04-.24,14.88,8.26,9.71,7.32-4.45-.92-10.53,4.97-11.58,5.09-.9,5.3-2.77,4.98-7.17-.21-2.98,3.57,1.03,7.47-5.99Z"/>
              <g class="cls-4">
                <path class="cls-22" d="M308.67,72.78c3.57-2.7,6.04-3.16,2.42-4.46s-3.19-8.11.38-9.41c3.57-1.3,2.92-4.54,2.67-6.82-.25-2.27.9-5.52,4.88-6.39,3.98-.87,5.43-1.4,6.58-5.3.26-.88.85-1.51,1.6-1.95-2.71-1.23-6.86-.8-7.7,2.03-1.15,3.89-2.6,4.43-6.58,5.3-3.98.87-5.14,4.11-4.88,6.38.25,2.27.9,5.52-2.67,6.82-3.57,1.3-4,8.11-.38,9.41,3.62,1.3,1.15,1.76-2.42,4.46-3.91,2.96-.44,14.23,7.57,10.1-3.36-2.19-4.15-8.14-1.47-10.17Z"/>
              </g>
              <path class="cls-2" d="M335.27,127.72s2.58-2.6,7.11-4.47l-1.2-2.15s-4.16,3.01-5.92,6.62Z"/>
            </g>
          </g>
          <g class="cls-13">
            <polygon class="cls-17" points="237.52 177.92 242.81 217.15 250.27 199.67 269.16 201.71 237.52 177.92"/>
            <polygon class="cls-17" points="248.58 191.51 260.94 212.99 256.37 215.22 243.51 192.04 248.58 191.51"/>
          </g>
        </g>
      </g>
    </g>
  </g>
</svg>