<svg width="136" height="32" viewBox="0 0 136 32" fill="none" xmlns="http://www.w3.org/2000/svg">
<path d="M109.843 0C109.751 0.0261222 109.673 0.0522445 109.582 0.0783667C109.163 0.195917 108.798 0.417956 108.536 0.757545C108.393 0.92734 108.432 1.07101 108.628 1.1755C108.758 1.22775 108.902 1.26693 108.928 1.46285C108.876 1.47591 108.811 1.50203 108.772 1.50203C108.419 1.47591 108.105 1.55427 107.792 1.69795C107.635 1.76325 107.452 1.84162 107.282 1.89386C107.099 1.95917 107.073 2.03754 107.217 2.18121C107.282 2.25957 107.374 2.31182 107.465 2.37712C107.517 2.41631 107.557 2.42937 107.609 2.46855C107.308 2.7559 107.008 2.8212 106.72 2.62529C106.734 2.5861 106.747 2.54692 106.76 2.49467C106.812 2.24651 106.72 2.15509 106.485 2.19427C106.407 2.20733 106.329 2.20733 106.211 2.20733C106.25 2.1159 106.25 2.0506 106.263 2.0506C106.472 1.90692 106.668 1.76325 106.943 1.75019C107.321 1.73713 107.622 1.51509 107.922 1.29305C107.988 1.24081 108.014 1.13632 108.04 1.04489C108.079 0.966523 108.066 0.875095 108.105 0.796729C108.536 0.2351 109.15 0.0261222 109.843 0Z" fill="#EB7124"/>
<path d="M105.549 2.26092C105.196 2.35235 104.843 2.44378 104.49 2.54827C104.425 2.57439 104.294 2.65276 104.308 2.67888C104.334 2.77031 104.386 2.90092 104.464 2.9401C104.647 3.00541 104.843 3.01847 105.052 3.07071C104.935 3.27969 104.726 3.43642 104.49 3.55397C104.373 3.60622 104.268 3.67152 104.281 3.8152C104.294 3.98499 104.36 4.10254 104.53 4.18091C105.144 4.45519 105.823 4.2854 106.228 3.73683C106.28 3.67152 106.319 3.59316 106.385 3.50173C106.502 3.73683 106.607 3.95887 106.711 4.16785C106.829 4.40295 106.907 4.42907 107.142 4.32458C107.208 4.2854 107.286 4.25928 107.338 4.20703C107.417 4.14173 107.443 4.06336 107.391 3.94581C107.325 3.78907 107.273 3.59316 107.208 3.4103C107.351 3.35806 107.469 3.30581 107.574 3.25357C107.691 3.18826 107.783 3.09684 107.926 2.97929C107.952 3.09684 107.952 3.18826 107.979 3.26663C108.005 3.33194 108.031 3.42336 108.07 3.43642C108.122 3.44949 108.227 3.39724 108.266 3.35806C108.331 3.29275 108.371 3.20132 108.423 3.09684C108.54 3.24051 108.54 3.37112 108.553 3.51479C108.58 3.98499 108.501 4.41601 108.227 4.80784C108.175 4.87315 108.175 4.96458 108.135 5.06906C108.553 5.09519 109.207 4.42907 109.324 3.8805C109.481 3.27969 109.324 2.71806 109.05 2.19562C109.076 2.18256 109.089 2.1695 109.102 2.1695C109.376 2.28705 109.599 2.18256 109.86 2.05195C110.043 1.97358 110.265 1.96052 110.474 1.96052C110.722 1.96052 110.787 2.11725 110.683 2.32623C110.605 2.49602 110.461 2.60051 110.291 2.69194C110.143 2.77031 110.095 2.88786 110.147 3.04459C110.147 3.05765 110.16 3.05765 110.16 3.07071C110.291 3.43642 110.343 3.47561 110.67 3.22745C110.879 3.07071 111.062 2.88786 111.219 2.67888C111.558 2.2348 111.166 1.45113 110.631 1.39889C110.422 1.37277 110.213 1.38583 109.99 1.38583C109.938 1.38583 109.899 1.38583 109.834 1.34664C109.886 1.32052 109.938 1.28134 109.99 1.26828C110.513 1.11154 111.01 1.12461 111.493 1.38583C111.663 1.47726 111.754 1.62093 111.806 1.81684C111.924 2.30011 111.819 2.73112 111.48 3.1099C111.219 3.38418 110.931 3.59316 110.605 3.76295C110.461 3.82826 110.409 3.91969 110.395 4.07642C110.343 4.83396 110.004 5.43478 109.416 5.90498C108.998 6.25763 108.527 6.50579 108.044 6.75395C107.678 6.94987 107.286 7.11966 106.907 7.32864C106.332 7.64211 105.758 7.9817 105.261 8.43884C105.248 8.42577 105.235 8.41271 105.209 8.38659C105.274 8.32128 105.34 8.24292 105.405 8.17761C106.006 7.60292 106.698 7.1066 107.391 6.6364C107.73 6.4013 108.07 6.1662 108.384 5.94416C108.475 5.87885 108.645 5.78743 108.553 5.66988C108.475 5.5262 108.318 5.65682 108.214 5.696C107.613 5.9311 107.025 6.1662 106.411 6.41436C106.202 6.49273 106.006 6.59722 105.81 6.68864C104.856 7.14578 104.294 7.94251 103.903 8.88291C103.328 10.3458 103.406 11.7825 104.046 13.1931C104.085 13.2715 104.098 13.3498 104.151 13.4282C104.177 13.4674 104.242 13.4935 104.294 13.4935C104.321 13.4935 104.347 13.4282 104.373 13.389V13.3629C104.321 12.5662 104.647 11.8608 104.974 11.1817C105.131 10.8551 105.327 10.5678 105.549 10.2674C105.536 10.3196 105.522 10.3719 105.496 10.4241C105.196 11.1686 105 11.9262 105 12.7621C105 13.7808 105.34 14.6821 105.993 15.4788C106.15 15.6616 106.306 15.8445 106.463 16.0273C106.502 16.0665 106.528 16.1057 106.568 16.1188C106.62 16.1318 106.698 16.1318 106.724 16.1057C106.751 16.0796 106.751 15.9882 106.724 15.949C106.502 15.7008 106.424 15.3874 106.319 15.1C106.058 14.3294 105.967 13.5588 106.058 12.7621C106.123 12.2004 106.332 11.678 106.607 11.1947C106.881 10.6853 107.221 10.2151 107.626 9.79719C107.887 9.53597 108.122 9.26169 108.384 9.00046C108.436 8.93516 108.514 8.86985 108.606 8.83067C108.423 9.10495 108.227 9.40536 108.031 9.6927C107.6 10.3719 107.338 11.1294 107.221 11.9262C107.142 12.4617 107.208 12.9841 107.338 13.5066C107.391 13.7025 107.456 13.8853 107.508 14.0812C107.521 14.1335 107.547 14.1727 107.574 14.2119C107.6 14.238 107.652 14.251 107.678 14.238C107.717 14.2119 107.743 14.1727 107.743 14.1335C107.743 14.0551 107.717 13.9768 107.691 13.8984C107.574 13.4412 107.613 12.9972 107.717 12.5531C107.848 12.0045 108.07 11.4951 108.357 11.0249C108.867 10.176 109.52 9.4576 110.265 8.83067C111.166 8.07312 111.793 7.15884 112.146 6.04865C112.172 5.95722 112.198 5.86579 112.211 5.77437C112.238 5.696 112.264 5.61763 112.342 5.53927C112.329 5.696 112.329 5.85273 112.303 6.00947C112.211 6.72783 112.042 7.42007 111.78 8.09925C111.741 8.19067 111.676 8.2821 111.637 8.38659C111.61 8.4519 111.624 8.53026 111.624 8.59557C111.702 8.58251 111.793 8.60863 111.859 8.55639C111.976 8.49108 112.068 8.38659 112.172 8.29516C112.786 7.7466 113.296 7.11966 113.609 6.36212C114.263 4.76866 114.158 3.21439 113.23 1.75154C112.865 1.17685 112.368 0.719711 111.78 0.353999C111.715 0.314816 111.65 0.275632 111.597 0.197266C111.65 0.210327 111.715 0.197266 111.754 0.236449C112.12 0.419305 112.473 0.60216 112.825 0.811138C113.283 1.07236 113.701 1.38583 114.067 1.75154C114.837 2.50908 115.321 3.39724 115.595 4.41601C115.778 5.09519 115.856 5.81355 115.778 6.50579C115.66 7.72047 115.255 8.81761 114.354 9.67964C114.223 9.81025 114.223 9.84944 114.328 10.0062C114.589 10.4111 115.007 10.6331 115.464 10.7507C116.118 10.9204 116.771 10.9335 117.45 10.9074C118.169 10.8682 118.861 10.7507 119.554 10.5417C119.606 10.5286 119.645 10.5286 119.684 10.5286C119.697 10.5547 119.697 10.5678 119.697 10.5809C119.436 10.6853 119.162 10.7898 118.9 10.8813C117.803 11.247 116.692 11.4298 115.53 11.26C114.785 11.1686 114.119 10.8943 113.544 10.3849C113.387 10.2413 112.995 10.2151 112.825 10.3327C112.747 10.3849 112.747 10.4633 112.786 10.5286C113.008 10.8943 113.257 11.2339 113.662 11.4298C113.871 11.5343 114.093 11.6127 114.302 11.6911C114.38 11.7302 114.472 11.7564 114.563 11.8217C114.315 11.8608 114.08 11.7955 113.844 11.7433C113.113 11.5604 112.46 11.2078 111.898 10.6984C111.715 10.5417 111.558 10.5417 111.349 10.6331C110.67 10.9466 110.056 11.3253 109.546 11.8739C109.024 12.4355 108.671 13.0625 108.58 13.8331C108.501 14.5253 108.671 15.1392 109.063 15.7269C109.167 15.8837 109.285 16.0404 109.403 16.1971C109.429 16.2363 109.455 16.2755 109.481 16.2755C109.533 16.2886 109.599 16.2886 109.664 16.2886C109.664 16.2363 109.69 16.171 109.664 16.1318C109.298 15.5702 109.337 14.9433 109.442 14.3425C109.533 13.7678 109.873 13.2976 110.317 12.8404C110.239 13.0494 110.16 13.2061 110.108 13.3498C109.873 13.9768 109.925 14.5776 110.252 15.1653C110.722 15.9882 111.428 16.4975 112.342 16.7326C112.394 16.7457 112.46 16.7588 112.512 16.7588C112.721 16.7588 112.76 16.6804 112.682 16.4975C112.629 16.3278 112.59 16.1449 112.538 15.9751C112.42 15.5049 112.29 15.0478 112.172 14.5776C112.159 14.5384 112.172 14.5123 112.159 14.46C112.512 14.7212 113.152 16.38 113.257 17.2551C112.891 17.5033 112.473 17.3596 112.042 17.3857C112.081 17.4771 112.094 17.5424 112.12 17.6208C112.656 18.5743 113.034 19.593 113.257 20.664C113.322 21.0167 113.374 21.3693 113.413 21.722C113.439 21.9702 113.453 22.1922 113.609 22.4012C113.648 22.4404 113.648 22.5057 113.662 22.584C112.878 22.793 112.538 23.3155 112.525 24.0861C112.238 24.2167 112.146 24.1644 112.133 23.8771C112.12 23.6942 112.146 23.5114 112.159 23.3285C112.159 23.2371 112.133 23.1457 112.12 23.015C112.029 23.0804 111.963 23.1065 111.924 23.1587C111.728 23.4199 111.558 23.6942 111.532 24.0208C111.519 24.1775 111.454 24.2297 111.31 24.2167H111.166C108.606 24.2167 106.032 24.2297 103.471 24.2297H102.06C102.008 24.2297 101.943 24.2167 101.891 24.1775C101.943 24.1514 101.982 24.1252 102.034 24.1252C102.779 23.9424 103.537 23.7595 104.268 23.5506C104.477 23.4983 104.53 23.433 104.556 23.211C104.621 22.6755 105.091 22.2444 105.64 22.2183H105.993C106.176 22.2053 106.254 22.1661 106.306 21.9702C106.385 21.6306 106.463 21.291 106.542 20.9645C106.594 20.7163 106.659 20.4812 106.711 20.2461C106.764 20.0241 106.816 19.8151 106.855 19.593C106.907 19.1881 106.973 18.7702 107.025 18.3653C107.051 18.1955 106.96 18.1041 106.816 18.0257C106.463 17.8167 106.123 17.6077 105.797 17.3726C104.739 16.602 103.903 15.6486 103.406 14.4208C102.936 13.2453 102.818 12.0176 102.988 10.7637C103.119 9.88862 103.406 9.09189 103.863 8.33435C104.543 7.23721 105.483 6.44048 106.633 5.86579C106.737 5.81355 106.907 5.80049 106.894 5.64375C106.881 5.47396 106.711 5.48702 106.581 5.43478C106.019 5.26498 105.457 5.18661 104.869 5.30416C104.477 5.38253 104.138 5.30416 103.903 4.93845C103.772 4.7556 103.746 4.54662 103.785 4.32458C103.837 4.02417 103.837 3.74989 103.785 3.43642C103.746 3.21439 103.785 2.96622 103.811 2.74418C103.824 2.67888 103.876 2.57439 103.942 2.54827C104.438 2.36541 104.948 2.24786 105.47 2.19562C105.549 2.2348 105.549 2.24786 105.549 2.26092ZM109.324 23.4983H110.97C111.179 23.4983 111.258 23.4461 111.271 23.2632C111.284 23.0673 111.388 22.9367 111.493 22.8061C111.819 22.4273 112.251 22.2183 112.747 22.153C112.825 22.14 112.917 22.14 113.008 22.1138C113.152 22.0616 113.178 21.9963 113.152 21.8526C113.126 21.7742 113.1 21.6959 113.087 21.5914C112.891 20.4681 112.355 19.4885 111.702 18.5743C111.637 18.4828 111.558 18.4437 111.441 18.4567C110.931 18.509 110.409 18.5743 109.899 18.6135C109.768 18.6265 109.677 18.6657 109.638 18.7832C109.612 18.8355 109.599 18.8877 109.585 18.94C109.194 20.011 108.749 21.0559 108.201 22.0485C108.005 22.4142 107.756 22.7669 107.534 23.1326C107.417 23.3155 107.469 23.4461 107.691 23.4591C107.756 23.4722 107.835 23.4591 107.887 23.4591C108.357 23.4983 108.854 23.4983 109.324 23.4983ZM104.216 4.44213C104.138 4.67723 104.216 4.8209 104.373 4.93845C104.53 5.056 104.739 5.08213 104.922 4.9907C104.961 4.97764 104.974 4.84703 104.961 4.83396C104.752 4.63805 104.517 4.49438 104.216 4.44213Z" fill="#EB7124"/>
<path d="M19.8969 9.05165H17.8981C17.885 9.02553 17.885 8.9994 17.885 8.98634C17.9242 8.94716 17.9504 8.90797 17.9896 8.89491C18.0418 8.88185 18.1202 8.88185 18.1855 8.88185H21.7521C21.8566 8.88185 21.9872 8.82961 22.0656 9.02552C21.739 9.09083 21.4255 9.05165 21.1119 9.06471C20.8114 9.07777 20.4979 9.06471 20.1582 9.06471C18.2378 14.1847 16.3173 19.2785 14.3969 24.3854H13.7567C12.8683 21.943 11.98 19.5005 11.0916 17.0581L11.0393 17.0451C10.6997 17.8418 10.4123 18.6516 10.0987 19.4744C9.7721 20.2842 9.47162 21.1071 9.15808 21.9169C8.84454 22.7266 8.53099 23.5495 8.20439 24.3723H7.25069C5.38249 19.2785 3.52736 14.1716 1.67223 9.03859H0C0.0783859 8.94716 0.104514 8.89491 0.143707 8.88185C0.222093 8.85573 0.313543 8.86879 0.404994 8.86879H16.7223C16.8399 8.86879 16.9705 8.82961 17.0881 8.96022C16.8791 9.11695 16.6831 9.02552 16.4872 9.03859C16.3043 9.05165 16.1083 9.03859 15.9123 9.03859H15.2591C15.2069 9.14307 15.1677 9.2345 15.1285 9.33899C14.5667 10.841 14.018 12.3561 13.4432 13.8581C13.3779 14.0279 13.3648 14.1847 13.4301 14.3545C14.1225 16.2875 14.828 18.2336 15.5073 20.1797C15.5335 20.232 15.5596 20.3103 15.5857 20.3756C15.7556 20.1928 19.8577 9.33899 19.8969 9.05165ZM5.36943 9.06471C6.72812 12.8524 8.08681 16.601 9.4455 20.3756C9.53695 20.2842 9.5892 20.1928 9.61533 20.0883C10.0203 19.0303 10.4123 17.9855 10.8172 16.9275C10.8826 16.7446 10.8826 16.5879 10.8172 16.4051C9.94194 14.0541 9.09276 11.6769 8.23051 9.32593C8.19132 9.2345 8.16519 9.15614 8.126 9.06471C8.15213 9.06471 5.36943 9.06471 5.36943 9.06471ZM15.0501 9.06471H11.5619C12.1367 10.6582 12.6854 12.2124 13.2472 13.7798H13.2995C13.8874 12.2124 14.4622 10.6451 15.0501 9.06471Z" fill="#01004C"/>
<path d="M79.3695 9.01398C78.9776 9.07929 78.5857 9.01398 78.1807 9.05316C78.1154 9.2752 78.1023 23.6947 78.1676 24.0212C78.3636 24.0212 78.5857 24.0081 78.7947 24.0212C78.9907 24.0343 79.1866 23.969 79.3957 24.0865C79.3434 24.1257 79.3303 24.1649 79.3042 24.1649C79.2389 24.1779 79.1605 24.1779 79.1082 24.1779H74.0132C73.9217 24.1779 73.8041 24.2302 73.7257 24.0865C73.8564 23.9428 74.0132 24.0343 74.1699 24.0212C74.3267 24.0081 74.4965 24.0212 74.6533 24.0212H75.0975C75.1236 23.9951 75.1367 23.982 75.1367 23.982C75.1367 23.982 75.1498 23.969 75.1498 23.9559C75.1498 23.8775 75.1628 23.7992 75.1628 23.7208C75.1628 19.0188 75.1628 14.3299 75.1106 9.62785C75.0714 9.73234 75.0322 9.84989 74.993 9.95438C73.5037 14.6694 72.0143 19.3715 70.525 24.0865C70.4989 24.1388 70.4858 24.2171 70.4597 24.2694C70.4335 24.3086 70.4074 24.3477 70.3682 24.3477C70.329 24.3477 70.2768 24.3086 70.2637 24.2824C70.2245 24.2171 70.2115 24.1388 70.1853 24.0604C69.0226 20.547 67.8729 17.0466 66.7102 13.5201C66.3052 12.2923 65.9002 11.0776 65.4952 9.83683C65.4691 9.77153 65.443 9.69316 65.4299 9.62785C65.4038 9.62785 65.3907 9.61479 65.3907 9.61479C65.3777 9.61479 65.3777 9.62785 65.3777 9.64091C65.3777 9.65398 65.3646 9.65398 65.3646 9.66704V23.7731C65.3646 23.8253 65.3777 23.8906 65.3907 23.982C65.5083 23.982 65.6259 23.9951 65.7304 23.9951H66.5404C66.6188 23.9951 66.7102 23.969 66.7886 24.1257C66.7102 24.1388 66.6318 24.1649 66.5404 24.1649C65.1164 24.2171 64.0712 24.1779 63.8753 24.0735C63.9536 24.0473 64.019 24.0082 64.0582 24.0082C64.3194 23.9951 64.6069 24.0082 64.8681 24.0082H65.1686V9.06622C64.7114 9.00092 64.2541 9.09235 63.8099 9.01398C63.8099 8.98786 63.7969 8.96174 63.7969 8.96174C63.8361 8.93561 63.8753 8.90949 63.9275 8.89643C63.9667 8.88337 64.0059 8.89643 64.0451 8.89643H68.0166C68.0689 8.89643 68.1081 8.90949 68.1734 8.90949C69.3623 12.4491 70.5511 15.9886 71.753 19.5151H71.8184C72.9419 15.9756 74.0654 12.4491 75.202 8.90949H79.3565C79.3826 8.90949 79.4087 8.93561 79.4218 8.96174C79.3826 8.96174 79.3826 8.98786 79.3695 9.01398Z" fill="#01004C"/>
<path d="M56.2815 17.1858C56.3207 17.0421 56.3468 16.9115 56.4121 16.7809C56.5558 16.4282 56.6734 16.0756 56.8694 15.7621C57.3266 14.9915 58.0452 14.6127 58.9205 14.5605C59.2863 14.5344 59.6782 14.5605 60.0309 14.6519C60.7887 14.8348 61.2851 15.305 61.5464 16.0233C61.7032 16.4674 61.7816 16.9115 61.7816 17.3817C61.7946 18.2699 61.7816 19.1319 61.7946 20.02V23.9906C62.0037 24.0821 62.1996 24.0168 62.3956 24.0429C62.5785 24.069 62.7614 23.9906 62.9704 24.0951C62.9312 24.1474 62.9182 24.1735 62.879 24.1865C62.8267 24.1996 62.7614 24.1996 62.7091 24.1996H58.4632C58.3848 24.1996 58.3065 24.1735 58.2281 24.1343C58.4894 23.9645 58.8029 24.0951 59.0903 24.0167C59.1034 23.9645 59.1164 23.8992 59.1164 23.8339C59.1164 21.6004 59.1164 19.367 59.1034 17.1335C59.1034 16.7678 59.0511 16.4282 59.0119 16.0625C59.0119 16.0364 58.9989 16.0103 58.9989 15.9842C58.8552 15.305 58.4894 15.096 57.81 15.305C57.4442 15.4225 57.1829 15.6707 56.9739 15.9842C56.6473 16.4674 56.4905 17.016 56.3991 17.5776C56.3207 18.1784 56.2423 18.8054 56.2292 19.4062C56.2031 20.856 56.2162 22.3188 56.2162 23.7686C56.2162 23.847 56.2292 23.9253 56.2292 24.0037C56.5166 24.0951 56.8171 23.9776 57.1437 24.0951C57.0784 24.1474 57.0262 24.1865 56.987 24.1996C56.9347 24.2127 56.8694 24.1996 56.8171 24.1996H52.6496C52.5582 24.1996 52.4536 24.1735 52.3622 24.1604V24.0951C52.4145 24.069 52.4667 24.0429 52.519 24.0429C52.7541 24.0298 52.9893 24.0429 53.2114 24.0429H53.5119V9.03564C53.3028 9.03564 53.1069 9.0487 52.9109 9.03564C52.728 9.02258 52.5451 9.08788 52.2969 8.95727C52.4275 8.90503 52.4667 8.87891 52.532 8.87891H56.0986C56.1247 8.87891 56.1508 8.89197 56.2162 8.91809C56.2292 9.4536 56.2162 10.0022 56.2162 10.5377V17.1858H56.2815Z" fill="#01004C"/>
<path d="M118.38 14.7076C118.053 15.1778 117.596 15.4782 117.087 15.7002C116.577 15.9353 116.041 16.1051 115.493 16.2227C115.427 16.2488 115.323 16.2749 115.297 16.3402C115.258 16.4578 115.362 16.51 115.453 16.5492C115.715 16.6145 115.989 16.7059 116.263 16.7321C117.126 16.7974 117.897 16.5361 118.654 16.1574C119.059 15.9484 119.438 15.6872 119.752 15.3737C120.013 15.0994 120.222 14.786 120.326 14.4072C120.418 14.0807 120.509 13.7541 120.601 13.4407C120.64 13.3231 120.692 13.2186 120.758 13.0488C120.81 13.3362 120.836 13.5713 120.901 13.8064C121.019 14.2896 121.267 14.7076 121.568 15.1125C122.26 16.0398 123.135 16.7843 124.167 17.3198C124.337 17.4112 124.533 17.4765 124.729 17.5419C124.794 17.568 124.899 17.5419 124.977 17.5027C125.069 17.4504 125.017 17.3459 124.99 17.2676C124.742 16.4055 124.389 15.6088 123.958 14.8251C123.945 14.8121 123.958 14.786 123.958 14.7598C124.089 14.7468 124.115 14.8513 124.167 14.9166C124.494 15.3737 124.834 15.8178 125.108 16.301C125.474 16.9149 125.853 17.5157 126.297 18.0774C126.728 18.6129 126.924 19.2267 126.95 19.8929C126.976 20.4414 126.95 20.99 126.937 21.5386C126.924 21.8781 126.95 21.9043 127.224 22.061C127.277 22.1002 127.342 22.1394 127.42 22.2047C127.355 22.2439 127.329 22.27 127.29 22.283C126.859 22.3875 126.623 22.701 126.506 23.0928C126.427 23.3802 126.388 23.6936 126.336 24.0202C126.284 24.0332 126.232 24.0463 126.166 24.0463C126.023 24.0594 125.944 23.9941 125.944 23.8504C125.957 23.5761 125.97 23.2887 125.983 23.0145C125.983 22.9883 126.009 22.9622 126.009 22.9361C125.996 22.8839 125.983 22.7794 125.944 22.7663C125.905 22.7402 125.8 22.7794 125.787 22.8185C125.657 23.0275 125.526 23.2496 125.448 23.4847C125.395 23.6414 125.382 23.8243 125.343 24.0332C125.252 24.0463 125.134 24.0594 125.03 24.0594H114.761C114.683 24.0594 114.604 24.0463 114.526 24.0463C114.826 23.1843 114.957 22.3353 114.879 21.4341C114.8 20.5459 114.408 19.7492 113.99 18.9655C114.016 18.9525 114.029 18.9394 114.043 18.9263C114.095 18.9786 114.16 19.0047 114.199 19.07C114.408 19.3312 114.604 19.5794 114.8 19.8537C114.826 19.8929 114.839 19.919 114.866 19.9451C114.918 19.9712 114.983 19.9973 115.022 19.9843C115.062 19.9712 115.075 19.8929 115.075 19.8406C115.048 19.71 114.996 19.5794 114.983 19.4488C114.8 17.8945 114.369 16.3925 113.86 14.9166C113.834 14.8382 113.807 14.7598 113.781 14.6292C113.873 14.6815 113.925 14.6945 113.951 14.7337C114.134 14.9035 114.33 15.0864 114.513 15.2823C114.67 15.4651 114.879 15.5435 115.127 15.5696C116.081 15.648 116.995 15.5174 117.87 15.1125C118.014 14.9558 118.197 14.8121 118.38 14.7076ZM117.191 23.3279C117.4 23.341 117.622 23.341 117.831 23.341C117.936 23.341 118.04 23.3671 118.145 23.3671C118.367 23.3802 118.589 23.3802 118.811 23.3802C119.072 23.3802 119.138 23.3018 119.177 23.0275C119.177 22.9753 119.19 22.9361 119.203 22.8839C119.425 22.3353 119.778 21.9435 120.405 21.9304C120.431 21.9304 120.457 21.9173 120.483 21.9173C120.64 21.8912 120.745 21.8128 120.823 21.6692C121.097 21.0945 121.398 20.5198 121.489 19.8537C121.541 19.488 121.463 19.1745 121.215 18.9263C120.98 18.6912 120.745 18.4692 120.496 18.2472C120.039 17.8292 119.608 17.3982 119.307 16.8496C119.255 16.7321 119.164 16.6929 119.046 16.7582C118.994 16.7843 118.942 16.7974 118.889 16.8104C117.818 17.2153 116.721 17.568 115.61 17.8292C115.375 17.8814 115.349 17.9076 115.375 18.1296C115.453 18.8741 115.519 19.6316 115.623 20.3631C115.715 21.0422 115.663 21.6822 115.506 22.3353C115.453 22.5443 115.414 22.7532 115.362 22.9492C115.31 23.1973 115.349 23.2626 115.623 23.2757H115.741C116.224 23.3279 116.708 23.3279 117.191 23.3279ZM123.031 17.3459C122.992 17.5027 123.083 17.568 123.135 17.6463C123.292 17.9076 123.449 18.1688 123.593 18.4431C123.723 18.7043 123.789 19.0047 123.684 19.3051C123.488 19.8406 123.318 20.3892 123.122 20.9116C122.861 21.6039 122.56 22.3092 122.169 22.9492C122.025 23.1712 122.103 23.2887 122.364 23.3018C123.122 23.3149 123.867 23.3279 124.612 23.3279C124.847 23.3279 124.912 23.2757 124.951 23.0275C124.977 22.7924 125.082 22.5965 125.252 22.4528C125.408 22.3092 125.591 22.1916 125.774 22.0871C125.944 22.0088 126.14 21.9696 126.323 21.9043C126.545 21.8259 126.558 21.7998 126.519 21.5647C126.506 21.4733 126.506 21.3688 126.493 21.2773C126.441 20.8071 126.401 20.3631 126.323 19.9059C126.232 19.3835 125.957 18.9786 125.474 18.7304C125.395 18.6782 125.317 18.639 125.213 18.5867C124.507 18.1949 123.775 17.8553 123.122 17.359C123.122 17.359 123.096 17.359 123.031 17.3459Z" fill="#EB7124"/>
<path d="M90.4529 22.7779C90.5966 22.8563 90.5444 22.9347 90.5052 23C90.2961 23.431 89.9957 23.7706 89.5907 24.0057C89.2379 24.2147 88.846 24.3583 88.441 24.3583C88.0621 24.3714 87.6571 24.3714 87.2913 24.3061C86.403 24.1493 85.9327 23.5747 85.8935 22.6865C85.8935 22.6081 85.8935 22.5167 85.8412 22.4253C85.802 22.5167 85.7628 22.5951 85.7367 22.6865C85.5015 23.3134 85.1357 23.8359 84.5087 24.1102C83.7379 24.4759 82.9409 24.5151 82.144 24.2277C81.2426 23.9012 80.7461 23.222 80.6416 22.2816C80.5894 21.942 80.6024 21.5894 80.6677 21.2498C80.8115 20.4661 81.2687 19.9175 81.9611 19.5388C82.5621 19.1992 83.2153 19.0555 83.8946 19.0163C84.4303 18.9771 84.979 18.9902 85.5146 18.9771H85.8412C85.8673 18.938 85.8935 18.9249 85.8935 18.9118C85.9196 18.0367 85.9457 17.1616 85.7367 16.2996C85.6583 15.9731 85.5407 15.6727 85.3448 15.4115C85.0835 15.0457 84.7307 14.8368 84.2604 14.8368C83.6856 14.8368 83.163 14.9674 82.6535 15.2025C82.6013 15.2286 82.549 15.2547 82.4968 15.2808C82.4837 15.2939 82.4706 15.307 82.4445 15.3461H82.8756C83.6464 15.3723 84.2343 15.9208 84.2996 16.6653C84.3127 16.7959 84.2996 16.9265 84.2735 17.031C84.1559 17.8147 83.3721 18.3633 82.5229 18.2718C81.739 18.1935 81.2295 17.5535 81.2426 16.7568C81.2556 16.2996 81.4385 15.9208 81.7651 15.5943C82.2355 15.111 82.8495 14.8498 83.4896 14.7062C84.4564 14.4972 85.4232 14.5233 86.3768 14.7584C87.6833 15.098 88.441 16.0123 88.5455 17.3445C88.5717 17.6449 88.5847 17.9323 88.5847 18.2327V23C88.5847 23.1175 88.5847 23.2351 88.5978 23.3526C88.65 23.7967 88.9897 24.0187 89.4078 23.8489C89.5645 23.7836 89.7474 23.6922 89.8781 23.5616C90.0479 23.3918 90.1916 23.1828 90.3484 22.9869C90.3615 22.9347 90.3876 22.8563 90.4529 22.7779ZM85.8151 19.1208C85.6191 19.1208 85.397 19.1078 85.1749 19.1208C84.7307 19.1469 84.378 19.3429 84.1037 19.6824C83.9469 19.8784 83.8162 20.0873 83.7248 20.3224C83.4504 20.9494 83.4374 21.6155 83.5158 22.2816C83.555 22.569 83.6333 22.8563 83.7901 23.0914C83.9991 23.4179 84.2866 23.5355 84.6654 23.444C84.9267 23.3918 85.1357 23.222 85.2925 23.013C85.4885 22.7649 85.6061 22.4775 85.6714 22.1771C85.9327 21.1845 85.8673 20.1657 85.8412 19.16C85.8673 19.16 85.8543 19.16 85.8151 19.1208Z" fill="#01004C"/>
<path d="M38.0821 22.8149C38.056 22.8933 38.0298 22.9847 38.0037 23.0631C37.7163 23.6377 37.2329 24.0296 36.6189 24.2255C35.9787 24.4345 35.3255 24.4345 34.6854 24.2647C33.8884 24.0557 33.4835 23.5202 33.4312 22.6973C33.4312 22.5929 33.4312 22.4884 33.3789 22.3578C33.3528 22.41 33.3267 22.4622 33.3006 22.5145C33.2483 22.6451 33.2091 22.7757 33.1438 22.8802C32.7519 23.7553 32.0594 24.2124 31.1319 24.33C30.7138 24.3822 30.2827 24.3822 29.8646 24.2777C28.8587 24.0165 28.1663 23.1545 28.101 22.0573C28.0226 20.8035 28.5843 19.8761 29.734 19.3668C30.2566 19.1317 30.8183 19.001 31.3801 18.988C31.9419 18.9488 32.4906 18.9619 33.0523 18.9488H33.392C33.392 18.5439 33.4051 18.1782 33.392 17.8255C33.3789 17.2639 33.3397 16.7153 33.183 16.1668C33.0915 15.8664 32.9739 15.566 32.778 15.3047C32.5167 14.9782 32.2032 14.8215 31.7851 14.8084C31.158 14.7954 30.5832 14.9521 30.0345 15.2394C29.9822 15.2656 29.943 15.2917 29.8646 15.3439C30.0998 15.3439 30.2696 15.3309 30.4395 15.3439C31.0143 15.3962 31.4585 15.6835 31.6806 16.2321C31.9027 16.7676 31.8112 17.277 31.4324 17.7211C31.0143 18.2174 30.2566 18.4133 29.6425 18.1913C28.8848 17.93 28.5321 17.068 28.8195 16.2582C28.9632 15.8533 29.2376 15.5529 29.5903 15.3047C30.0737 14.9521 30.6354 14.7562 31.2103 14.6648C32.0464 14.5211 32.8825 14.5341 33.7055 14.7301C35.1949 15.0827 35.9787 16.0231 36.0441 17.5513C36.0571 17.7602 36.0571 17.9823 36.0571 18.1913V23.3373C36.1094 23.8337 36.4882 24.0688 36.9455 23.8467C37.1415 23.7553 37.3113 23.6116 37.4811 23.4679C37.6248 23.3243 37.7163 23.1414 37.8339 22.9847C37.8861 22.9324 37.9123 22.8671 37.9514 22.8149C38.0168 22.8018 38.0429 22.8018 38.0821 22.8149ZM33.3789 19.1186C33.1438 19.1186 32.9348 19.1055 32.7257 19.1186C32.2815 19.1447 31.9288 19.3406 31.6545 19.6802C31.5107 19.85 31.3801 20.0459 31.2887 20.2549C30.9359 21.0386 30.9229 21.8614 31.158 22.6843C31.2103 22.841 31.2756 22.9978 31.367 23.1284C31.5499 23.4026 31.8374 23.5071 32.164 23.4549C32.5036 23.3896 32.7388 23.1806 32.9086 22.9063C33.1307 22.5537 33.2483 22.1749 33.3136 21.77C33.4573 20.9341 33.4181 20.0721 33.4181 19.2231C33.4181 19.197 33.4051 19.1708 33.3789 19.1186Z" fill="#01004C"/>
<path d="M40.2211 9.01142H38.771C38.7579 9.01142 38.7449 8.98529 38.7188 8.94611C38.771 8.91999 38.8363 8.8808 38.8755 8.8808C39.1368 8.86774 39.372 8.8808 39.6333 8.8808H42.9385V24.0317H43.7485C43.9967 24.0448 44.2319 23.9925 44.4801 24.1231C44.4279 24.1493 44.4017 24.1754 44.3495 24.1884C44.2841 24.2015 44.2058 24.1884 44.1535 24.1884H39.0584C38.9539 24.1884 38.8363 24.1623 38.7318 24.1623C38.7318 24.1362 38.7318 24.1101 38.7188 24.084C38.771 24.0709 38.8494 24.0317 38.9016 24.0317H40.195C40.2211 24.0056 40.2342 23.9925 40.2342 23.9925C40.2342 23.9925 40.2473 23.9795 40.2473 23.9664C40.2473 23.9142 40.2603 23.8489 40.2603 23.7966V9.16815C40.2603 9.12897 40.2473 9.08978 40.2211 9.01142Z" fill="#01004C"/>
<path d="M26.6014 18.915H21.0752C21.0622 18.9672 21.036 18.9934 21.036 19.0325C21.023 20.0774 21.0491 21.1093 21.2843 22.1411C21.3757 22.546 21.5064 22.9378 21.7154 23.3035C22.0812 23.9305 22.6168 24.1917 23.3354 24.1133C24.3805 24.0088 25.1905 23.5125 25.7914 22.6766C26.0789 22.2848 26.2748 21.8537 26.4316 21.3835C26.4577 21.3182 26.4839 21.2399 26.51 21.1615C26.6668 21.2268 26.6014 21.3444 26.5753 21.4227C26.4185 21.9582 26.1703 22.4676 25.8176 22.9117C25.1644 23.7345 24.3152 24.2047 23.2831 24.3223C22.3686 24.4398 21.4672 24.3615 20.631 23.9827C19.5728 23.5125 18.8282 22.7288 18.4362 21.6448C17.9006 20.1689 17.8875 18.6799 18.4493 17.204C19.0372 15.6497 20.213 14.7877 21.846 14.5656C22.5254 14.4742 23.2178 14.5003 23.871 14.7093C25.2819 15.1534 26.105 16.1721 26.4447 17.5697C26.5361 17.9223 26.5492 18.2881 26.5884 18.6668C26.6276 18.7452 26.6145 18.8105 26.6014 18.915ZM21.036 18.7583C21.9767 18.7583 22.865 18.7713 23.7795 18.7452C23.7926 17.8962 23.7534 17.1126 23.6228 16.3158C23.5575 15.924 23.466 15.5322 23.257 15.1926C22.9042 14.5918 22.2641 14.5264 21.846 15.062C21.6893 15.2579 21.5586 15.506 21.4802 15.7411C21.1275 16.7077 21.0622 17.7003 21.036 18.7583Z" fill="#01004C"/>
<path d="M101.182 24.085C101.13 24.1241 101.104 24.1633 101.051 24.1633C100.986 24.1764 100.908 24.1764 100.855 24.1764H96.4397C96.3352 24.1764 96.2046 24.2286 96.1131 24.0588C96.4789 23.9543 96.8317 24.0588 97.2236 23.9935C97.0276 23.5886 96.7925 23.2099 96.5835 22.8311C96.3744 22.4523 96.1393 22.0474 95.9302 21.6686C95.7081 21.2899 95.4991 20.898 95.2509 20.4801C94.3625 21.6687 93.5133 22.805 92.6119 23.9805C92.7426 23.9935 92.8079 24.0066 92.8732 24.0066H94.1535C94.2449 24.0066 94.3233 24.0327 94.4278 24.0458C94.3625 24.2156 94.2319 24.1764 94.1404 24.1764H91.2271C91.1748 24.1764 91.1226 24.1372 91.0703 24.1241V24.0588C91.1356 24.0458 91.214 24.0197 91.2793 24.0197H92.2069C92.3245 24.0197 92.4029 23.9935 92.4682 23.9021C93.3566 22.7135 94.2319 21.5511 95.1202 20.3625C95.1202 20.3495 95.1333 20.3364 95.1464 20.3103C95.1202 20.258 95.0941 20.1797 95.0549 20.1274C94.1143 18.4687 93.1737 16.8099 92.2461 15.1511C92.1546 14.9944 92.0632 14.903 91.8672 14.916C91.7105 14.9291 91.5406 14.9291 91.3839 14.916C91.3185 14.916 91.2402 14.8899 91.1618 14.8638C91.2271 14.7071 91.3316 14.7463 91.4231 14.7463H96.087C96.1915 14.7463 96.283 14.7593 96.3875 14.7593C96.3875 14.7854 96.4006 14.8116 96.4006 14.8246C96.3483 14.8507 96.296 14.8899 96.2438 14.8899C96.0217 14.903 95.7996 14.8899 95.5775 14.8899H95.2509C95.3031 15.112 96.7141 17.6066 96.9623 17.907C97.72 16.9144 98.4517 15.9348 99.2094 14.916C98.6999 14.8899 98.2426 14.8638 97.7984 14.8377C97.7984 14.8377 97.7854 14.7985 97.7723 14.7724C97.8246 14.7593 97.8899 14.7332 97.9421 14.7332C98.9742 14.6809 100.699 14.7201 100.908 14.7854C100.895 14.916 100.79 14.8899 100.712 14.8899C100.372 14.8899 100.032 14.903 99.7058 14.8899C99.4968 14.8769 99.3662 14.9552 99.2486 15.125C98.5692 16.0393 97.8899 16.9405 97.2105 17.8548C97.1583 17.9332 97.093 18.0246 97.0276 18.116C97.2105 18.4295 97.3934 18.743 97.5633 19.0434C98.4516 20.6107 99.3662 22.165 100.255 23.7323C100.372 23.9282 100.49 24.0066 100.712 23.9935C100.842 24.0066 101.012 23.9543 101.182 24.085Z" fill="#01004C"/>
<path d="M49.2061 14.7471H50.1989C50.5125 14.7471 50.826 14.721 51.1526 14.7732C51.1004 14.93 50.9959 14.9169 50.8913 14.9169H49.2191C49.2061 15.0083 49.1799 15.0736 49.1799 15.1651V22.5315C49.1799 22.7797 49.2061 23.0279 49.2583 23.276C49.3628 23.7462 49.6502 23.8899 50.1075 23.7332C50.3688 23.6417 50.5778 23.4719 50.7738 23.276C51.0612 22.9756 51.2833 22.623 51.4531 22.2311C51.4923 22.1528 51.5315 22.0744 51.5707 21.983C51.5968 21.983 51.623 21.996 51.636 21.996C51.636 22.0483 51.6752 22.1266 51.6491 22.1658C51.2963 23.1324 50.4864 24.1511 49.0493 24.2948C48.8403 24.3209 48.6182 24.3079 48.4091 24.3079C47.3248 24.2556 46.6977 23.6679 46.5671 22.5968C46.5279 22.2964 46.5148 21.983 46.5148 21.6695V14.93C46.0576 14.9038 45.6395 14.8777 45.2214 14.8516C45.2084 14.8516 45.2084 14.8124 45.1953 14.7863C45.4043 14.6949 45.6264 14.7471 45.8355 14.7341C46.0445 14.721 46.2535 14.7341 46.5017 14.7341V12.7096C47.4293 12.6573 48.3177 12.5398 49.1277 12.0957C49.2322 12.3308 49.1799 12.5398 49.1799 12.7488C49.193 12.9708 49.1799 13.1928 49.1799 13.4149V14.0549L49.2061 14.7471Z" fill="#01004C"/>
<path d="M122.538 11.1654C122.721 11.2177 122.904 11.2568 123.087 11.3221C123.583 11.4919 124.08 11.6748 124.589 11.8577C124.694 11.8968 124.785 11.9491 124.876 11.8577C124.798 11.6356 124.158 11.087 123.648 10.8258C123.165 10.5646 122.642 10.4079 122.094 10.3034V10.2511C122.172 10.2511 122.251 10.2381 122.329 10.2381C123.335 10.3295 124.289 10.643 125.19 11.1262C125.961 11.5311 126.627 12.0536 127.293 12.6021C127.894 13.0985 128.587 13.4903 129.318 13.7515C129.919 13.9605 130.546 14.0389 131.2 14.0519C132.219 14.065 133.185 13.8168 134.1 13.3727C134.727 13.0593 135.04 12.563 135.014 11.8707C135.001 11.5703 134.962 11.2568 134.91 10.9564C134.753 10.2773 134.283 9.92461 133.643 9.74175C133.277 9.63726 132.898 9.6242 132.532 9.70257C132.297 9.75481 132.153 9.8593 132.023 10.0683C131.513 10.9826 130.729 11.4397 129.671 11.3613C129.423 11.3483 129.201 11.283 128.992 11.1393C129.005 11.1132 129.005 11.087 129.018 11.087C129.384 11.0348 129.593 10.7866 129.802 10.5124C129.985 10.2511 130.154 9.98991 130.363 9.66338C130.259 10.0422 130.207 10.3687 130.011 10.656C129.985 10.6952 129.945 10.7213 129.932 10.7736C129.867 10.9173 129.932 11.0217 130.089 11.0217C130.141 11.0217 130.207 11.0087 130.259 10.9826C130.755 10.8781 131.134 10.5907 131.448 10.1989C131.487 10.1597 131.513 10.1205 131.526 10.0813C131.539 10.016 131.526 9.92461 131.487 9.87236C131.461 9.83318 131.356 9.83318 131.317 9.84624C131.16 9.89849 131.017 9.96379 130.86 10.003C130.964 9.83318 131.147 9.74175 131.304 9.63726C131.396 9.58502 131.552 9.54583 131.513 9.3891C131.474 9.25849 131.343 9.24543 131.226 9.24543C131.173 9.24543 131.121 9.23237 131.069 9.19318C131.382 9.0887 131.696 9.03645 132.01 9.14094C132.192 9.20625 132.375 9.21931 132.571 9.19318C133.329 9.12788 134.048 9.16706 134.701 9.61114C135.119 9.88542 135.406 10.2511 135.55 10.7344C135.811 11.6095 135.681 12.4193 135.21 13.1768C134.884 13.6993 134.387 13.9997 133.839 14.2609C132.702 14.7964 131.5 14.927 130.259 14.7703C129.07 14.6136 127.96 14.2087 126.914 13.634C126.797 13.5687 126.679 13.5034 126.562 13.438C126.549 13.438 126.536 13.438 126.509 13.4511C126.496 13.5034 126.457 13.5425 126.47 13.5948C126.653 14.8487 127.084 15.998 127.973 16.9384C128.26 17.2519 128.378 17.6307 128.482 18.0356C128.73 18.9498 128.926 19.8902 129.031 20.8437C129.096 21.4837 129.096 22.1368 129.135 22.7768V22.9727C129.148 23.1816 129.201 23.26 129.41 23.26C130.207 23.2992 130.938 23.6388 131.709 23.8216C131.735 23.8216 131.761 23.8478 131.774 23.8608V23.9C131.774 23.9131 131.761 23.9261 131.761 23.9261C130.612 23.9261 129.462 23.9392 128.325 23.9392C128.273 23.9392 128.234 23.9261 128.195 23.9131C128.325 22.9988 128.26 22.0976 128.143 21.2094C128.038 20.4257 127.881 19.6813 127.633 18.9237C127.62 18.8715 127.607 18.8192 127.594 18.767C127.62 18.7539 127.633 18.7409 127.646 18.7278C127.698 18.7931 127.751 18.8715 127.79 18.9498C127.96 19.3156 128.143 19.7074 128.312 20.0731C128.352 20.1515 128.378 20.2298 128.43 20.3082C128.456 20.3474 128.508 20.3604 128.548 20.3604C128.587 20.3474 128.6 20.2951 128.613 20.2429C128.626 20.2298 128.613 20.2037 128.6 20.1907C128.404 19.5507 128.221 18.9107 128.012 18.2837C127.868 17.8919 127.646 17.5523 127.306 17.2911C126.849 16.9254 126.601 16.4029 126.379 15.8805C126.157 15.358 125.948 14.8356 125.739 14.3001C125.281 13.1115 124.471 12.2756 123.374 11.6748C123.113 11.5311 122.825 11.3875 122.564 11.2438C122.525 11.2177 122.538 11.1915 122.538 11.1654Z" fill="#EB7124"/>
<path d="M4.70312 29.6744V29.3087C4.78151 29.2957 4.8599 29.2695 4.92522 29.2695H61.5198V29.6483C61.5024 29.6657 61.4893 29.6788 61.4806 29.6875C61.4719 29.6962 61.4632 29.7005 61.4545 29.7005C61.4153 29.7136 61.3761 29.7267 61.3369 29.7267H4.96441C4.91215 29.7267 4.84683 29.7267 4.79458 29.7136C4.76845 29.7136 4.75538 29.7005 4.70312 29.6744Z" fill="#EB7124"/>
<path d="M109.035 25.9937C108.879 25.9806 108.761 25.9676 108.657 25.9545C108.643 25.9545 108.643 25.9414 108.63 25.9414C108.787 25.8631 109.349 25.8369 109.806 25.9022V31.7667C109.963 31.7798 110.107 31.8059 110.237 31.8189V31.8712H109.088V31.1267C109.075 31.1136 109.048 31.1136 109.035 31.1006C108.996 31.1528 108.97 31.192 108.944 31.2442C108.591 31.9887 107.951 32.0802 107.324 31.8451C106.958 31.7014 106.684 31.4793 106.514 31.1398C106.135 30.4083 106.122 29.6508 106.527 28.9324C106.788 28.4492 107.233 28.1488 107.807 28.1226C108.291 28.0835 108.643 28.2924 108.879 28.7104C108.931 28.8018 108.97 28.8802 109.048 29.0239V25.9937H109.035ZM109.075 30.1863C109.048 29.6639 109.022 29.2981 108.866 28.9324C108.774 28.7104 108.643 28.5275 108.447 28.3839C108.082 28.1226 107.638 28.201 107.402 28.5928C107.285 28.7757 107.219 28.9977 107.167 29.2067C107.05 29.6769 107.076 30.1471 107.115 30.6043C107.154 30.8916 107.206 31.1789 107.376 31.4271C107.638 31.8451 108.095 31.9234 108.487 31.6361C108.683 31.4793 108.826 31.2834 108.892 31.0614C108.97 30.7218 109.022 30.3953 109.075 30.1863Z" fill="#01004C"/>
<path d="M66.0649 28.9702V31.7914H66.4438C66.5483 31.7914 66.6659 31.8045 66.7704 31.8306C66.5744 31.909 65.0067 31.922 64.5625 31.8828C64.7846 31.7261 65.0197 31.8698 65.2288 31.7783V25.9923C65.0197 25.9792 64.7977 25.9792 64.5886 25.9661C64.7846 25.8617 68.0507 25.8355 68.5471 25.9008C68.5994 26.1098 68.6124 27.22 68.5471 27.5988C68.5079 27.4812 68.4949 27.429 68.4949 27.3767C68.4426 27.1155 68.4034 26.8674 68.2989 26.6192C68.1421 26.2535 67.8416 26.0315 67.4497 26.0053C66.9925 25.9661 66.5352 25.9923 66.0518 25.9923V28.8396C66.3262 28.8788 66.6136 28.8657 66.8879 28.7743C67.2015 28.6829 67.306 28.4086 67.3583 28.0951C67.4497 28.3302 67.4497 29.4535 67.3713 29.78C67.3452 29.6755 67.3191 29.6233 67.3191 29.571C67.2668 29.3098 67.097 29.1269 66.8488 29.0355C66.6659 28.9441 66.3654 28.931 66.0649 28.9702Z" fill="#01004C"/>
<path d="M72.7279 31.7633C72.8978 31.7763 73.0284 31.8024 73.1982 31.8155C72.9631 31.9069 71.8526 31.92 71.5521 31.8155C71.6958 31.8024 71.8134 31.7894 71.9702 31.7633V28.3021C71.8265 28.289 71.6958 28.2759 71.5391 28.2498C71.6958 28.1453 72.2184 28.1323 72.7279 28.1976V28.9421C72.754 28.9421 72.7671 28.9551 72.7802 28.9551C72.8194 28.8768 72.8586 28.7984 72.9108 28.707C73.2374 28.1061 74.0735 27.871 74.6614 28.2368C74.8574 28.3543 74.975 28.5241 75.0272 28.7461C75.0664 28.929 75.0795 29.1249 75.0926 29.3208C75.1056 30.0261 75.0926 30.7184 75.0926 31.4367V31.7502C75.2493 31.7763 75.393 31.7894 75.5367 31.8024V31.8547H73.9298C73.9298 31.8416 73.9298 31.8155 73.9168 31.8024C73.9821 31.7894 74.0605 31.7763 74.1258 31.7633C74.1911 31.7502 74.2564 31.7502 74.3348 31.7371C74.3348 31.6588 74.3479 31.5804 74.3479 31.502C74.3479 30.7184 74.3479 29.9216 74.3348 29.138C74.3348 28.9421 74.3087 28.7331 74.2564 28.5372C74.1911 28.2759 74.0474 28.1715 73.7731 28.1976C73.4726 28.2237 73.2505 28.3804 73.0937 28.6155C72.9369 28.8506 72.8455 29.1119 72.8063 29.3992C72.6887 30.1959 72.754 30.9665 72.7279 31.7633Z" fill="#01004C"/>
<path d="M103.038 25.7539C103.718 27.7523 104.384 29.7506 105.063 31.762C105.246 31.7751 105.429 31.7881 105.625 31.8012C105.442 31.8926 103.822 31.9318 103.352 31.8535C103.613 31.7098 103.887 31.8404 104.149 31.749C103.966 31.1612 103.783 30.5735 103.6 29.9857H101.627C101.431 30.5604 101.235 31.1482 101.026 31.7751C101.327 31.7881 101.601 31.7881 101.862 31.8012C101.693 31.9057 100.608 31.9318 100.164 31.8535C100.425 31.7228 100.661 31.8273 100.922 31.749C101.601 29.7637 102.28 27.7653 102.947 25.767C102.973 25.767 103.012 25.767 103.038 25.7539ZM102.685 27.06C102.659 27.06 102.646 27.06 102.633 27.047C102.32 27.9743 102.006 28.9016 101.68 29.842H103.561C103.26 28.9016 102.973 27.9874 102.685 27.06Z" fill="#01004C"/>
<path d="M81.6604 31.7666C81.7911 31.7797 81.9217 31.7927 82.0654 31.8058C81.8956 31.8972 80.968 31.9234 80.4193 31.8581C80.55 31.7013 80.7198 31.8319 80.8635 31.7405V28.3054C80.7067 28.2924 80.5761 28.2793 80.4062 28.2532C80.5761 28.1618 81.1379 28.1356 81.6082 28.2009V28.9585C81.6343 28.9585 81.6474 28.9585 81.6604 28.9715C81.7127 28.8801 81.7519 28.7887 81.8041 28.7103C82.1307 28.1226 83.006 27.9267 83.5678 28.2924C83.7899 28.4491 83.8944 28.6711 83.9336 28.9324C83.9597 29.1022 83.9597 29.285 83.9728 29.4548V31.7797C84.1296 31.8058 84.2733 31.8189 84.4431 31.8319C84.2341 31.9103 83.1889 31.9364 82.7709 31.8842C82.9015 31.7536 83.0583 31.8581 83.202 31.7666C83.202 31.7274 83.2281 31.6752 83.2281 31.623C83.2281 30.7609 83.2151 29.9119 83.202 29.0499C83.202 28.8801 83.1628 28.6973 83.1236 28.5405C83.0583 28.3054 82.9277 28.2401 82.6794 28.2532C82.3267 28.2793 82.0915 28.4491 81.9086 28.7364C81.7388 29.0238 81.6474 29.3634 81.6343 29.703C81.6082 30.3821 81.6212 31.0483 81.6212 31.7274C81.6343 31.7274 81.6474 31.7405 81.6604 31.7666Z" fill="#01004C"/>
<path d="M76.9635 28.4855C77.055 28.5116 77.1072 28.5247 77.1595 28.5377C77.3946 28.6292 77.4861 28.8381 77.4208 29.0863C77.3685 29.3083 77.1595 29.452 76.9113 29.4259C76.6761 29.3998 76.5455 29.243 76.5455 28.9818C76.5455 28.7598 76.6369 28.5769 76.8067 28.4724C76.9896 28.3549 77.1856 28.2635 77.4077 28.1981C77.7604 28.0937 78.1132 28.1067 78.4659 28.1851C78.8448 28.2765 79.093 28.5247 79.1453 28.9165C79.1844 29.1255 79.1975 29.3345 79.1975 29.5565V31.5418C79.2236 31.7769 79.3804 31.8683 79.5764 31.7377C79.6809 31.6855 79.7593 31.5679 79.8377 31.4765C79.8769 31.4373 79.903 31.4112 79.9814 31.3328C79.8769 31.7116 79.5764 31.9467 79.1844 31.9598C78.7664 31.9728 78.5704 31.8161 78.4006 31.3328C78.3745 31.372 78.3483 31.3851 78.3353 31.4242C78.0217 32.0512 77.1072 32.0512 76.6892 31.7769C76.1274 31.4112 76.1143 30.5492 76.65 30.1443C76.8851 29.9745 77.1595 29.883 77.4469 29.8569C77.669 29.8308 77.8911 29.8177 78.1132 29.8047H78.4137C78.4659 29.3998 78.4528 29.021 78.3222 28.6422C78.2177 28.3418 78.0217 28.1981 77.7082 28.2243C77.473 28.2635 77.2117 28.3026 76.9635 28.4855ZM78.479 29.9222H78.0217C77.5514 29.9353 77.2379 30.1834 77.1464 30.6145C77.0942 30.8496 77.1203 31.0847 77.1464 31.3198C77.1725 31.5157 77.2771 31.7116 77.5122 31.7638C77.7604 31.8161 77.9825 31.7377 78.1262 31.5418C78.2438 31.372 78.3483 31.163 78.3875 30.954C78.4528 30.6275 78.4398 30.301 78.479 29.9222Z" fill="#01004C"/>
<path d="M95.2008 31.3715C95.1355 31.7372 94.835 31.9462 94.4561 31.9723C94.0511 31.9984 93.8813 31.8678 93.6723 31.3845C93.6592 31.3976 93.6331 31.3976 93.62 31.4237C93.3587 31.9462 92.7447 32.0768 92.2482 31.9331C91.8824 31.8417 91.6212 31.5935 91.5558 31.2017C91.4775 30.7837 91.582 30.418 91.9347 30.1568C92.196 29.987 92.4703 29.8956 92.7708 29.8694C93.0582 29.8433 93.3587 29.8303 93.6853 29.8172C93.7114 29.4515 93.7376 29.0597 93.62 28.707C93.5155 28.3805 93.3065 28.2368 92.9668 28.2499C92.6663 28.2629 92.4703 28.3282 92.2744 28.5111C92.3266 28.5242 92.392 28.5372 92.4311 28.5633C92.6532 28.6548 92.7578 28.8899 92.6924 29.1119C92.6271 29.347 92.3658 29.4776 92.1176 29.4254C91.9086 29.3731 91.7779 29.1641 91.8041 28.9421C91.8302 28.7593 91.9216 28.5895 92.0784 28.485C92.6663 28.1062 93.2934 28.0409 93.9466 28.3021C94.2732 28.4327 94.4039 28.7331 94.43 29.0727C94.4561 29.2686 94.4561 29.4515 94.4561 29.6474V31.4368C94.4561 31.5805 94.43 31.7372 94.6129 31.8025C94.7827 31.8547 94.9003 31.7502 95.0179 31.6458C95.0701 31.5282 95.1355 31.4498 95.2008 31.3715ZM93.6853 29.9217H93.3587C92.6794 29.8825 92.3658 30.3396 92.3528 30.9013C92.3397 31.058 92.3658 31.2278 92.405 31.3845C92.5226 31.8156 92.9407 31.9331 93.2934 31.6458C93.4632 31.489 93.5547 31.2931 93.62 31.0711C93.7114 30.7054 93.6853 30.3266 93.6853 29.9217Z" fill="#01004C"/>
<path d="M96.2727 25.9786H95.6719C95.8286 25.861 96.3511 25.8349 96.9781 25.9002C96.9868 25.9089 96.9955 25.9176 97.0042 25.9263C97.0042 25.9394 97.0173 25.9394 97.0303 25.9525C97.0303 25.9786 97.0434 25.9916 97.0434 26.0047V26.0961C97.0434 27.9769 97.0434 29.8577 97.0565 31.7385C97.0565 31.7516 97.0695 31.7647 97.0826 31.7908C97.2524 31.8038 97.4483 31.8169 97.6312 31.83V31.8822H95.6849C95.8809 31.7255 96.0899 31.8561 96.2858 31.7647V25.9786H96.2727Z" fill="#01004C"/>
<path d="M124.539 30.7444C124.5 31.3191 124.003 31.8154 123.416 31.933C122.227 32.1681 121.26 31.3844 121.221 30.1828C121.208 29.8171 121.247 29.4514 121.391 29.1118C121.665 28.511 122.149 28.1714 122.802 28.1191C122.998 28.1061 123.207 28.1061 123.402 28.1453C124.16 28.302 124.617 28.942 124.565 29.804C123.755 29.8432 122.932 29.804 122.083 29.8301C122.057 30.4048 122.07 30.9665 122.357 31.4628C122.527 31.7501 122.815 31.8677 123.141 31.8546C123.729 31.8154 124.147 31.515 124.408 30.9795C124.46 30.9012 124.487 30.8228 124.539 30.7444ZM123.703 29.6995C123.729 29.3338 123.69 28.9942 123.559 28.6677C123.468 28.4195 123.298 28.2367 123.011 28.2106C122.736 28.1975 122.514 28.3151 122.357 28.5632C122.149 28.9159 122.083 29.2946 122.07 29.6995H123.703Z" fill="#01004C"/>
<path d="M88.0272 28.7087C87.766 28.343 87.4003 28.2123 86.9561 28.2254C86.5643 28.2385 86.3161 28.4866 86.1724 28.8132C85.9634 29.3225 85.9373 29.858 85.9765 30.4066C86.0026 30.6678 86.0288 30.9291 86.1202 31.1772C86.3422 31.8695 87.0215 32.0654 87.6223 31.6474C87.8705 31.4776 88.0142 31.2295 88.1317 30.9682C88.1579 30.9029 88.184 30.8246 88.2754 30.7723C88.2624 30.8246 88.2754 30.8899 88.2493 30.9421C88.0403 31.4907 87.7137 31.9086 87.0868 31.9609C86.4075 32.0262 85.8459 31.8172 85.454 31.2556C85.1536 30.8115 85.0883 30.3152 85.1275 29.7927C85.1405 29.6491 85.1797 29.5315 85.2058 29.4009C85.5455 28.2385 86.6296 27.9511 87.4917 28.2123C88.0011 28.3691 88.3015 28.787 88.2493 29.2442C88.2232 29.4793 88.0925 29.6229 87.8836 29.6621C87.7007 29.6883 87.5309 29.636 87.4133 29.4923C87.2958 29.3356 87.2827 29.1397 87.3872 28.9699C87.4786 28.8132 87.6484 28.7348 87.8313 28.7609C87.8836 28.774 87.9489 28.787 87.988 28.8001C88.0142 28.7348 88.0142 28.7217 88.0272 28.7087Z" fill="#01004C"/>
<path d="M125.712 28.3033C125.556 28.2902 125.425 28.2771 125.255 28.2641C125.425 28.1596 125.987 28.1465 126.444 28.2118V28.8518C126.47 28.8518 126.483 28.8518 126.496 28.8649C126.548 28.7473 126.614 28.6298 126.679 28.5122C126.888 28.1857 127.201 28.0551 127.567 28.1335C127.92 28.1988 128.155 28.4992 128.129 28.8257C128.103 29.0869 127.92 29.2828 127.659 29.2828C127.397 29.2828 127.215 29.1392 127.188 28.9041C127.149 28.6428 127.293 28.4339 127.554 28.3686C127.606 28.3555 127.659 28.3555 127.724 28.3424C127.41 28.1596 127.071 28.1857 126.849 28.4469C126.718 28.6037 126.627 28.7865 126.575 28.9694C126.509 29.2045 126.457 29.4526 126.444 29.7139C126.418 30.3669 126.431 31.0069 126.431 31.6469C126.431 31.6861 126.444 31.7122 126.457 31.7775C126.601 31.7906 126.731 31.8036 126.914 31.8298C126.692 31.9212 125.752 31.9342 125.242 31.882C125.373 31.7383 125.543 31.8559 125.686 31.7644L125.712 28.3033Z" fill="#01004C"/>
<path d="M118.118 31.635C117.987 31.7526 117.883 31.8571 117.765 31.9746C117.674 31.7656 117.661 31.1256 117.739 30.7991C117.778 30.8775 117.791 30.9297 117.804 30.9689C118.013 31.6611 118.862 32.066 119.528 31.7787C119.79 31.6742 119.92 31.4913 119.946 31.204C119.973 30.9297 119.816 30.7338 119.581 30.6293C119.359 30.5248 119.124 30.4726 118.901 30.3681C118.692 30.2897 118.457 30.2114 118.274 30.0938C117.843 29.8326 117.687 29.3754 117.817 28.8922C117.948 28.422 118.314 28.1346 118.81 28.1085C119.163 28.0955 119.476 28.1999 119.777 28.4089C119.894 28.3044 119.999 28.213 120.116 28.1085C120.195 28.2914 120.208 28.8661 120.142 29.2579C120.103 29.1795 120.077 29.1273 120.064 29.0881C119.894 28.4612 119.254 28.0824 118.627 28.2391C118.497 28.2783 118.366 28.3567 118.261 28.4612C118.079 28.644 118.105 28.9314 118.301 29.1012C118.431 29.2187 118.588 29.2971 118.745 29.3624C118.954 29.4538 119.176 29.5191 119.398 29.6105C119.515 29.6628 119.633 29.702 119.751 29.7542C120.286 30.0154 120.495 30.3942 120.417 30.9428C120.351 31.426 119.959 31.8309 119.45 31.9354C118.967 32.0399 118.536 31.9354 118.118 31.635Z" fill="#01004C"/>
<path d="M130.908 28.4209C131.025 28.3033 131.13 28.2119 131.234 28.1074C131.312 28.2903 131.339 28.8258 131.273 29.2568C131.234 29.1784 131.208 29.1393 131.195 29.1001C131.025 28.4731 130.385 28.0944 129.758 28.2511C129.641 28.2772 129.523 28.3425 129.432 28.4209C129.223 28.6037 129.209 28.9172 129.432 29.1001C129.562 29.2176 129.719 29.296 129.876 29.3613C130.085 29.4527 130.307 29.518 130.529 29.5964C130.646 29.6486 130.764 29.6878 130.881 29.7401C131.417 30.0013 131.626 30.3801 131.548 30.9286C131.482 31.4119 131.09 31.8168 130.581 31.9213C130.111 32.0258 129.667 31.9213 129.262 31.6339C129.131 31.7384 129.014 31.856 128.844 31.9996V30.8372C128.857 30.8372 128.87 30.8241 128.896 30.8241C128.922 30.8764 128.935 30.9156 128.948 30.9678C129.157 31.6731 129.993 32.0649 130.659 31.7776C130.921 31.6731 131.064 31.4903 131.077 31.2029C131.103 30.9286 130.947 30.7327 130.712 30.6282C130.49 30.5237 130.254 30.4584 130.032 30.367C129.823 30.2886 129.588 30.2103 129.405 30.0927C128.974 29.8315 128.818 29.3874 128.948 28.8911C129.079 28.4209 129.445 28.1335 129.941 28.1074C130.281 28.1074 130.594 28.2119 130.908 28.4209Z" fill="#01004C"/>
<path d="M112.997 30.9121C113.363 30.0239 113.689 29.1749 114.055 28.2607H113.324C113.52 28.1431 114.225 28.13 114.722 28.1953C114.552 28.339 114.356 28.2345 114.16 28.2998C113.663 29.4884 113.193 30.7423 112.657 31.957C112.109 30.7423 111.651 29.5145 111.155 28.2868C111.011 28.2737 110.881 28.2607 110.75 28.2345C110.985 28.1431 112.344 28.13 112.631 28.2084C112.422 28.2998 112.226 28.2215 112.056 28.2737C112.03 28.5088 112.788 30.5725 112.997 30.9121Z" fill="#01004C"/>
<path d="M116.47 31.766C116.627 31.7791 116.757 31.7921 116.94 31.8183C116.744 31.9097 115.804 31.9358 115.281 31.8705C115.412 31.7138 115.582 31.8444 115.725 31.753V28.3048C115.569 28.2918 115.438 28.2787 115.281 28.2526C115.438 28.1612 115.934 28.135 116.47 28.2003C116.47 28.5791 116.483 28.984 116.483 29.3628V30.5513C116.47 30.9562 116.47 31.3481 116.47 31.766Z" fill="#01004C"/>
<path d="M69.2631 31.8015C69.3937 31.7885 69.5243 31.7754 69.668 31.7623V28.3011C69.5112 28.2881 69.3937 28.275 69.25 28.262V28.1967C69.4329 28.1967 69.6157 28.1836 69.7986 28.1836H70.3995C70.4125 28.3142 70.4256 28.4187 70.4256 28.5362V31.7754C70.5823 31.7885 70.726 31.8146 70.8566 31.8276V31.8799H69.25C69.2631 31.8407 69.2631 31.8276 69.2631 31.8015Z" fill="#01004C"/>
<path d="M90.2746 31.7614C90.4574 31.7745 90.5881 31.7875 90.7187 31.8006C90.5228 31.892 89.4386 31.9051 89.0859 31.8528C89.2296 31.7353 89.3733 31.8267 89.5039 31.7614C89.5562 31.5524 89.5823 28.6659 89.53 28.3002C89.3864 28.2872 89.2688 28.2741 89.0859 28.248C89.2949 28.1565 89.9088 28.1435 90.2876 28.2088L90.2746 31.7614Z" fill="#01004C"/>
<path d="M69.9833 26.7843C69.7221 26.7843 69.5 26.5492 69.5 26.2879C69.5 26.0137 69.7351 25.8047 69.9964 25.8047C70.2707 25.8047 70.4666 26.0267 70.4666 26.301C70.4666 26.5753 70.2576 26.7973 69.9833 26.7843Z" fill="#01004C"/>
<path d="M89.8407 25.8047C90.115 25.8047 90.3239 26.0137 90.3239 26.2879C90.3239 26.5622 90.115 26.7843 89.8407 26.7843C89.5664 26.7843 89.3574 26.5622 89.3443 26.301C89.3312 26.0398 89.5533 25.8047 89.8407 25.8047Z" fill="#01004C"/>
<path d="M116.039 25.8053C116.3 25.8053 116.522 26.0404 116.522 26.3147C116.509 26.5759 116.287 26.7979 116.025 26.7979C115.751 26.7979 115.555 26.5759 115.555 26.2885C115.542 26.0012 115.751 25.7922 116.039 25.8053Z" fill="#01004C"/>
</svg>
